<svg width="398" height="605" viewBox="0 0 398 605" fill="none" xmlns="http://www.w3.org/2000/svg">
<g clip-path="url(#clip0_8_46253)">
<rect x="395" y="602" width="392" height="600" transform="rotate(-180 395 602)" fill="white"/>
<rect x="395" y="602" width="392" height="100" transform="rotate(-180 395 602)" fill="#E4E4E4"/>
<path d="M306.141 445.4V423H302.877V445.4H306.141ZM302.269 433.368L294.429 423H290.397L299.037 434.264L291.229 445.4H295.037L302.269 435V433.368ZM306.781 435L314.013 445.4H317.821L310.013 434.264L318.653 423H314.621L306.781 433.368V435ZM271.294 423V445.4H273.79L284.702 429.624V445.4H287.902V423H285.342L274.526 438.648V423H271.294ZM258.409 423V442.328H251.657V445.4H268.425V442.328H261.641V423H258.409ZM245.929 445.4H249.161V423H245.929V432.728H236.457V423H233.193V445.4H236.457V435.928H245.929V445.4ZM220.728 440.536L217.368 431.704H224.088L220.728 440.536ZM214.04 423H210.584L219.576 445.688H221.944L230.936 423H227.448L225.272 428.664H216.184L214.04 423ZM196.681 434.36L200.457 434.36C203.177 434.36 204.521 436.312 204.521 438.264C204.521 440.184 203.177 442.136 200.457 442.136H195.497V423H192.297V445.4H200.457C205.321 445.4 207.753 441.816 207.753 438.264C207.753 435.096 205.801 432.088 201.961 431.416L209.033 423H204.841L196.681 432.824V434.36ZM174.35 422.968L164.27 445.4H167.95L171.406 437.336L172.846 433.784L174.51 437.368L178.478 445.4H182.126L174.702 430.168L177.87 422.968H174.35ZM155.228 440.088L148.604 423H145.084L154.076 445.688H156.444L165.436 423H161.916L155.228 440.088ZM125.794 423V445.4H128.29L139.202 429.624V445.4H142.402V423H139.842L129.026 438.648V423H125.794ZM107.341 425.976V445.4H110.669V425.976H118.957V445.4H122.253V423H108.685V418.456H105.517V425.976H107.341ZM92.2905 440.536L88.9305 431.704H95.6505L92.2905 440.536ZM85.6025 423H82.1465L91.1385 445.688H93.5065L102.498 423H99.0105L96.8345 428.664H87.7465L85.6025 423Z" fill="#292929"/>
<path d="M228.51 97.24C223.518 97.24 221.118 93.88 221.118 90.52C221.118 87.16 223.518 83.896 228.51 83.896C233.454 83.896 235.902 87.16 235.902 90.52C235.902 93.88 233.454 97.24 228.51 97.24ZM238.686 97.24C239.982 95.272 240.75 92.872 240.75 90.52C240.75 84.76 236.622 79 228.51 79C220.35 79 216.27 84.76 216.27 90.52C216.27 94.408 218.142 98.344 221.838 100.456C224.19 101.752 227.502 101.896 229.998 101.032L221.79 112.6H227.742L238.686 97.24ZM199.669 108.136C194.245 108.136 191.797 102.424 191.797 95.752C191.797 89.416 194.245 83.416 199.669 83.416C205.093 83.416 207.445 89.416 207.445 95.752C207.445 102.424 205.093 108.136 199.669 108.136ZM199.669 78.664C191.125 78.664 186.805 87.208 186.805 95.752C186.805 104.344 191.125 112.936 199.669 112.936C208.261 112.936 212.485 104.344 212.485 95.752C212.485 87.208 208.261 78.664 199.669 78.664ZM182.845 112.6V79H177.949V90.184H170.557C163.309 90.184 159.661 95.752 159.661 101.368C159.661 106.984 163.309 112.6 170.557 112.6H182.845ZM177.949 94.984V107.704H170.557C166.477 107.704 164.461 104.536 164.461 101.32C164.461 98.152 166.477 94.984 170.557 94.984H177.949Z" fill="#292929"/>
<g clip-path="url(#clip1_8_46253)">
<path d="M138.969 283.95L196.319 338.923C197.816 340.36 200.184 340.36 201.681 338.923L259.088 283.893C260.303 282.679 261 281.005 261 279.295C261 275.735 258.101 272.836 254.541 272.836H245.5V226.336C245.5 220.628 240.876 216.003 235.166 216.003L162.834 216.003C157.124 216.003 152.5 220.628 152.5 226.336L152.5 272.836H143.459C139.899 272.836 137 275.735 137 279.295C137 281.005 137.697 282.679 138.969 283.95V283.95Z" fill="#E4E4E4"/>
</g>
</g>
<rect x="395" y="602" width="392" height="600" transform="rotate(-180 395 602)" stroke="#292929" stroke-width="5"/>
<defs>
<clipPath id="clip0_8_46253">
<rect x="395" y="602" width="392" height="600" transform="rotate(-180 395 602)" fill="white"/>
</clipPath>
<clipPath id="clip1_8_46253">
<rect width="124" height="124" fill="white" transform="matrix(-1 0 0 -1 261 340)"/>
</clipPath>
</defs>
</svg>
