<svg width="605" height="398" viewBox="0 0 605 398" fill="none" xmlns="http://www.w3.org/2000/svg">
<g clip-path="url(#clip0_8_48254)">
<rect x="3" y="395" width="392" height="600" transform="rotate(-90 3 395)" fill="white"/>
<path d="M182.032 319.068L159.6 308.988V312.668L167.664 316.124L171.216 317.564L167.632 319.228L159.6 323.196V326.845L174.832 319.42L182.032 322.589V319.068ZM164.912 299.947L182 293.323V289.803L159.312 298.795V301.163L182 310.155V306.635L164.912 299.947ZM182 270.513H159.6V273.009L175.376 283.921H159.6V287.121H182V284.561L166.352 273.745H182V270.513ZM179.024 252.059H159.6V255.387H179.024V263.675H159.6V266.971H182V253.403H186.544V250.235H179.024V252.059ZM164.464 237.009L173.296 233.649V240.369L164.464 237.009ZM182 230.321V226.865L159.312 235.857V238.225L182 247.217V243.729L176.336 241.553V232.465L182 230.321ZM159.6 216.849H182V213.585H162.768L162.768 204.177H182V200.881H159.6L159.6 216.849ZM170.8 177.392C173.104 177.392 175.12 178.32 176.592 179.76C178.096 181.264 179.024 183.344 179.024 185.552C179.024 187.76 178.096 189.808 176.592 191.28C175.12 192.752 173.072 193.68 170.8 193.68C168.528 193.68 166.48 192.752 165.008 191.28C163.504 189.808 162.576 187.76 162.576 185.552C162.576 183.344 163.504 181.264 165.008 179.76C166.48 178.32 168.496 177.392 170.8 177.392ZM170.8 196.944C173.968 196.944 176.816 195.632 178.896 193.616C181.008 191.568 182.288 188.688 182.288 185.552C182.288 182.384 181.008 179.536 178.896 177.456C176.816 175.44 173.968 174.128 170.8 174.128C167.632 174.128 164.784 175.44 162.704 177.456C160.624 179.536 159.312 182.384 159.312 185.552C159.312 188.688 160.624 191.568 162.704 193.616C164.784 195.632 167.632 196.944 170.8 196.944ZM164.912 162.728L182 156.104V152.584L159.312 161.576V163.944L182 172.936V169.416L164.912 162.728ZM170.64 139.118V142.894C170.64 145.614 168.688 146.958 166.736 146.958C164.816 146.958 162.864 145.614 162.864 142.894V137.934H182V134.734H159.6V142.894C159.6 147.758 163.184 150.19 166.736 150.19C169.904 150.19 172.912 148.238 173.584 144.398L182 151.47V147.278L172.176 139.118H170.64ZM159.6 128.148V131.38H182V128.148H172.272V118.676H182V115.412H159.6V118.676H169.072V128.148H159.6ZM159.6 112.099H182V108.835H159.6V112.099ZM171.632 108.227L182 99.6827V95.4587L170.736 104.899L159.6 96.3547V100.323L170 108.227H171.632ZM164.464 84.2592L173.296 80.8992V87.6192L164.464 84.2592ZM182 77.5712V74.1152L159.312 83.1072V85.4752L182 94.4672V90.9792L176.336 88.8032V79.7152L182 77.5712Z" fill="#292929"/>
<path d="M526 237.42H492.256V241.308L505.024 250.38L507.664 246.732L501.52 242.22H526V237.42ZM515.008 233.12H518.416V216.368H526V211.568H518.416V208.832H513.712V211.568H492.4V215.312L515.008 233.12ZM513.808 226.784L500.8 216.272H513.808V226.784ZM496.864 191.615C496.864 186.191 502.576 183.743 509.248 183.743C515.584 183.743 521.584 186.191 521.584 191.615C521.584 197.039 515.584 199.391 509.248 199.391C502.576 199.391 496.864 197.039 496.864 191.615ZM526.336 191.615C526.336 183.071 517.792 178.751 509.248 178.751C500.656 178.751 492.064 183.071 492.064 191.615C492.064 200.207 500.656 204.431 509.248 204.431C517.792 204.431 526.336 200.207 526.336 191.615ZM492.4 174.79H526V169.894H514.816V162.502C514.816 155.254 509.248 151.606 503.632 151.606C498.016 151.606 492.4 155.254 492.4 162.502V174.79ZM510.016 169.894H497.296V162.502C497.296 158.422 500.464 156.406 503.68 156.406C506.848 156.406 510.016 158.422 510.016 162.502V169.894Z" fill="#292929"/>
<g clip-path="url(#clip1_8_48254)">
<path d="M321.05 138.969L266.077 196.319C264.64 197.816 264.64 200.184 266.077 201.681L321.107 259.088C322.321 260.303 323.995 261 325.705 261C329.265 261 332.164 258.101 332.164 254.541V245.5H378.664C384.372 245.5 388.997 240.876 388.997 235.166V162.834C388.997 157.124 384.372 152.5 378.664 152.5H332.164V143.459C332.164 139.899 329.265 137 325.705 137C323.995 137 322.321 137.697 321.05 138.969Z" fill="#F4ED62"/>
</g>
</g>
<rect x="3" y="395" width="392" height="600" transform="rotate(-90 3 395)" stroke="#292929" stroke-width="5"/>
<defs>
<clipPath id="clip0_8_48254">
<rect x="3" y="395" width="392" height="600" transform="rotate(-90 3 395)" fill="white"/>
</clipPath>
<clipPath id="clip1_8_48254">
<rect width="124" height="124" fill="white" transform="matrix(0 -1 1 0 265 261)"/>
</clipPath>
</defs>
</svg>
