<svg width="605" height="398" viewBox="0 0 605 398" fill="none" xmlns="http://www.w3.org/2000/svg">
<g clip-path="url(#clip0_8_48255)">
<rect x="3" y="395" width="392" height="600" transform="rotate(-90 3 395)" fill="white"/>
<rect x="3" y="395" width="392" height="100" transform="rotate(-90 3 395)" fill="white"/>
<path d="M172.208 334.282V322.794C173.904 323.05 175.408 323.85 176.56 324.97C178.032 326.378 178.96 328.33 178.96 330.474C178.96 333.866 177.008 336.746 173.616 337.898V341.066C178.704 339.786 182.16 335.69 182.16 330.474C182.16 327.434 180.88 324.682 178.832 322.73C176.784 320.81 173.968 319.53 170.864 319.53C167.696 319.53 164.88 320.81 162.832 322.73C160.816 324.682 159.504 327.434 159.504 330.474C159.504 335.594 162.704 339.626 167.76 340.906V337.706C164.4 336.522 162.704 333.77 162.704 330.474C162.704 328.33 163.632 326.378 165.104 324.97C166.224 323.914 167.6 323.146 169.2 322.826V334.282H172.208ZM164.912 308.087L182 301.463V297.943L159.312 306.935V309.303L182 318.295V314.775L164.912 308.087ZM172.4 292.222V282.078H169.136V292.222H162.832V281.854H159.6V295.486H182V281.822H178.768V292.222H172.4ZM159.6 278.802H182V275.538H159.6V278.802ZM171.632 274.93L182 266.386V262.162L170.736 271.602L159.6 263.058V267.026L170 274.93H171.632ZM182 250.674H162.672V243.922H159.6V260.69H162.672V253.906H182V250.674ZM159.6 240.771H182V237.507H174.544V232.579C174.544 227.747 170.832 225.315 167.088 225.315C163.344 225.315 159.6 227.747 159.6 232.579V240.771ZM171.344 237.507H162.864V232.579C162.864 229.859 164.976 228.515 167.12 228.515C169.232 228.515 171.344 229.859 171.344 232.579V237.507ZM170.8 203.095C173.104 203.095 175.12 204.023 176.592 205.463C178.096 206.967 179.024 209.047 179.024 211.255C179.024 213.463 178.096 215.511 176.592 216.983C175.12 218.455 173.072 219.383 170.8 219.383C168.528 219.383 166.48 218.455 165.008 216.983C163.504 215.511 162.576 213.463 162.576 211.255C162.576 209.047 163.504 206.967 165.008 205.463C166.48 204.023 168.496 203.095 170.8 203.095ZM170.8 222.647C173.968 222.647 176.816 221.335 178.896 219.319C181.008 217.271 182.288 214.391 182.288 211.255C182.288 208.087 181.008 205.239 178.896 203.159C176.816 201.143 173.968 199.831 170.8 199.831C167.632 199.831 164.784 201.143 162.704 203.159C160.624 205.239 159.312 208.087 159.312 211.255C159.312 214.391 160.624 217.271 162.704 219.319C164.784 221.335 167.632 222.647 170.8 222.647ZM170.864 196.928C174.256 196.928 176.784 195.648 178.832 193.728C180.88 191.776 182.16 189.024 182.16 185.984C182.16 180.768 178.704 176.672 173.616 175.392V178.56C177.008 179.712 178.96 182.592 178.96 185.984C178.96 188.128 178.032 190.08 176.56 191.488C175.088 192.896 173.392 193.792 170.864 193.792C166.832 193.792 162.576 190.976 162.576 185.984C162.576 182.688 164.272 179.936 167.632 178.752V175.552C162.576 176.832 159.376 180.864 159.376 185.984C159.376 191.936 164.336 196.928 170.864 196.928ZM182 164.112H162.672V157.36H159.6V174.128H162.672V167.344H182V164.112ZM164.464 147.681L173.296 144.321V151.041L164.464 147.681ZM182 140.993V137.537L159.312 146.529V148.897L182 157.889V154.401L176.336 152.225V143.137L182 140.993ZM159.6 132.257V135.489H182V132.257H172.272V122.785H182V119.521H159.6V122.785H169.072V132.257H159.6ZM179.024 101.2H159.6V104.528H179.024V112.816H159.6V116.112H182V102.544H186.544V99.3761H179.024V101.2ZM182 79.6536H159.6V82.1496L175.376 93.0616H159.6V96.2616H182V93.7016L166.352 82.8856H182V79.6536ZM170.64 65.0401V68.8161C170.64 71.5361 168.688 72.8801 166.736 72.8801C164.816 72.8801 162.864 71.5361 162.864 68.8161V63.8561H182V60.6561H159.6V68.8161C159.6 73.6801 163.184 76.1121 166.736 76.1121C169.904 76.1121 172.912 74.1601 173.584 70.3201L182 77.3921V73.2001L172.176 65.0401H170.64Z" fill="#292929"/>
<path d="M526 237.538H492.256V241.426L505.024 250.498L507.664 246.85L501.52 242.338H526V237.538ZM518.368 231.918C523.36 229.95 526 226.062 526 220.446C526 212.286 520.144 208.11 514.288 208.158C509.92 208.206 505.792 210.558 503.872 215.214C502.384 218.91 502.48 222.894 503.68 226.59H496.96V210.078H492.256V231.486H508.24L509.488 228.75C507.136 224.766 506.752 220.926 508.384 216.942C509.488 214.398 511.936 213.054 514.288 213.054C517.744 213.006 521.104 215.454 521.104 220.446C521.104 223.758 519.28 226.11 516.544 227.454L518.368 231.918ZM496.864 191.497C496.864 186.073 502.576 183.625 509.248 183.625C515.584 183.625 521.584 186.073 521.584 191.497C521.584 196.921 515.584 199.273 509.248 199.273C502.576 199.273 496.864 196.921 496.864 191.497ZM526.336 191.497C526.336 182.953 517.792 178.633 509.248 178.633C500.656 178.633 492.064 182.953 492.064 191.497C492.064 200.089 500.656 204.313 509.248 204.313C517.792 204.313 526.336 200.089 526.336 191.497ZM492.4 174.673H526V169.777H514.816V162.385C514.816 155.137 509.248 151.489 503.632 151.489C498.016 151.489 492.4 155.137 492.4 162.385V174.673ZM510.016 169.777H497.296V162.385C497.296 158.305 500.464 156.289 503.68 156.289C506.848 156.289 510.016 158.305 510.016 162.385V169.777Z" fill="#292929"/>
<path d="M315.859 238.961C315.859 236.953 314.234 235.328 312.227 235.328C310.219 235.328 308.594 236.953 308.594 238.961V253.492C308.594 255.5 310.219 257.125 312.227 257.125C314.234 257.125 315.859 255.5 315.859 253.492V249.859H326.758C328.111 249.859 329.435 248.824 329.872 248.096L344.661 223.45L367.031 227.517C368.507 236.059 376.409 242.594 385.367 242.594C387.375 242.594 389 240.968 389 238.961V159.039C389 157.032 387.375 155.406 385.367 155.406C376.409 155.406 368.507 161.941 367.031 170.483L344.661 174.55L329.872 149.904C329.253 148.87 327.744 148.141 326.758 148.141H315.859V144.508C315.859 142.5 314.234 140.875 312.227 140.875C310.219 140.875 308.594 142.5 308.594 144.508V159.039C308.594 161.047 310.219 162.672 312.227 162.672C314.234 162.672 315.859 161.047 315.859 159.039V155.406H323.125V178.467L308.515 181.123L293.509 157.113C292.782 156.416 292.184 155.406 290.43 155.406H279.531V151.773C279.531 149.766 277.906 148.141 275.898 148.141C273.891 148.141 272.266 149.766 272.266 151.773V166.305C272.266 168.312 273.891 169.938 275.898 169.938C277.906 169.938 279.531 168.312 279.531 166.305V162.672H286.797V184.469H272.266V180.836C272.266 178.828 270.64 177.203 268.633 177.203C266.625 177.203 265 178.828 265 180.836V217.164C265 219.172 266.625 220.797 268.633 220.797C270.64 220.797 272.266 219.172 272.266 217.164V213.531H286.797V235.328H279.531V231.695C279.531 229.688 277.906 228.062 275.898 228.062C273.891 228.062 272.266 229.688 272.266 231.695V246.227C272.266 248.234 273.891 249.859 275.898 249.859C277.906 249.859 279.531 248.234 279.531 246.227V242.594H290.43C291.656 242.594 292.984 241.732 293.509 240.887L308.515 216.877L323.125 219.533V242.594H315.859V238.961ZM330.391 164.889L337.021 175.939L330.391 177.145V164.889ZM366.719 211.314L359.33 199L366.719 186.686V211.314ZM363.111 178.578L355.094 191.939L348.654 181.206L363.111 178.578ZM294.062 171.706L300.823 182.522L294.062 183.751V171.706ZM318.856 186.624L315.404 192.146L312.658 187.751L318.856 186.624ZM272.266 206.266V191.734H286.797V206.266H272.266ZM294.062 206.868V191.132L304.966 189.149L311.122 198.999L304.964 208.85L294.062 206.868ZM323.125 193.503V204.498L319.689 199L323.125 193.503ZM312.658 210.249L315.405 205.853L318.857 211.376L312.658 210.249ZM330.391 213.474V184.526L341.014 182.596L350.857 198.999L341.014 215.404L330.391 213.474ZM294.062 226.292V214.249L300.821 215.478L294.062 226.292ZM348.654 216.794L355.094 206.061L363.111 219.422L348.654 216.794ZM330.391 220.855L337.021 222.06L330.391 233.11V220.855Z" fill="#292929"/>
</g>
<rect x="3" y="395" width="392" height="600" transform="rotate(-90 3 395)" stroke="#292929" stroke-width="5"/>
<defs>
<clipPath id="clip0_8_48255">
<rect x="3" y="395" width="392" height="600" transform="rotate(-90 3 395)" fill="white"/>
</clipPath>
</defs>
</svg>
