<svg width="605" height="398" viewBox="0 0 605 398" fill="none" xmlns="http://www.w3.org/2000/svg">
<g clip-path="url(#clip0_8_48256)">
<rect x="3" y="395" width="392" height="600" transform="rotate(-90 3 395)" fill="white"/>
<path d="M182.032 323.959L159.6 313.879V317.559L167.664 321.015L171.216 322.455L167.632 324.119L159.6 328.087V331.735L174.832 324.311L182.032 327.479V323.959ZM164.912 304.837L182 298.213V294.693L159.312 303.685V306.053L182 315.045V311.525L164.912 304.837ZM182 275.404H159.6V277.9L175.376 288.812H159.6V292.012H182V289.452L166.352 278.636H182V275.404ZM179.024 256.95H159.6V260.278H179.024V268.566H159.6V271.862H182V258.294H186.544V255.126H179.024V256.95ZM164.464 241.9L173.296 238.54V245.26L164.464 241.9ZM182 235.212V231.756L159.312 240.748V243.116L182 252.108V248.62L176.336 246.444V237.356L182 235.212ZM170.864 221.771C174.256 221.771 176.784 220.491 178.832 218.571C180.88 216.619 182.16 213.867 182.16 210.827C182.16 205.611 178.704 201.515 173.616 200.235L173.616 203.403C177.008 204.555 178.96 207.435 178.96 210.827C178.96 212.971 178.032 214.923 176.56 216.331C175.088 217.739 173.392 218.635 170.864 218.635C166.832 218.635 162.576 215.819 162.576 210.827C162.576 207.531 164.272 204.779 167.632 203.595V200.395C162.576 201.675 159.376 205.707 159.376 210.827C159.376 216.779 164.336 221.771 170.864 221.771ZM159.6 196.74H182V193.476H174.544V188.548C174.544 183.716 170.832 181.284 167.088 181.284C163.344 181.284 159.6 183.716 159.6 188.548V196.74ZM171.344 193.476H162.864V188.548C162.864 185.828 164.976 184.484 167.12 184.484C169.232 184.484 171.344 185.828 171.344 188.548V193.476ZM172.4 175.128V164.984H169.136V175.128H162.832V164.76H159.6V178.392H182V164.728H178.768V175.128H172.4ZM182 151.581H162.672V144.829H159.6V161.597H162.672V154.813H182V151.581ZM172.4 138.909V128.765H169.136V138.909H162.832V128.541H159.6V142.173H182V128.509H178.768V138.909H172.4ZM159.6 122.257V125.489H182V122.257H172.272V112.785H182V109.521H159.6V112.785H169.072V122.257H159.6ZM159.6 106.208H182V102.944H159.6V106.208ZM171.632 102.336L182 93.7921V89.5681L170.736 99.0081L159.6 90.4641V94.4321L170 102.336H171.632ZM164.464 78.3686L173.296 75.0086V81.7286L164.464 78.3686ZM182 71.6806V68.2246L159.312 77.2166V79.5846L182 88.5766V85.0886L176.336 82.9126V73.8246L182 71.6806Z" fill="#292929"/>
<path d="M526 237.42H492.256V241.308L505.024 250.38L507.664 246.732L501.52 242.22H526V237.42ZM515.008 233.12H518.416V216.368H526V211.568H518.416V208.832H513.712V211.568H492.4V215.312L515.008 233.12ZM513.808 226.784L500.8 216.272H513.808V226.784ZM496.864 191.615C496.864 186.191 502.576 183.743 509.248 183.743C515.584 183.743 521.584 186.191 521.584 191.615C521.584 197.039 515.584 199.391 509.248 199.391C502.576 199.391 496.864 197.039 496.864 191.615ZM526.336 191.615C526.336 183.071 517.792 178.751 509.248 178.751C500.656 178.751 492.064 183.071 492.064 191.615C492.064 200.207 500.656 204.431 509.248 204.431C517.792 204.431 526.336 200.207 526.336 191.615ZM492.4 174.79H526V169.894H514.816V162.502C514.816 155.254 509.248 151.606 503.632 151.606C498.016 151.606 492.4 155.254 492.4 162.502V174.79ZM510.016 169.894H497.296V162.502C497.296 158.422 500.464 156.406 503.68 156.406C506.848 156.406 510.016 158.422 510.016 162.502V169.894Z" fill="#292929"/>
<g clip-path="url(#clip1_8_48256)">
<path d="M321.05 138.969L266.077 196.319C264.64 197.816 264.64 200.184 266.077 201.681L321.107 259.088C322.321 260.303 323.995 261 325.705 261C329.265 261 332.164 258.101 332.164 254.541V245.5H378.664C384.372 245.5 388.997 240.876 388.997 235.166V162.834C388.997 157.124 384.372 152.5 378.664 152.5H332.164V143.459C332.164 139.899 329.265 137 325.705 137C323.995 137 322.321 137.697 321.05 138.969Z" fill="#F4ED62"/>
</g>
</g>
<rect x="3" y="395" width="392" height="600" transform="rotate(-90 3 395)" stroke="#292929" stroke-width="5"/>
<defs>
<clipPath id="clip0_8_48256">
<rect x="3" y="395" width="392" height="600" transform="rotate(-90 3 395)" fill="white"/>
</clipPath>
<clipPath id="clip1_8_48256">
<rect width="124" height="124" fill="white" transform="matrix(0 -1 1 0 265 261)"/>
</clipPath>
</defs>
</svg>
