<svg width="605" height="398" viewBox="0 0 605 398" fill="none" xmlns="http://www.w3.org/2000/svg">
<g clip-path="url(#clip0_8_48257)">
<rect x="3" y="395" width="392" height="600" transform="rotate(-90 3 395)" fill="white"/>
<path d="M159.6 305.865H182V302.601H174.544V297.673C174.544 292.841 170.832 290.409 167.088 290.409C163.344 290.409 159.6 292.841 159.6 297.673V305.865ZM171.344 302.601H162.864V297.673C162.864 294.953 164.976 293.609 167.12 293.609C169.232 293.609 171.344 294.953 171.344 297.673V302.601ZM170.8 268.189C173.104 268.189 175.12 269.117 176.592 270.557C178.096 272.061 179.024 274.141 179.024 276.349C179.024 278.557 178.096 280.605 176.592 282.077C175.12 283.549 173.072 284.477 170.8 284.477C168.528 284.477 166.48 283.549 165.008 282.077C163.504 280.605 162.576 278.557 162.576 276.349C162.576 274.141 163.504 272.061 165.008 270.557C166.48 269.117 168.496 268.189 170.8 268.189ZM170.8 287.741C173.968 287.741 176.816 286.429 178.896 284.413C181.008 282.365 182.288 279.485 182.288 276.349C182.288 273.181 181.008 270.333 178.896 268.253C176.816 266.237 173.968 264.925 170.8 264.925C167.632 264.925 164.784 266.237 162.704 268.253C160.624 270.333 159.312 273.181 159.312 276.349C159.312 279.485 160.624 282.365 162.704 284.413C164.784 286.429 167.632 287.741 170.8 287.741ZM170.864 262.021C174.256 262.021 176.784 260.741 178.832 258.821C180.88 256.869 182.16 254.117 182.16 251.077C182.16 245.861 178.704 241.765 173.616 240.485V243.653C177.008 244.805 178.96 247.685 178.96 251.077C178.96 253.221 178.032 255.173 176.56 256.581C175.088 257.989 173.392 258.885 170.864 258.885C166.832 258.885 162.576 256.069 162.576 251.077C162.576 247.781 164.272 245.029 167.632 243.845V240.645C162.576 241.925 159.376 245.957 159.376 251.077C159.376 257.029 164.336 262.021 170.864 262.021ZM182 229.206H162.672V222.454H159.6V239.222H162.672V232.438H182V229.206ZM170.8 201.095C173.104 201.095 175.12 202.023 176.592 203.463C178.096 204.967 179.024 207.047 179.024 209.255C179.024 211.463 178.096 213.511 176.592 214.983C175.12 216.455 173.072 217.383 170.8 217.383C168.528 217.383 166.48 216.455 165.008 214.983C163.504 213.511 162.576 211.463 162.576 209.255C162.576 207.047 163.504 204.967 165.008 203.463C166.48 202.023 168.496 201.095 170.8 201.095ZM170.8 220.647C173.968 220.647 176.816 219.335 178.896 217.319C181.008 215.271 182.288 212.391 182.288 209.255C182.288 206.087 181.008 203.239 178.896 201.159C176.816 199.143 173.968 197.831 170.8 197.831C167.632 197.831 164.784 199.143 162.704 201.159C160.624 203.239 159.312 206.087 159.312 209.255C159.312 212.391 160.624 215.271 162.704 217.319C164.784 219.335 167.632 220.647 170.8 220.647ZM162.672 191.192L162.672 185.08C162.672 181.56 168.528 181.624 168.528 185.144V191.192H162.672ZM159.6 194.392H182V184.28C182 179.992 178.608 177.784 175.248 177.784C173.136 177.784 170.768 178.744 169.68 181.304C166.512 177.048 159.6 179.768 159.6 185.08L159.6 194.392ZM171.728 191.192V184.28C171.728 182.104 173.52 181.016 175.28 181.016C177.04 181.016 178.864 182.104 178.864 184.28V191.192H171.728ZM170.864 174.928C174.256 174.928 176.784 173.648 178.832 171.728C180.88 169.776 182.16 167.024 182.16 163.984C182.16 158.768 178.704 154.672 173.616 153.392V156.56C177.008 157.712 178.96 160.592 178.96 163.984C178.96 166.128 178.032 168.08 176.56 169.488C175.088 170.896 173.392 171.792 170.864 171.792C166.832 171.792 162.576 168.976 162.576 163.984C162.576 160.688 164.272 157.936 167.632 156.752V153.552C162.576 154.832 159.376 158.864 159.376 163.984C159.376 169.936 164.336 174.928 170.864 174.928ZM159.6 150.552H182V147.288H159.6V150.552ZM171.632 146.68L182 138.136V133.912L170.736 143.352L159.6 134.808V138.776L170 146.68H171.632ZM164.464 122.712L173.296 119.352V126.072L164.464 122.712ZM182 116.024V112.568L159.312 121.56V123.928L182 132.92V129.432L176.336 127.256V118.168L182 116.024ZM170.64 98.6651V102.441C170.64 105.161 168.688 106.505 166.736 106.505C164.816 106.505 162.864 105.161 162.864 102.441V97.4811H182V94.2811H159.6V102.441C159.6 107.305 163.184 109.737 166.736 109.737C169.904 109.737 172.912 107.785 173.584 103.945L182 111.017V106.825L172.176 98.6651H170.64ZM197.6 296.851V300.083H220V296.851H210.272V287.379H220V284.115H197.6V287.379H207.072V296.851H197.6ZM202.464 271.65L211.296 268.29V275.01L202.464 271.65ZM220 264.962V261.506L197.312 270.498V272.866L220 281.858V278.37L214.336 276.194V267.106L220 264.962ZM197.6 243.763V258.611H220V248.499C220 244.211 216.608 242.003 213.248 242.003C209.664 242.003 206.528 244.467 206.528 248.499V255.411H200.736V243.763H197.6ZM209.632 255.411V248.499C209.632 246.323 211.52 245.235 213.28 245.235C215.04 245.235 216.864 246.323 216.864 248.499V255.411H209.632ZM210.4 235.69V225.546H207.136V235.69H200.832V225.322H197.6V238.954H220V225.29H216.768V235.69H210.4ZM197.6 222.303H220V219.039H212.544V214.111C212.544 209.279 208.832 206.847 205.088 206.847C201.344 206.847 197.6 209.279 197.6 214.111V222.303ZM209.344 219.039H200.864V214.111C200.864 211.391 202.976 210.047 205.12 210.047C207.232 210.047 209.344 211.391 209.344 214.111V219.039ZM210.4 200.69V190.546H207.136V200.69H200.832V190.322H197.6V203.954H220V190.29H216.768V200.69H210.4ZM197.6 174.751H220V171.487H197.6V174.751ZM209.632 170.879L220 163.039V159.007L208.736 167.647L197.6 159.839L197.6 163.647L208 170.879H209.632ZM208 175.391L197.6 182.623V186.431L208.736 178.623L220 187.263V183.231L209.632 175.391H208ZM197.6 153.664V156.896H220V153.664H210.272V144.192H220V140.928H197.6V144.192H207.072V153.664H197.6ZM202.464 128.462L211.296 125.102V131.822L202.464 128.462ZM220 121.774V118.318L197.312 127.31V129.678L220 138.67V135.182L214.336 133.006V123.918L220 121.774ZM208.64 104.415V108.191C208.64 110.911 206.688 112.255 204.736 112.255C202.816 112.255 200.864 110.911 200.864 108.191V103.231H220V100.031H197.6V108.191C197.6 113.055 201.184 115.487 204.736 115.487C207.904 115.487 210.912 113.535 211.584 109.695L220 116.767V112.575L210.176 104.415H208.64Z" fill="#292929"/>
<path d="M526 237.28H492.256V241.168L505.024 250.24L507.664 246.592L501.52 242.08H526V237.28ZM507.76 220.596C507.76 215.604 511.12 213.204 514.48 213.204C517.84 213.204 521.104 215.604 521.104 220.596C521.104 225.54 517.84 227.988 514.48 227.988C511.12 227.988 507.76 225.54 507.76 220.596ZM507.76 230.772C509.728 232.068 512.128 232.836 514.48 232.836C520.24 232.836 526 228.708 526 220.596C526 212.436 520.24 208.356 514.48 208.356C510.592 208.356 506.656 210.228 504.544 213.924C503.248 216.276 503.104 219.588 503.968 222.084L492.4 213.876V219.828L507.76 230.772ZM496.864 191.755C496.864 186.331 502.576 183.883 509.248 183.883C515.584 183.883 521.584 186.331 521.584 191.755C521.584 197.179 515.584 199.531 509.248 199.531C502.576 199.531 496.864 197.179 496.864 191.755ZM526.336 191.755C526.336 183.211 517.792 178.891 509.248 178.891C500.656 178.891 492.064 183.211 492.064 191.755C492.064 200.347 500.656 204.571 509.248 204.571C517.792 204.571 526.336 200.347 526.336 191.755ZM492.4 174.93H526V170.034H514.816V162.642C514.816 155.394 509.248 151.746 503.632 151.746C498.016 151.746 492.4 155.394 492.4 162.642V174.93ZM510.016 170.034H497.296V162.642C497.296 158.562 500.464 156.546 503.68 156.546C506.848 156.546 510.016 158.562 510.016 162.642V170.034Z" fill="#292929"/>
<g clip-path="url(#clip1_8_48257)">
<path d="M321.05 138.969L266.077 196.319C264.64 197.816 264.64 200.184 266.077 201.681L321.107 259.088C322.321 260.303 323.995 261 325.705 261C329.265 261 332.164 258.101 332.164 254.541V245.5H378.664C384.372 245.5 388.997 240.876 388.997 235.166V162.834C388.997 157.124 384.372 152.5 378.664 152.5H332.164V143.459C332.164 139.899 329.265 137 325.705 137C323.995 137 322.321 137.697 321.05 138.969Z" fill="#F4ED62"/>
</g>
</g>
<rect x="3" y="395" width="392" height="600" transform="rotate(-90 3 395)" stroke="#292929" stroke-width="5"/>
<defs>
<clipPath id="clip0_8_48257">
<rect x="3" y="395" width="392" height="600" transform="rotate(-90 3 395)" fill="white"/>
</clipPath>
<clipPath id="clip1_8_48257">
<rect width="124" height="124" fill="white" transform="matrix(0 -1 1 0 265 261)"/>
</clipPath>
</defs>
</svg>
