<svg width="605" height="398" viewBox="0 0 605 398" fill="none" xmlns="http://www.w3.org/2000/svg">
<g clip-path="url(#clip0_8_48258)">
<rect x="3" y="395" width="392" height="600" transform="rotate(-90 3 395)" fill="white"/>
<rect x="3" y="395" width="392" height="100" transform="rotate(-90 3 395)" fill="white"/>
<path d="M159.6 268.755H182V265.491H159.6V268.755ZM171.632 264.883L182 256.339V252.115L170.736 261.555L159.6 253.011V256.979L170 264.883H171.632ZM182.032 243.443L159.6 233.363V237.043L167.664 240.499L171.216 241.939L167.632 243.603L159.6 247.571V251.22L174.832 243.795L182.032 246.964V243.443ZM159.6 231.162H182V227.898H174.544V222.97C174.544 218.138 170.832 215.706 167.088 215.706C163.344 215.706 159.6 218.138 159.6 222.97L159.6 231.162ZM171.344 227.898H162.864V222.97C162.864 220.25 164.976 218.906 167.12 218.906C169.232 218.906 171.344 220.25 171.344 222.97V227.898ZM170.864 213.006C174.256 213.006 176.784 211.726 178.832 209.806C180.88 207.854 182.16 205.102 182.16 202.062C182.16 196.846 178.704 192.75 173.616 191.47V194.638C177.008 195.79 178.96 198.67 178.96 202.062C178.96 204.206 178.032 206.158 176.56 207.566C175.088 208.974 173.392 209.87 170.864 209.87C166.832 209.87 162.576 207.054 162.576 202.062C162.576 198.766 164.272 196.014 167.632 194.83V191.63C162.576 192.91 159.376 196.942 159.376 202.062C159.376 208.014 164.336 213.006 170.864 213.006ZM159.6 188.63H182V185.366H159.6V188.63ZM171.632 184.758L182 176.214V171.99L170.736 181.43L159.6 172.886V176.854L170 184.758H171.632ZM164.464 160.79L173.296 157.43V164.15L164.464 160.79ZM182 154.102V150.646L159.312 159.638V162.006L182 170.998V167.51L176.336 165.334V156.246L182 154.102ZM170.64 136.743V140.519C170.64 143.239 168.688 144.583 166.736 144.583C164.816 144.583 162.864 143.239 162.864 140.519V135.559H182V132.359H159.6V140.519C159.6 145.383 163.184 147.815 166.736 147.815C169.904 147.815 172.912 145.863 173.584 142.023L182 149.095V144.903L172.176 136.743H170.64ZM197.6 337.094H220V333.83H197.6V337.094ZM209.632 333.222L220 325.382V321.35L208.736 329.99L197.6 322.182V325.99L208 333.222H209.632ZM208 337.734L197.6 344.966V348.774L208.736 340.966L220 349.606V345.574L209.632 337.734H208ZM210.4 315.815V305.671H207.136V315.815H200.832V305.447H197.6V319.079H220V305.415H216.768V315.815H210.4ZM202.912 292.556L220 285.932V282.412L197.312 291.404V293.772L220 302.764V299.244L202.912 292.556ZM210.4 276.69V266.546H207.136V276.69H200.832V266.322H197.6V279.954H220V266.29H216.768V276.69H210.4ZM210.016 258.503V255.143C210.016 252.231 211.872 251.111 213.472 251.111C215.328 251.111 217.28 252.583 217.28 256.135C217.28 258.951 215.68 260.423 213.888 260.711L214.432 263.719C217.504 263.207 220.288 260.935 220.288 256.135C220.288 250.759 217.024 247.943 213.792 247.911C211.392 247.879 209.6 248.903 208.416 250.919C207.328 249.287 205.504 248.871 203.744 248.871C199.2 248.903 197.376 252.487 197.376 256.327C197.376 259.303 199.072 262.279 202.464 263.079L203.168 260.167C201.44 259.751 200.48 258.023 200.48 256.327C200.48 254.215 201.312 252.071 203.744 252.071C205.216 252.071 207.04 252.903 207.04 255.143V258.503H210.016ZM197.6 240.945V244.177H220V240.945H210.272V231.473H220V228.209H197.6V231.473H207.072V240.945H197.6ZM202.464 215.744L211.296 212.384V219.104L202.464 215.744ZM220 209.056V205.6L197.312 214.592V216.96L220 225.952V222.464L214.336 220.288V211.2L220 209.056ZM208.64 191.696V195.472C208.64 198.192 206.688 199.536 204.736 199.536C202.816 199.536 200.864 198.192 200.864 195.472V190.512H220V187.312H197.6V195.472C197.6 200.336 201.184 202.768 204.736 202.768C207.904 202.768 210.912 200.816 211.584 196.976L220 204.048V199.856L210.176 191.696H208.64ZM216.832 158.645H197.6V171.957L210.784 172.821C212.832 173.013 215.712 173.461 217.056 174.741L217.408 176.533H223.584L223.584 173.301H220V159.989H223.584V156.821H216.832V158.645ZM216.832 171.093C214.88 169.653 212.16 169.525 208.672 169.365L200.704 168.885V161.973H216.832V171.093ZM208.8 135.095C211.104 135.095 213.12 136.023 214.592 137.463C216.096 138.967 217.024 141.047 217.024 143.255C217.024 145.463 216.096 147.511 214.592 148.983C213.12 150.455 211.072 151.383 208.8 151.383C206.528 151.383 204.48 150.455 203.008 148.983C201.504 147.511 200.576 145.463 200.576 143.255C200.576 141.047 201.504 138.967 203.008 137.463C204.48 136.023 206.496 135.095 208.8 135.095ZM208.8 154.647C211.968 154.647 214.816 153.335 216.896 151.319C219.008 149.271 220.288 146.391 220.288 143.255C220.288 140.087 219.008 137.239 216.896 135.159C214.816 133.143 211.968 131.831 208.8 131.831C205.632 131.831 202.784 133.143 200.704 135.159C198.624 137.239 197.312 140.087 197.312 143.255C197.312 146.391 198.624 149.271 200.704 151.319C202.784 153.335 205.632 154.647 208.8 154.647ZM197.6 128.584H220V125.32H212.544V120.392C212.544 115.56 208.832 113.128 205.088 113.128C201.344 113.128 197.6 115.56 197.6 120.392V128.584ZM209.344 125.32H200.864V120.392C200.864 117.672 202.976 116.328 205.12 116.328C207.232 116.328 209.344 117.672 209.344 120.392V125.32ZM208.8 90.9076C211.104 90.9076 213.12 91.8356 214.592 93.2756C216.096 94.7796 217.024 96.8596 217.024 99.0676C217.024 101.276 216.096 103.324 214.592 104.796C213.12 106.268 211.072 107.196 208.8 107.196C206.528 107.196 204.48 106.268 203.008 104.796C201.504 103.324 200.576 101.276 200.576 99.0676C200.576 96.8596 201.504 94.7796 203.008 93.2756C204.48 91.8356 206.496 90.9076 208.8 90.9076ZM208.8 110.46C211.968 110.46 214.816 109.148 216.896 107.132C219.008 105.084 220.288 102.204 220.288 99.0676C220.288 95.8996 219.008 93.0516 216.896 90.9716C214.816 88.9556 211.968 87.6436 208.8 87.6436C205.632 87.6436 202.784 88.9556 200.704 90.9716C198.624 93.0516 197.312 95.8996 197.312 99.0676C197.312 102.204 198.624 105.084 200.704 107.132C202.784 109.148 205.632 110.46 208.8 110.46ZM200.736 80.9404V70.5724H197.6V84.2044H220V80.9404H200.736ZM202.464 61.3374L211.296 57.9774V64.6974L202.464 61.3374ZM220 54.6494V51.1934L197.312 60.1854V62.5534L220 71.5454V68.0574L214.336 65.8814V56.7934L220 54.6494Z" fill="#292929"/>
<path d="M503.008 251.297C499.264 250.721 496.576 248.561 496.576 244.433C496.576 236.609 504.544 235.313 508.336 240.593V240.545L522.256 256.337H526V232.769H521.344V248.177L512.032 237.329C505.696 228.257 491.728 231.713 491.728 244.433C491.728 251.441 496.624 255.281 502.624 256.145L503.008 251.297ZM496.864 214.888C496.864 209.464 502.576 207.016 509.248 207.016C515.584 207.016 521.584 209.464 521.584 214.888C521.584 220.312 515.584 222.664 509.248 222.664C502.576 222.664 496.864 220.312 496.864 214.888ZM526.336 214.888C526.336 206.344 517.792 202.024 509.248 202.024C500.656 202.024 492.064 206.344 492.064 214.888C492.064 223.48 500.656 227.704 509.248 227.704C517.792 227.704 526.336 223.48 526.336 214.888ZM496.864 184.794C496.864 179.37 502.576 176.922 509.248 176.922C515.584 176.922 521.584 179.37 521.584 184.794C521.584 190.218 515.584 192.57 509.248 192.57C502.576 192.57 496.864 190.218 496.864 184.794ZM526.336 184.794C526.336 176.25 517.792 171.93 509.248 171.93C500.656 171.93 492.064 176.25 492.064 184.794C492.064 193.386 500.656 197.61 509.248 197.61C517.792 197.61 526.336 193.386 526.336 184.794ZM492.4 167.97H526V163.074H514.816V155.682C514.816 148.434 509.248 144.786 503.632 144.786C498.016 144.786 492.4 148.434 492.4 155.682V167.97ZM510.016 163.074H497.296V155.682C497.296 151.602 500.464 149.586 503.68 149.586C506.848 149.586 510.016 151.602 510.016 155.682V163.074Z" fill="#292929"/>
<path d="M374.537 139.067V163.867V186.6V209.333V232.067V258.933C374.537 260.076 375.463 261 376.603 261C377.744 261 378.67 260.076 378.67 258.933V139.067C378.67 137.924 377.744 137 376.603 137C375.463 137 374.537 137.924 374.537 139.067Z" fill="#E4E4E4"/>
<path d="M355.937 145.267V217.6C355.937 218.741 355.011 219.667 353.87 219.667H327.004C325.863 219.667 324.937 220.592 324.937 221.733V246.533C324.937 247.674 325.863 248.6 327.004 248.6H333.204C334.152 248.6 334.979 247.955 335.208 247.035L336.884 240.333H355.937V250.667C355.937 251.807 356.863 252.733 358.004 252.733H364.204C365.344 252.733 366.27 251.807 366.27 250.667V240.333C370.829 240.333 374.537 236.626 374.537 232.067C374.537 227.508 370.829 223.8 366.27 223.8V217.6C370.829 217.6 374.537 213.892 374.537 209.333C374.537 204.774 370.829 201.067 366.27 201.067V194.867C370.829 194.867 374.537 191.159 374.537 186.6C374.537 182.041 370.829 178.334 366.27 178.334V172.134C370.829 172.134 374.537 168.426 374.537 163.867C374.537 159.308 370.829 155.6 366.27 155.6V145.267C366.27 144.126 365.344 143.2 364.204 143.2H358.004C356.863 143.2 355.937 144.126 355.937 145.267Z" fill="#292929"/>
<path d="M331.137 151.467V161.8H327.003C324.288 161.8 322 163.565 321.163 166.001C320.775 165.875 320.388 165.743 319.962 165.685C317.726 165.383 315.56 166.103 313.986 167.597C311.865 166.973 309.189 167.024 307.066 168.498C306.037 169.213 304.527 170.736 304.217 173.646C300.889 173.311 297.667 174.605 295.369 177.316C292.55 180.646 291.746 185.18 293.079 189.262C292.156 189.644 291.401 190.204 290.827 190.942C290.132 191.833 289.733 192.91 289.624 194.199C286.415 193.707 283.254 194.404 280.642 196.239C277.162 198.686 275.197 202.704 275.337 207.267C275.337 212.167 277.991 217.048 281.94 219.415C284.782 221.113 288.02 221.364 291.213 220.165C295.33 225.098 300.852 225.615 304.76 223.788C308.749 221.926 311.954 217.251 310.849 210.739C312.543 209.889 314.101 208.282 315.133 206.219C316.559 203.367 316.79 200.139 315.852 197.099C317.789 196.789 319.184 195.815 320.12 194.871C323.763 191.196 324.201 184.269 323.069 178.925C324.139 177.561 324.844 175.75 325.109 173.872C325.708 174.068 326.338 174.2 327.004 174.2H331.137V184.988C328.707 186.098 327.004 189.136 327.004 192.8C327.004 196.465 328.707 199.503 331.137 200.612V213.467C331.137 214.608 332.063 215.533 333.204 215.533H351.804V151.467C351.804 147.933 347.362 145.267 341.47 145.267C335.578 145.267 331.137 147.933 331.137 151.467Z" fill="#292929"/>
</g>
<rect x="3" y="395" width="392" height="600" transform="rotate(-90 3 395)" stroke="#292929" stroke-width="5"/>
<defs>
<clipPath id="clip0_8_48258">
<rect x="3" y="395" width="392" height="600" transform="rotate(-90 3 395)" fill="white"/>
</clipPath>
</defs>
</svg>
