<svg width="605" height="398" viewBox="0 0 605 398" fill="none" xmlns="http://www.w3.org/2000/svg">
<g clip-path="url(#clip0_8_48995)">
<rect x="3" y="395" width="392" height="600" transform="rotate(-90 3 395)" fill="white"/>
<path d="M159.6 373.74H182V370.476H174.544V365.548C174.544 360.716 170.832 358.284 167.088 358.284C163.344 358.284 159.6 360.716 159.6 365.548V373.74ZM171.344 370.476H162.864V365.548C162.864 362.828 164.976 361.484 167.12 361.484C169.232 361.484 171.344 362.828 171.344 365.548V370.476ZM170.64 344.384V348.16C170.64 350.88 168.688 352.224 166.736 352.224C164.816 352.224 162.864 350.88 162.864 348.16V343.2H182V340H159.6V348.16C159.6 353.024 163.184 355.456 166.736 355.456C169.904 355.456 172.912 353.504 173.584 349.664L182 356.736V352.544L172.176 344.384H170.64ZM172.016 331.878V328.518C172.016 325.606 173.872 324.486 175.472 324.486C177.328 324.486 179.28 325.958 179.28 329.51C179.28 332.326 177.68 333.798 175.888 334.086L176.432 337.094C179.504 336.582 182.288 334.31 182.288 329.51C182.288 324.134 179.024 321.318 175.792 321.286C173.392 321.254 171.6 322.278 170.416 324.294C169.328 322.662 167.504 322.246 165.744 322.246C161.2 322.278 159.376 325.862 159.376 329.702C159.376 332.678 161.072 335.654 164.464 336.454L165.168 333.542C163.44 333.126 162.48 331.398 162.48 329.702C162.48 327.59 163.312 325.446 165.744 325.446C167.216 325.446 169.04 326.278 169.04 328.518V331.878H172.016ZM164.464 309.025L173.296 305.665V312.385L164.464 309.025ZM182 302.337V298.881L159.312 307.873V310.241L182 319.233V315.745L176.336 313.569V304.481L182 302.337ZM159.6 293.601V296.833H182V293.601H172.272V284.129H182V280.865H159.6V284.129H169.072V293.601H159.6ZM170.864 277.584C174.256 277.584 176.784 276.304 178.832 274.384C180.88 272.432 182.16 269.68 182.16 266.64C182.16 261.424 178.704 257.328 173.616 256.048V259.216C177.008 260.368 178.96 263.248 178.96 266.64C178.96 268.784 178.032 270.736 176.56 272.144C175.088 273.552 173.392 274.448 170.864 274.448C166.832 274.448 162.576 271.632 162.576 266.64C162.576 263.344 164.272 260.592 167.632 259.408V256.208C162.576 257.488 159.376 261.52 159.376 266.64C159.376 272.592 164.336 277.584 170.864 277.584ZM159.6 253.208H182V249.944H159.6V253.208ZM171.632 249.336L182 240.792V236.568L170.736 246.008L159.6 237.464V241.432L170 249.336H171.632ZM182 217.529H159.6V220.025L175.376 230.937H159.6V234.137H182V231.577L166.352 220.761H182V217.529ZM182 197.091H159.6V199.587L175.376 210.499H159.6V213.699H182V211.139L166.352 200.323H182V197.091ZM155.312 209.443H158.128V200.579H155.312V209.443ZM159.6 185.677H182V182.413H162.768V173.005H182V169.709H159.6V185.677ZM159.6 165.803H182V162.539H174.544V157.611C174.544 152.779 170.832 150.347 167.088 150.347C163.344 150.347 159.6 152.779 159.6 157.611V165.803ZM171.344 162.539H162.864V157.611C162.864 154.891 164.976 153.547 167.12 153.547C169.232 153.547 171.344 154.891 171.344 157.611V162.539ZM170.8 128.126C173.104 128.126 175.12 129.054 176.592 130.494C178.096 131.998 179.024 134.078 179.024 136.286C179.024 138.494 178.096 140.542 176.592 142.014C175.12 143.486 173.072 144.414 170.8 144.414C168.528 144.414 166.48 143.486 165.008 142.014C163.504 140.542 162.576 138.494 162.576 136.286C162.576 134.078 163.504 131.998 165.008 130.494C166.48 129.054 168.496 128.126 170.8 128.126ZM170.8 147.678C173.968 147.678 176.816 146.366 178.896 144.35C181.008 142.302 182.288 139.422 182.288 136.286C182.288 133.118 181.008 130.27 178.896 128.19C176.816 126.174 173.968 124.862 170.8 124.862C167.632 124.862 164.784 126.174 162.704 128.19C160.624 130.27 159.312 133.118 159.312 136.286C159.312 139.422 160.624 142.302 162.704 144.35C164.784 146.366 167.632 147.678 170.8 147.678ZM170.864 121.959C174.256 121.959 176.784 120.679 178.832 118.759C180.88 116.807 182.16 114.055 182.16 111.015C182.16 105.799 178.704 101.703 173.616 100.423V103.591C177.008 104.743 178.96 107.623 178.96 111.015C178.96 113.159 178.032 115.111 176.56 116.519C175.088 117.927 173.392 118.823 170.864 118.823C166.832 118.823 162.576 116.007 162.576 111.015C162.576 107.719 164.272 104.967 167.632 103.783V100.583C162.576 101.863 159.376 105.895 159.376 111.015C159.376 116.967 164.336 121.959 170.864 121.959ZM159.6 96.5519H182V93.2879H162.768V83.8799H182V80.5839H159.6V96.5519ZM172.4 73.8466V63.7026H169.136V73.8466H162.832V63.4786H159.6V77.1106H182V63.4466H178.768V73.8466H172.4ZM159.6 60.4269H182V57.1629H159.6V60.4269ZM171.632 56.5549L182 48.0109V43.7869L170.736 53.2269L159.6 44.6829V48.6509L170 56.5549H171.632ZM182 32.2994H162.672L162.672 25.5474H159.6L159.6 42.3154H162.672V35.5314H182V32.2994Z" fill="#292929"/>
<path d="M526 237.178H492.256V241.066L505.024 250.138L507.664 246.49L501.52 241.978H526V237.178ZM521.968 219.888C521.968 224.736 518.992 227.184 516.4 227.184C513.76 227.184 510.928 224.736 510.928 219.888C510.928 214.944 513.76 212.544 516.4 212.544C518.992 212.544 521.968 214.944 521.968 219.888ZM496.144 219.888C496.144 217.056 497.968 213.936 501.184 213.936C503.536 213.936 506.464 215.856 506.464 219.888C506.464 223.872 503.536 225.792 501.232 225.792C498.016 225.792 496.144 222.72 496.144 219.888ZM501.328 209.136C496.576 209.136 491.872 212.736 491.872 219.888C491.872 225.024 494.896 230.544 501.28 230.592C503.248 230.592 506.944 229.824 508.432 226.176C510.064 229.968 513.376 231.984 516.352 231.984C521.68 231.984 526.48 227.904 526.48 219.888C526.48 211.776 521.392 207.696 516.352 207.696C513.328 207.696 509.92 209.472 508.432 213.36C507.184 210.624 503.776 209.136 501.328 209.136ZM496.864 190.857C496.864 185.433 502.576 182.985 509.248 182.985C515.584 182.985 521.584 185.433 521.584 190.857C521.584 196.281 515.584 198.633 509.248 198.633C502.576 198.633 496.864 196.281 496.864 190.857ZM526.336 190.857C526.336 182.313 517.792 177.993 509.248 177.993C500.656 177.993 492.064 182.313 492.064 190.857C492.064 199.449 500.656 203.673 509.248 203.673C517.792 203.673 526.336 199.449 526.336 190.857ZM492.4 174.032H526V169.136H514.816V161.744C514.816 154.496 509.248 150.848 503.632 150.848C498.016 150.848 492.4 154.496 492.4 161.744V174.032ZM510.016 169.136H497.296V161.744C497.296 157.664 500.464 155.648 503.68 155.648C506.848 155.648 510.016 157.664 510.016 161.744V169.136Z" fill="#292929"/>
<g clip-path="url(#clip1_8_48995)">
<path d="M321.05 138.969L266.077 196.319C264.64 197.816 264.64 200.184 266.077 201.681L321.107 259.088C322.321 260.303 323.995 261 325.705 261C329.265 261 332.164 258.101 332.164 254.541V245.5H378.664C384.372 245.5 388.997 240.876 388.997 235.166V162.834C388.997 157.124 384.372 152.5 378.664 152.5H332.164V143.459C332.164 139.899 329.265 137 325.705 137C323.995 137 322.321 137.697 321.05 138.969V138.969Z" fill="#A2D4A1"/>
</g>
</g>
<rect x="3" y="395" width="392" height="600" transform="rotate(-90 3 395)" stroke="#292929" stroke-width="5"/>
<defs>
<clipPath id="clip0_8_48995">
<rect x="3" y="395" width="392" height="600" transform="rotate(-90 3 395)" fill="white"/>
</clipPath>
<clipPath id="clip1_8_48995">
<rect width="124" height="124" fill="white" transform="matrix(0 -1 1 0 265 261)"/>
</clipPath>
</defs>
</svg>
