<svg width="605" height="398" viewBox="0 0 605 398" fill="none" xmlns="http://www.w3.org/2000/svg">
<g clip-path="url(#clip0_8_48996)">
<rect x="3" y="395" width="392" height="600" transform="rotate(-90 3 395)" fill="white"/>
<rect x="3" y="395" width="392" height="100" transform="rotate(-90 3 395)" fill="white"/>
<path d="M159.6 248.755H182V245.491H159.6V248.755ZM171.632 244.883L182 236.339V232.115L170.736 241.555L159.6 233.011V236.979L170 244.883H171.632ZM164.464 220.915L173.296 217.555V224.275L164.464 220.915ZM182 214.227V210.771L159.312 219.763V222.131L182 231.123V227.635L176.336 225.459V216.371L182 214.227ZM172.016 203.956V200.596C172.016 197.684 173.872 196.564 175.472 196.564C177.328 196.564 179.28 198.036 179.28 201.588C179.28 204.404 177.68 205.876 175.888 206.164L176.432 209.172C179.504 208.66 182.288 206.388 182.288 201.588C182.288 196.212 179.024 193.396 175.792 193.364C173.392 193.332 171.6 194.356 170.416 196.372C169.328 194.74 167.504 194.324 165.744 194.324C161.2 194.356 159.376 197.94 159.376 201.78C159.376 204.756 161.072 207.732 164.464 208.532L165.168 205.62C163.44 205.204 162.48 203.476 162.48 201.78C162.48 199.668 163.312 197.524 165.744 197.524C167.216 197.524 169.04 198.356 169.04 200.596V203.956H172.016ZM159.6 186.398V189.63H182V186.398H172.272V176.926H182V173.662H159.6V176.926H169.072V186.398H159.6ZM164.464 161.197L173.296 157.837V164.557L164.464 161.197ZM182 154.509V151.053L159.312 160.045V162.413L182 171.405V167.917L176.336 165.741V156.653L182 154.509Z" fill="#292929"/>
<path d="M290.384 140.936C278.491 140.936 268.814 150.612 268.814 162.505V235.616C268.814 247.509 278.491 257.186 290.384 257.186H291.5L316.622 238.745C316.801 238.983 316.934 239.256 317.007 239.549C318.451 245.294 322.767 249.821 328.302 251.6V257.186H385.064V140.936H328.302V146.522C322.459 148.408 318.053 153.359 316.836 159.368L291.492 140.936H290.384ZM275.626 235.616V162.505C275.626 155.539 280.478 149.69 286.979 148.148V249.974C280.478 248.431 275.626 242.582 275.626 235.616ZM335.113 204.737V193.384H348.736V204.737H335.113ZM328.302 153.951V244.176C326.006 242.813 324.289 240.573 323.615 237.89C322.844 234.822 320.479 232.336 317.444 231.4C312.295 229.811 309.684 226.57 309.684 221.766C309.684 219.773 310.258 217.843 311.343 216.185C313.377 213.077 312.95 208.88 310.329 206.204C308.449 204.283 307.413 201.747 307.413 199.061C307.413 195.754 309.027 192.636 311.731 190.721C314.573 188.707 315.766 185.084 314.699 181.709C314.384 180.716 314.225 179.68 314.225 178.626C314.225 175.026 316.155 171.651 319.262 169.82C321.758 168.348 323.307 165.648 323.307 162.772V162.732C323.307 159.044 325.294 155.749 328.302 153.951Z" fill="#292929"/>
</g>
<rect x="3" y="395" width="392" height="600" transform="rotate(-90 3 395)" stroke="#292929" stroke-width="5"/>
<defs>
<clipPath id="clip0_8_48996">
<rect x="3" y="395" width="392" height="600" transform="rotate(-90 3 395)" fill="white"/>
</clipPath>
</defs>
</svg>
