<svg width="605" height="398" viewBox="0 0 605 398" fill="none" xmlns="http://www.w3.org/2000/svg">
<g clip-path="url(#clip0_8_48997)">
<rect x="3" y="395" width="392" height="600" transform="rotate(-90 3 395)" fill="white"/>
<path d="M182.032 330.178L159.6 320.098V323.778L167.664 327.234L171.216 328.674L167.632 330.338L159.6 334.306V337.954L174.832 330.53L182.032 333.698V330.178ZM164.912 311.056L182 304.432V300.912L159.312 309.904V312.272L182 321.264V317.744L164.912 311.056ZM182 281.622H159.6V284.118L175.376 295.03H159.6V298.23H182V295.67L166.352 284.854H182V281.622ZM179.024 263.169H159.6V266.497H179.024V274.785H159.6V278.081H182V264.513H186.544V261.345H179.024V263.169ZM164.464 248.119L173.296 244.759V251.479L164.464 248.119ZM182 241.431V237.975L159.312 246.967V249.335L182 258.327V254.839L176.336 252.663V243.575L182 241.431ZM162.672 224.598V218.486C162.672 214.966 168.528 215.03 168.528 218.55V224.598H162.672ZM159.6 227.798H182V217.686C182 213.398 178.608 211.19 175.248 211.19C173.136 211.19 170.768 212.15 169.68 214.71C166.512 210.454 159.6 213.174 159.6 218.486V227.798ZM171.728 224.598V217.686C171.728 215.51 173.52 214.422 175.28 214.422C177.04 214.422 178.864 215.51 178.864 217.686V224.598H171.728ZM164.464 199.837L173.296 196.477V203.197L164.464 199.837ZM182 193.149V189.693L159.312 198.685V201.053L182 210.045L182 206.557L176.336 204.381V195.293L182 193.149ZM162.672 183.598V177.486C162.672 173.966 168.528 174.03 168.528 177.55V183.598H162.672ZM159.6 186.798H182V176.686C182 172.398 178.608 170.19 175.248 170.19C173.136 170.19 170.768 171.15 169.68 173.71C166.512 169.454 159.6 172.174 159.6 177.486V186.798ZM171.728 183.598V176.686C171.728 174.51 173.52 173.422 175.28 173.422C177.04 173.422 178.864 174.51 178.864 176.686V183.598H171.728ZM182 150.31H159.6V152.806L175.376 163.718H159.6V166.918H182V164.358L166.352 153.542H182V150.31ZM164.912 137.712L182 131.088V127.568L159.312 136.56V138.928L182 147.92V144.4L164.912 137.712ZM170.8 106.814C173.104 106.814 175.12 107.742 176.592 109.182C178.096 110.686 179.024 112.766 179.024 114.974C179.024 117.182 178.096 119.23 176.592 120.702C175.12 122.174 173.072 123.102 170.8 123.102C168.528 123.102 166.48 122.174 165.008 120.702C163.504 119.23 162.576 117.182 162.576 114.974C162.576 112.766 163.504 110.686 165.008 109.182C166.48 107.742 168.496 106.814 170.8 106.814ZM170.8 126.366C173.968 126.366 176.816 125.054 178.896 123.038C181.008 120.99 182.288 118.11 182.288 114.974C182.288 111.806 181.008 108.958 178.896 106.878C176.816 104.862 173.968 103.55 170.8 103.55C167.632 103.55 164.784 104.862 162.704 106.878C160.624 108.958 159.312 111.806 159.312 114.974C159.312 118.11 160.624 120.99 162.704 123.038C164.784 125.054 167.632 126.366 170.8 126.366ZM162.672 96.9106V90.7986C162.672 87.2786 168.528 87.3426 168.528 90.8626V96.9106H162.672ZM159.6 100.111H182V89.9986C182 85.7106 178.608 83.5026 175.248 83.5026C173.136 83.5026 170.768 84.4626 169.68 87.0226C166.512 82.7666 159.6 85.4866 159.6 90.7986V100.111ZM171.728 96.9106V89.9986C171.728 87.8226 173.52 86.7346 175.28 86.7346C177.04 86.7346 178.864 87.8226 178.864 89.9986V96.9106H171.728ZM164.464 72.1499L173.296 68.7899V75.5099L164.464 72.1499ZM182 65.4619V62.0059L159.312 70.9979V73.3659L182 82.3579V78.8699L176.336 76.6939V67.6059L182 65.4619Z" fill="#292929"/>
<path d="M526 237.178H492.256V241.066L505.024 250.138L507.664 246.49L501.52 241.978H526V237.178ZM521.968 219.888C521.968 224.736 518.992 227.184 516.4 227.184C513.76 227.184 510.928 224.736 510.928 219.888C510.928 214.944 513.76 212.544 516.4 212.544C518.992 212.544 521.968 214.944 521.968 219.888ZM496.144 219.888C496.144 217.056 497.968 213.936 501.184 213.936C503.536 213.936 506.464 215.856 506.464 219.888C506.464 223.872 503.536 225.792 501.232 225.792C498.016 225.792 496.144 222.72 496.144 219.888ZM501.328 209.136C496.576 209.136 491.872 212.736 491.872 219.888C491.872 225.024 494.896 230.544 501.28 230.592C503.248 230.592 506.944 229.824 508.432 226.176C510.064 229.968 513.376 231.984 516.352 231.984C521.68 231.984 526.48 227.904 526.48 219.888C526.48 211.776 521.392 207.696 516.352 207.696C513.328 207.696 509.92 209.472 508.432 213.36C507.184 210.624 503.776 209.136 501.328 209.136ZM496.864 190.857C496.864 185.433 502.576 182.985 509.248 182.985C515.584 182.985 521.584 185.433 521.584 190.857C521.584 196.281 515.584 198.633 509.248 198.633C502.576 198.633 496.864 196.281 496.864 190.857ZM526.336 190.857C526.336 182.313 517.792 177.993 509.248 177.993C500.656 177.993 492.064 182.313 492.064 190.857C492.064 199.449 500.656 203.673 509.248 203.673C517.792 203.673 526.336 199.449 526.336 190.857ZM492.4 174.032H526V169.136H514.816V161.744C514.816 154.496 509.248 150.848 503.632 150.848C498.016 150.848 492.4 154.496 492.4 161.744V174.032ZM510.016 169.136H497.296V161.744C497.296 157.664 500.464 155.648 503.68 155.648C506.848 155.648 510.016 157.664 510.016 161.744V169.136Z" fill="#292929"/>
<g clip-path="url(#clip1_8_48997)">
<path d="M321.05 138.969L266.077 196.319C264.64 197.816 264.64 200.184 266.077 201.681L321.107 259.088C322.321 260.303 323.995 261 325.705 261C329.265 261 332.164 258.101 332.164 254.541V245.5H378.664C384.372 245.5 388.997 240.876 388.997 235.166V162.834C388.997 157.124 384.372 152.5 378.664 152.5H332.164V143.459C332.164 139.899 329.265 137 325.705 137C323.995 137 322.321 137.697 321.05 138.969Z" fill="#A2D4A1"/>
</g>
</g>
<rect x="3" y="395" width="392" height="600" transform="rotate(-90 3 395)" stroke="#292929" stroke-width="5"/>
<defs>
<clipPath id="clip0_8_48997">
<rect x="3" y="395" width="392" height="600" transform="rotate(-90 3 395)" fill="white"/>
</clipPath>
<clipPath id="clip1_8_48997">
<rect width="124" height="124" fill="white" transform="matrix(0 -1 1 0 265 261)"/>
</clipPath>
</defs>
</svg>
