<svg width="605" height="398" viewBox="0 0 605 398" fill="none" xmlns="http://www.w3.org/2000/svg">
<g clip-path="url(#clip0_8_48998)">
<rect x="3" y="395" width="392" height="600" transform="rotate(-90 3 395)" fill="white"/>
<path d="M159.6 327.474H182V324.21H174.544V319.282C174.544 314.45 170.832 312.018 167.088 312.018C163.344 312.018 159.6 314.45 159.6 319.282V327.474ZM171.344 324.21H162.864V319.282C162.864 316.562 164.976 315.218 167.12 315.218C169.232 315.218 171.344 316.562 171.344 319.282V324.21ZM182.032 302.662L159.6 292.582V296.262L167.664 299.718L171.216 301.158L167.632 302.822L159.6 306.79V310.438L174.832 303.014L182.032 306.182V302.662ZM159.6 274.997V289.845H182V279.733C182 275.445 178.608 273.237 175.248 273.237C171.664 273.237 168.528 275.701 168.528 279.733V286.645H162.736V274.997H159.6ZM171.632 286.645V279.733C171.632 277.557 173.52 276.469 175.28 276.469C177.04 276.469 178.864 277.557 178.864 279.733V286.645H171.632ZM164.912 261.197L182 254.573V251.053L159.312 260.045V262.413L182 271.405V267.885L164.912 261.197ZM172.4 245.331V235.187H169.136V245.331H162.832V234.963H159.6V248.595H182V234.931H178.768V245.331H172.4ZM162.672 228.551V222.439C162.672 218.919 168.528 218.983 168.528 222.503V228.551H162.672ZM159.6 231.751H182V221.639C182 217.351 178.608 215.143 175.248 215.143C173.136 215.143 170.768 216.103 169.68 218.663C166.512 214.407 159.6 217.127 159.6 222.439V231.751ZM171.728 228.551V221.639C171.728 219.463 173.52 218.375 175.28 218.375C177.04 218.375 178.864 219.463 178.864 221.639V228.551H171.728ZM170.864 212.287C174.256 212.287 176.784 211.007 178.832 209.087C180.88 207.135 182.16 204.383 182.16 201.343C182.16 196.127 178.704 192.031 173.616 190.751V193.919C177.008 195.071 178.96 197.951 178.96 201.343C178.96 203.487 178.032 205.439 176.56 206.847C175.088 208.255 173.392 209.151 170.864 209.151C166.832 209.151 162.576 206.335 162.576 201.343C162.576 198.047 164.272 195.295 167.632 194.111V190.911C162.576 192.191 159.376 196.223 159.376 201.343C159.376 207.295 164.336 212.287 170.864 212.287ZM159.6 187.911H182V184.647H159.6V187.911ZM171.632 184.039L182 175.495V171.271L170.736 180.711L159.6 172.167V176.135L170 184.039H171.632ZM170.8 151.392C173.104 151.392 175.12 152.32 176.592 153.76C178.096 155.264 179.024 157.344 179.024 159.552C179.024 161.76 178.096 163.808 176.592 165.28C175.12 166.752 173.072 167.68 170.8 167.68C168.528 167.68 166.48 166.752 165.008 165.28C163.504 163.808 162.576 161.76 162.576 159.552C162.576 157.344 163.504 155.264 165.008 153.76C166.48 152.32 168.496 151.392 170.8 151.392ZM170.8 170.944C173.968 170.944 176.816 169.632 178.896 167.616C181.008 165.568 182.288 162.688 182.288 159.552C182.288 156.384 181.008 153.536 178.896 151.456C176.816 149.44 173.968 148.128 170.8 148.128C167.632 148.128 164.784 149.44 162.704 151.456C160.624 153.536 159.312 156.384 159.312 159.552C159.312 162.688 160.624 165.568 162.704 167.616C164.784 169.632 167.632 170.944 170.8 170.944ZM172.4 141.425V131.281H169.136V141.425H162.832V131.057H159.6V144.689H182V131.025H178.768V141.425H172.4ZM159.6 119.972H182V94.8842H159.6V98.3082H179.056V105.732H159.6V109.124H179.056V116.548H159.6V119.972ZM170.8 72.0482C173.104 72.0482 175.12 72.9762 176.592 74.4162C178.096 75.9202 179.024 78.0002 179.024 80.2082C179.024 82.4162 178.096 84.4642 176.592 85.9362C175.12 87.4082 173.072 88.3362 170.8 88.3362C168.528 88.3362 166.48 87.4082 165.008 85.9362C163.504 84.4642 162.576 82.4162 162.576 80.2082C162.576 78.0002 163.504 75.9202 165.008 74.4162C166.48 72.9762 168.496 72.0482 170.8 72.0482ZM170.8 91.6003C173.968 91.6003 176.816 90.2882 178.896 88.2722C181.008 86.2242 182.288 83.3442 182.288 80.2082C182.288 77.0402 181.008 74.1922 178.896 72.1122C176.816 70.0962 173.968 68.7842 170.8 68.7842C167.632 68.7842 164.784 70.0962 162.704 72.1122C160.624 74.1922 159.312 77.0402 159.312 80.2082C159.312 83.3442 160.624 86.2242 162.704 88.2722C164.784 90.2882 167.632 91.6003 170.8 91.6003ZM170.864 65.8807C174.256 65.8807 176.784 64.6007 178.832 62.6807C180.88 60.7287 182.16 57.9767 182.16 54.9367C182.16 49.7207 178.704 45.6247 173.616 44.3447V47.5127C177.008 48.6647 178.96 51.5447 178.96 54.9367C178.96 57.0807 178.032 59.0327 176.56 60.4407C175.088 61.8487 173.392 62.7448 170.864 62.7448C166.832 62.7448 162.576 59.9287 162.576 54.9367C162.576 51.6407 164.272 48.8888 167.632 47.7047V44.5047C162.576 45.7847 159.376 49.8167 159.376 54.9367C159.376 60.8887 164.336 65.8807 170.864 65.8807ZM170.864 41.537C174.256 41.537 176.784 40.257 178.832 38.337C180.88 36.385 182.16 33.633 182.16 30.593C182.16 25.377 178.704 21.281 173.616 20.001V23.169C177.008 24.321 178.96 27.201 178.96 30.593C178.96 32.737 178.032 34.689 176.56 36.097C175.088 37.505 173.392 38.401 170.864 38.401C166.832 38.401 162.576 35.585 162.576 30.593C162.576 27.297 164.272 24.545 167.632 23.361V20.161C162.576 21.441 159.376 25.473 159.376 30.593C159.376 36.545 164.336 41.537 170.864 41.537ZM172.4 13.7372V3.59325H169.136V13.7372H162.832V3.36925H159.6V17.0012H182V3.33725H178.768V13.7372H172.4Z" fill="#292929"/>
<path d="M503.008 259.797C499.264 259.221 496.576 257.061 496.576 252.933C496.576 245.109 504.544 243.813 508.336 249.093V249.045L522.256 264.837H526V241.269H521.344V256.677L512.032 245.829C505.696 236.757 491.728 240.213 491.728 252.933C491.728 259.941 496.624 263.781 502.624 264.645L503.008 259.797ZM496.864 223.388C496.864 217.964 502.576 215.516 509.248 215.516C515.584 215.516 521.584 217.964 521.584 223.388C521.584 228.812 515.584 231.164 509.248 231.164C502.576 231.164 496.864 228.812 496.864 223.388ZM526.336 223.388C526.336 214.844 517.792 210.524 509.248 210.524C500.656 210.524 492.064 214.844 492.064 223.388C492.064 231.98 500.656 236.204 509.248 236.204C517.792 236.204 526.336 231.98 526.336 223.388ZM496.864 193.294C496.864 187.87 502.576 185.422 509.248 185.422C515.584 185.422 521.584 187.87 521.584 193.294C521.584 198.718 515.584 201.07 509.248 201.07C502.576 201.07 496.864 198.718 496.864 193.294ZM526.336 193.294C526.336 184.75 517.792 180.43 509.248 180.43C500.656 180.43 492.064 184.75 492.064 193.294C492.064 201.886 500.656 206.11 509.248 206.11C517.792 206.11 526.336 201.886 526.336 193.294ZM492.4 176.47H526V171.574H514.816V164.182C514.816 156.934 509.248 153.286 503.632 153.286C498.016 153.286 492.4 156.934 492.4 164.182V176.47ZM510.016 171.574H497.296V164.182C497.296 160.102 500.464 158.086 503.68 158.086C506.848 158.086 510.016 160.102 510.016 164.182V171.574Z" fill="#292929"/>
<g clip-path="url(#clip1_8_48998)">
<path d="M321.05 138.969L266.077 196.319C264.64 197.816 264.64 200.184 266.077 201.681L321.107 259.088C322.321 260.303 323.995 261 325.705 261C329.265 261 332.164 258.101 332.164 254.541V245.5H378.664C384.372 245.5 388.997 240.876 388.997 235.166V162.834C388.997 157.124 384.372 152.5 378.664 152.5H332.164V143.459C332.164 139.899 329.265 137 325.705 137C323.995 137 322.321 137.697 321.05 138.969Z" fill="#A2D4A1"/>
</g>
</g>
<rect x="3" y="395" width="392" height="600" transform="rotate(-90 3 395)" stroke="#292929" stroke-width="5"/>
<defs>
<clipPath id="clip0_8_48998">
<rect x="3" y="395" width="392" height="600" transform="rotate(-90 3 395)" fill="white"/>
</clipPath>
<clipPath id="clip1_8_48998">
<rect width="124" height="124" fill="white" transform="matrix(0 -1 1 0 265 261)"/>
</clipPath>
</defs>
</svg>
