<svg width="398" height="605" viewBox="0 0 398 605" fill="none" xmlns="http://www.w3.org/2000/svg">
<rect x="3" y="3" width="392" height="600" fill="white"/>
<path d="M69.0096 182.032L79.0896 159.6H75.4096L71.9536 167.664L70.5136 171.216L68.8496 167.632L64.8816 159.6H61.2336L68.6576 174.832L65.4896 182.032H69.0096ZM88.1314 164.912L94.7554 182H98.2754L89.2834 159.312H86.9154L77.9234 182H81.4434L88.1314 164.912ZM117.565 182V159.6H115.069L104.157 175.376V159.6H100.957V182H103.517L114.333 166.352V182H117.565ZM136.019 179.024V159.6H132.691V179.024H124.403V159.6H121.107V182H134.675V186.544H137.843V179.024H136.019ZM151.069 164.464L154.429 173.296H147.709L151.069 164.464ZM157.757 182H161.213L152.221 159.312H149.853L140.861 182H144.349L146.525 176.336H155.613L157.757 182ZM180.669 182V162.672H187.421V159.6L170.653 159.6V162.672H177.437V182H180.669ZM193.621 162.672H199.733C203.253 162.672 203.189 168.528 199.669 168.528H193.621V162.672ZM190.421 159.6V182L200.533 182C204.821 182 207.029 178.608 207.029 175.248C207.029 173.136 206.069 170.768 203.509 169.68C207.765 166.512 205.045 159.6 199.733 159.6H190.421ZM193.621 171.728H200.533C202.709 171.728 203.797 173.52 203.797 175.28C203.797 177.04 202.709 178.864 200.533 178.864H193.621V171.728ZM213.341 172.4H223.485V169.136H213.341V162.832H223.709V159.6H210.077V182H223.741V178.768H213.341V172.4ZM226.729 159.6V182H229.993V174.544H234.921C239.753 174.544 242.185 170.832 242.185 167.088C242.185 163.344 239.753 159.6 234.921 159.6H226.729ZM229.993 171.344V162.864H234.921C237.641 162.864 238.985 164.976 238.985 167.12C238.985 169.232 237.641 171.344 234.921 171.344H229.993ZM244.885 170.864C244.885 174.256 246.165 176.784 248.085 178.832C250.037 180.88 252.789 182.16 255.829 182.16C261.045 182.16 265.141 178.704 266.421 173.616H263.253C262.101 177.008 259.221 178.96 255.829 178.96C253.685 178.96 251.733 178.032 250.325 176.56C248.917 175.088 248.021 173.392 248.021 170.864C248.021 166.832 250.837 162.576 255.829 162.576C259.125 162.576 261.877 164.272 263.061 167.632H266.261C264.981 162.576 260.949 159.376 255.829 159.376C249.877 159.376 244.885 164.336 244.885 170.864ZM269.261 159.6V182H272.525V159.6H269.261ZM273.133 171.632L281.677 182H285.901L276.461 170.736L285.005 159.6H281.037L273.133 170V171.632ZM297.1 164.464L300.46 173.296H293.74L297.1 164.464ZM303.788 182H307.244L298.252 159.312H295.884L286.892 182H290.38L292.556 176.336H301.644L303.788 182ZM321.147 170.64H317.371C314.651 170.64 313.307 168.688 313.307 166.736C313.307 164.816 314.651 162.864 317.371 162.864H322.331V182H325.531V159.6H317.371C312.507 159.6 310.075 163.184 310.075 166.736C310.075 169.904 312.027 172.912 315.867 173.584L308.795 182H312.987L321.147 172.176V170.64Z" fill="#292929"/>
<path d="M146.703 503.008C147.279 499.264 149.439 496.576 153.567 496.576C161.391 496.576 162.687 504.544 157.407 508.336H157.455L141.663 522.256V526H165.231V521.344H149.823L160.671 512.032C169.743 505.696 166.287 491.728 153.567 491.728C146.559 491.728 142.719 496.624 141.855 502.624L146.703 503.008ZM183.112 496.864C188.536 496.864 190.984 502.576 190.984 509.248C190.984 515.584 188.536 521.584 183.112 521.584C177.688 521.584 175.336 515.584 175.336 509.248C175.336 502.576 177.688 496.864 183.112 496.864ZM183.112 526.336C191.656 526.336 195.976 517.792 195.976 509.248C195.976 500.656 191.656 492.064 183.112 492.064C174.52 492.064 170.296 500.656 170.296 509.248C170.296 517.792 174.52 526.336 183.112 526.336ZM213.206 496.864C218.63 496.864 221.078 502.576 221.078 509.248C221.078 515.584 218.63 521.584 213.206 521.584C207.782 521.584 205.43 515.584 205.43 509.248C205.43 502.576 207.782 496.864 213.206 496.864ZM213.206 526.336C221.75 526.336 226.07 517.792 226.07 509.248C226.07 500.656 221.75 492.064 213.206 492.064C204.614 492.064 200.39 500.656 200.39 509.248C200.39 517.792 204.614 526.336 213.206 526.336ZM230.03 492.4V526H234.926V514.816H242.318C249.566 514.816 253.214 509.248 253.214 503.632C253.214 498.016 249.566 492.4 242.318 492.4H230.03ZM234.926 510.016V497.296H242.318C246.398 497.296 248.414 500.464 248.414 503.68C248.414 506.848 246.398 510.016 242.318 510.016H234.926Z" fill="#292929"/>
<g clip-path="url(#clip0_8_49008)">
<path d="M259.031 321.05L201.681 266.077C200.184 264.64 197.816 264.64 196.319 266.077L138.912 321.106C137.697 322.321 137 323.995 137 325.705C137 329.265 139.899 332.164 143.459 332.164H152.5V378.664C152.5 384.372 157.124 388.996 162.834 388.996H235.166C240.876 388.996 245.5 384.372 245.5 378.664V332.164H254.541C258.101 332.164 261 329.265 261 325.705C261 323.995 260.303 322.321 259.031 321.05Z" fill="#91C6CB"/>
</g>
<rect x="3" y="3" width="392" height="600" stroke="#292929" stroke-width="5"/>
<defs>
<clipPath id="clip0_8_49008">
<rect width="124" height="124" fill="white" transform="translate(137 265)"/>
</clipPath>
</defs>
</svg>
