<svg width="398" height="605" viewBox="0 0 398 605" fill="none" xmlns="http://www.w3.org/2000/svg">
<g clip-path="url(#clip0_8_46259)">
<rect x="395" y="602" width="392" height="600" transform="rotate(-180 395 602)" fill="white"/>
<rect x="395" y="602" width="392" height="100" transform="rotate(-180 395 602)" fill="white"/>
<path d="M248.755 445.4V423H245.491V445.4H248.755ZM244.883 433.368L236.339 423H232.115L241.555 434.264L233.011 445.4H236.979L244.883 435V433.368ZM220.915 440.536L217.555 431.704H224.275L220.915 440.536ZM214.227 423H210.771L219.763 445.688H222.131L231.123 423H227.635L225.459 428.664H216.371L214.227 423ZM203.956 432.984H200.596C197.684 432.984 196.564 431.128 196.564 429.528C196.564 427.672 198.036 425.72 201.588 425.72C204.404 425.72 205.876 427.32 206.164 429.112L209.172 428.568C208.66 425.496 206.388 422.712 201.588 422.712C196.212 422.712 193.396 425.976 193.364 429.208C193.332 431.608 194.356 433.4 196.372 434.584C194.74 435.672 194.324 437.496 194.324 439.256C194.356 443.8 197.94 445.624 201.78 445.624C204.756 445.624 207.732 443.928 208.532 440.536L205.62 439.832C205.204 441.56 203.476 442.52 201.78 442.52C199.668 442.52 197.524 441.688 197.524 439.256C197.524 437.784 198.356 435.96 200.596 435.96H203.956V432.984ZM186.398 445.4H189.63V423H186.398V432.728H176.926V423H173.662V445.4H176.926V435.928H186.398V445.4ZM161.197 440.536L157.837 431.704H164.557L161.197 440.536ZM154.509 423H151.053L160.045 445.688H162.413L171.405 423H167.917L165.741 428.664H156.653L154.509 423Z" fill="#292929"/>
<path d="M140.936 314.616C140.936 326.509 150.612 336.186 162.505 336.186H235.616C247.509 336.186 257.186 326.509 257.186 314.616V313.5L238.745 288.378C238.983 288.199 239.256 288.066 239.549 287.993C245.294 286.549 249.821 282.233 251.6 276.698H257.186L257.186 219.936L140.936 219.936L140.936 276.698H146.522C148.408 282.541 153.359 286.947 159.368 288.164L140.936 313.508V314.616ZM235.616 329.374H162.505C155.539 329.374 149.69 324.522 148.148 318.021H249.974C248.431 324.522 242.582 329.374 235.616 329.374ZM204.737 269.887H193.384L193.384 256.264H204.737L204.737 269.887ZM153.951 276.698H244.176C242.813 278.994 240.573 280.711 237.89 281.385C234.822 282.156 232.336 284.521 231.4 287.556C229.811 292.705 226.57 295.316 221.766 295.316C219.773 295.316 217.843 294.742 216.185 293.657C213.077 291.623 208.88 292.05 206.204 294.671C204.283 296.551 201.747 297.587 199.061 297.587C195.754 297.587 192.636 295.973 190.721 293.269C188.707 290.427 185.084 289.234 181.709 290.301C180.716 290.616 179.68 290.775 178.626 290.775C175.026 290.775 171.651 288.845 169.82 285.738C168.348 283.242 165.648 281.693 162.772 281.693H162.732C159.044 281.693 155.749 279.706 153.951 276.698Z" fill="#292929"/>
</g>
<rect x="395" y="602" width="392" height="600" transform="rotate(-180 395 602)" stroke="#292929" stroke-width="5"/>
<defs>
<clipPath id="clip0_8_46259">
<rect x="395" y="602" width="392" height="600" transform="rotate(-180 395 602)" fill="white"/>
</clipPath>
</defs>
</svg>
