<svg width="398" height="605" viewBox="0 0 398 605" fill="none" xmlns="http://www.w3.org/2000/svg">
<rect x="3" y="3" width="392" height="600" fill="white"/>
<rect x="3" y="3" width="392" height="100" fill="white"/>
<path d="M152.606 159.6V182H177.694V159.6H174.27V179.056H166.846V159.6H163.454V179.056H156.03V159.6H152.606ZM190.881 164.464L194.241 173.296H187.521L190.881 164.464ZM197.569 182H201.025L192.033 159.312H189.665L180.673 182H184.161L186.337 176.336H195.425L197.569 182ZM206.305 159.6H203.073V182H206.305V172.272H215.777V182H219.041V159.6H215.777V169.072H206.305V159.6ZM222.322 170.864C222.322 174.256 223.602 176.784 225.522 178.832C227.474 180.88 230.226 182.16 233.266 182.16C238.482 182.16 242.578 178.704 243.858 173.616H240.69C239.538 177.008 236.658 178.96 233.266 178.96C231.122 178.96 229.17 178.032 227.762 176.56C226.354 175.088 225.458 173.392 225.458 170.864C225.458 166.832 228.274 162.576 233.266 162.576C236.562 162.576 239.314 164.272 240.498 167.632H243.698C242.418 162.576 238.386 159.376 233.266 159.376C227.314 159.376 222.322 164.336 222.322 170.864Z" fill="#292929"/>
<path d="M192.46 377.378L225.286 388.621L254.025 359.883L220.972 348.866L192.46 377.378ZM207.241 375.623C205.502 377.362 202.669 378.115 200.911 377.304C199.154 376.493 199.138 374.427 200.878 372.688C202.617 370.95 205.45 370.197 207.208 371.008C208.966 371.819 208.98 373.885 207.241 375.623ZM217.841 379.336C216.103 381.075 213.269 381.828 211.511 381.017C209.755 380.206 209.738 378.14 211.478 376.401C213.218 374.663 216.05 373.91 217.808 374.721C219.565 375.532 219.58 377.598 217.841 379.336ZM239.214 362.711C240.952 360.972 243.786 360.219 245.544 361.03C247.3 361.841 247.317 363.907 245.578 365.646C243.84 367.384 241.006 368.137 239.248 367.326C237.49 366.515 237.475 364.449 239.214 362.711ZM228.645 359.236C230.384 357.498 233.217 356.745 234.975 357.556C236.731 358.367 236.748 360.433 235.008 362.172C233.269 363.91 230.436 364.663 228.678 363.852C226.921 363.041 226.906 360.975 228.645 359.236ZM228.378 378.195C230.134 379.006 230.15 381.072 228.411 382.811C226.672 384.549 223.839 385.302 222.08 384.491C220.322 383.68 220.308 381.614 222.046 379.876C223.786 378.139 226.619 377.386 228.378 378.195ZM224.375 353.842C226.131 354.653 226.147 356.718 224.407 358.457C222.669 360.196 219.836 360.948 218.077 360.137C216.321 359.326 216.305 357.261 218.044 355.522C219.783 353.783 222.617 353.032 224.375 353.842Z" fill="#F2AD2E"/>
<path d="M254.558 355.912L243.705 323.352L211.146 312.498L221.998 345.056L254.558 355.912ZM230.381 330.381C231.597 329.165 234.04 329.636 235.838 331.434C237.637 333.233 238.109 335.676 236.892 336.892C235.676 338.108 233.232 337.637 231.434 335.839C229.635 334.04 229.163 331.597 230.381 330.381Z" fill="#F2AD2E"/>
<path d="M176.671 265L145.972 280.349L176.671 295.697L207.368 280.349L176.671 265ZM176.671 283.463C174.129 283.463 172.066 282.068 172.066 280.349C172.066 278.628 174.128 277.234 176.671 277.234C179.215 277.234 181.276 278.629 181.276 280.349C181.274 282.069 179.213 283.463 176.671 283.463Z" fill="#F2AD2E"/>
<path d="M184.562 323.849C186.029 323.309 187.255 324.165 187.679 325.805L206.064 307.419L209.8 308.665V283.533L178.638 299.115V334.846L181.788 331.696C181.467 331.127 181.274 330.389 181.274 329.515C181.274 327.055 182.747 324.519 184.562 323.849ZM204.614 290.341C206.43 289.672 207.902 291.122 207.902 293.581C207.902 296.039 206.43 298.575 204.614 299.245C202.798 299.914 201.327 298.463 201.327 296.005C201.326 293.546 202.798 291.01 204.614 290.341ZM195.246 306.426C197.062 305.757 198.533 307.207 198.533 309.666C198.533 312.124 197.062 314.66 195.246 315.33C193.43 315.999 191.958 314.548 191.958 312.09C191.958 309.632 193.431 307.095 195.246 306.426ZM181.274 305.893C181.274 303.434 182.745 300.898 184.562 300.229C186.378 299.56 187.849 301.01 187.849 303.469C187.849 305.927 186.378 308.463 184.562 309.132C182.746 309.802 181.274 308.352 181.274 305.893Z" fill="#F2AD2E"/>
<path d="M143.539 324.174L174.262 339.221L174.702 338.78V299.115L143.539 283.533V324.174ZM168.702 323.849C170.518 324.519 171.99 327.055 171.99 329.513C171.99 331.972 170.518 333.422 168.702 332.753C166.886 332.084 165.415 329.547 165.415 327.089C165.415 324.631 166.888 323.18 168.702 323.849ZM159.121 305.929C160.937 306.598 162.408 309.134 162.408 311.593C162.408 314.051 160.937 315.501 159.121 314.832C157.304 314.163 155.833 311.627 155.833 309.168C155.833 306.71 157.306 305.26 159.121 305.929ZM149.26 290.341C151.076 291.01 152.547 293.546 152.547 296.005C152.547 298.463 151.076 299.914 149.26 299.245C147.443 298.575 145.972 296.04 145.972 293.581C145.972 291.122 147.443 289.672 149.26 290.341Z" fill="#F2AD2E"/>
<path d="M207.172 313.03L178.433 341.766L189.677 374.595L218.189 346.08L207.172 313.03ZM194.899 363.769C193.16 365.507 191.093 365.492 190.284 363.734C189.474 361.976 190.225 359.143 191.964 357.404C193.703 355.665 195.77 355.68 196.579 357.437C197.389 359.194 196.638 362.03 194.899 363.769ZM204.488 329.697C202.749 331.436 200.682 331.421 199.873 329.664C199.062 327.908 199.814 325.073 201.553 323.334C203.292 321.595 205.359 321.611 206.168 323.367C206.98 325.125 206.227 327.959 204.488 329.697Z" fill="#F2AD2E"/>
<rect x="3" y="3" width="392" height="600" stroke="#292929" stroke-width="5"/>
</svg>
