<svg width="398" height="605" viewBox="0 0 398 605" fill="none" xmlns="http://www.w3.org/2000/svg">
<rect x="3" y="3" width="392" height="600" fill="white"/>
<path d="M40.1356 159.6V182H43.3996V162.768H52.8076V182H56.1036V159.6H40.1356ZM66.7284 182.032L76.8084 159.6H73.1284L69.6724 167.664L68.2324 171.216L66.5684 167.632L62.6004 159.6H58.9524L66.3764 174.832L63.2084 182.032H66.7284ZM79.1059 159.6V182H104.194V159.6H100.77V179.056H93.3459V159.6H89.9539V179.056H82.5299V159.6H79.1059ZM107.886 159.6V182H111.15V159.6H107.886ZM111.758 171.632L120.302 182H124.526L115.086 170.736L123.63 159.6H119.662L111.758 170V171.632ZM143.565 182V159.6H141.069L130.157 175.376V159.6H126.957V182H129.517L140.333 166.352V182H143.565ZM150.243 159.6H147.011V182H150.243V172.272H159.715V182H162.979V159.6H159.715V169.072H150.243V159.6ZM166.26 170.864C166.26 174.256 167.54 176.784 169.46 178.832C171.412 180.88 174.164 182.16 177.204 182.16C182.42 182.16 186.516 178.704 187.796 173.616H184.628C183.476 177.008 180.596 178.96 177.204 178.96C175.06 178.96 173.108 178.032 171.7 176.56C170.292 175.088 169.396 173.392 169.396 170.864C169.396 166.832 172.212 162.576 177.204 162.576C180.5 162.576 183.252 164.272 184.436 167.632H187.636C186.356 162.576 182.324 159.376 177.204 159.376C171.252 159.376 166.26 164.336 166.26 170.864ZM190.636 159.6V182H193.9V159.6H190.636ZM194.508 171.632L203.052 182H207.276L197.836 170.736L206.38 159.6H202.412L194.508 170V171.632ZM218.475 164.464L221.835 173.296H215.115L218.475 164.464ZM225.163 182H228.619L219.627 159.312H217.259L208.267 182H211.755L213.931 176.336H223.019L225.163 182ZM242.522 170.64H238.746C236.026 170.64 234.682 168.688 234.682 166.736C234.682 164.816 236.026 162.864 238.746 162.864H243.706V182H246.906V159.6H238.746C233.882 159.6 231.45 163.184 231.45 166.736C231.45 169.904 233.402 172.912 237.242 173.584L230.17 182H234.362L242.522 172.176V170.64ZM264.853 182.032L274.933 159.6H271.253L267.797 167.664L266.357 171.216L264.693 167.632L260.725 159.6H257.077L264.501 174.832L261.333 182.032H264.853ZM283.975 164.912L290.599 182H294.119L285.127 159.312H282.759L273.767 182H277.287L283.975 164.912ZM313.409 182V159.6H310.913L300.001 175.376V159.6H296.801V182H299.361L310.177 166.352V182H313.409ZM331.862 179.024V159.6H328.534V179.024H320.246V159.6H316.95V182H330.518V186.544H333.686V179.024H331.862ZM346.913 164.464L350.273 173.296H343.553L346.913 164.464ZM353.601 182H357.057L348.065 159.312H345.697L336.705 182H340.193L342.369 176.336H351.457L353.601 182Z" fill="#292929"/>
<path d="M148.352 503.008C148.928 499.264 151.088 496.576 155.216 496.576C163.04 496.576 164.336 504.544 159.056 508.336H159.104L143.312 522.256V526H166.88V521.344H151.472L162.32 512.032C171.392 505.696 167.936 491.728 155.216 491.728C148.208 491.728 144.368 496.624 143.504 502.624L148.352 503.008ZM176.148 503.008C176.725 499.264 178.885 496.576 183.013 496.576C190.837 496.576 192.133 504.544 186.853 508.336H186.901L171.109 522.256V526H194.677V521.344H179.269L190.117 512.032C199.189 505.696 195.733 491.728 183.013 491.728C176.005 491.728 172.165 496.624 171.301 502.624L176.148 503.008ZM212.557 496.864C217.981 496.864 220.429 502.576 220.429 509.248C220.429 515.584 217.981 521.584 212.557 521.584C207.133 521.584 204.781 515.584 204.781 509.248C204.781 502.576 207.133 496.864 212.557 496.864ZM212.557 526.336C221.101 526.336 225.421 517.792 225.421 509.248C225.421 500.656 221.101 492.064 212.557 492.064C203.965 492.064 199.741 500.656 199.741 509.248C199.741 517.792 203.965 526.336 212.557 526.336ZM229.382 492.4V526H234.278V514.816H241.67C248.918 514.816 252.566 509.248 252.566 503.632C252.566 498.016 248.918 492.4 241.67 492.4H229.382ZM234.278 510.016V497.296H241.67C245.75 497.296 247.766 500.464 247.766 503.68C247.766 506.848 245.75 510.016 241.67 510.016H234.278Z" fill="#292929"/>
<g clip-path="url(#clip0_8_49006)">
<path d="M259.031 321.05L201.681 266.077C200.184 264.64 197.816 264.64 196.319 266.077L138.912 321.106C137.697 322.321 137 323.995 137 325.705C137 329.265 139.899 332.164 143.459 332.164H152.5V378.664C152.5 384.372 157.124 388.996 162.834 388.996H235.166C240.876 388.996 245.5 384.372 245.5 378.664V332.164H254.541C258.101 332.164 261 329.265 261 325.705C261 323.995 260.303 322.321 259.031 321.05Z" fill="#91C6CB"/>
</g>
<rect x="3" y="3" width="392" height="600" stroke="#292929" stroke-width="5"/>
<defs>
<clipPath id="clip0_8_49006">
<rect width="124" height="124" fill="white" transform="translate(137 265)"/>
</clipPath>
</defs>
</svg>
