<svg width="398" height="605" viewBox="0 0 398 605" fill="none" xmlns="http://www.w3.org/2000/svg">
<rect x="3" y="3" width="392" height="600" fill="white"/>
<path d="M119.495 159.6V182H122.759V162.768H132.167V182H135.463V159.6H119.495ZM147.928 164.912L154.552 182H158.072L149.08 159.312H146.712L137.72 182H141.24L147.928 164.912ZM178.827 170.8C178.827 173.104 177.899 175.12 176.459 176.592C174.955 178.096 172.875 179.024 170.667 179.024C168.459 179.024 166.411 178.096 164.939 176.592C163.467 175.12 162.539 173.072 162.539 170.8C162.539 168.528 163.467 166.48 164.939 165.008C166.411 163.504 168.459 162.576 170.667 162.576C172.875 162.576 174.955 163.504 176.459 165.008C177.899 166.48 178.827 168.496 178.827 170.8ZM159.275 170.8C159.275 173.968 160.587 176.816 162.603 178.896C164.651 181.008 167.531 182.288 170.667 182.288C173.835 182.288 176.683 181.008 178.763 178.896C180.779 176.816 182.091 173.968 182.091 170.8C182.091 167.632 180.779 164.784 178.763 162.704C176.683 160.624 173.835 159.312 170.667 159.312C167.531 159.312 164.651 160.624 162.603 162.704C160.587 164.784 159.275 167.632 159.275 170.8ZM185.434 159.6V182H209.146V186.544L212.442 186.544V179.056L210.49 179.056V159.6H207.066V179.056H199.642V159.6H196.218V179.056H188.826V159.6H185.434ZM225.366 164.464L228.726 173.296H222.006L225.366 164.464ZM232.054 182H235.51L226.518 159.312H224.15L215.158 182H218.646L220.822 176.336H229.91L232.054 182ZM255.589 178.832V159.6H242.277L241.413 172.784C241.221 174.832 240.773 177.712 239.493 179.056L237.701 179.408V185.584H240.933V182H254.245V185.584H257.413V178.832H255.589ZM243.141 178.832C244.581 176.88 244.709 174.16 244.869 170.672L245.349 162.704H252.261V178.832H243.141ZM268.499 182C273.331 182 275.763 178.256 275.763 174.512C275.763 170.768 273.331 167.056 268.499 167.056H263.571V159.6H260.307V182H268.499ZM268.499 170.256C271.219 170.256 272.563 172.368 272.563 174.48C272.563 176.624 271.219 178.8 268.499 178.8H263.571V170.256H268.499ZM84.6675 204.224L90.5235 212.928H92.3475L98.2035 204.224V220H101.404V197.6H98.8435L91.4515 208.48L84.0595 197.6H81.4355L81.4355 220H84.6675L84.6675 204.224ZM114.116 202.464L117.476 211.296H110.756L114.116 202.464ZM120.804 220H124.26L115.268 197.312H112.9L103.908 220H107.396L109.572 214.336H118.66L120.804 220ZM138.163 208.64H134.387C131.667 208.64 130.323 206.688 130.323 204.736C130.323 202.816 131.667 200.864 134.387 200.864H139.347V220H142.547V197.6H134.387C129.523 197.6 127.091 201.184 127.091 204.736C127.091 207.904 129.043 210.912 132.883 211.584L125.811 220H130.003L138.163 210.176V208.64ZM145.901 197.6V220H149.165V197.6H145.901ZM149.773 209.632L158.317 220H162.541L153.101 208.736L161.645 197.6H157.677L149.773 208V209.632ZM182.421 208.8C182.421 211.104 181.493 213.12 180.053 214.592C178.549 216.096 176.469 217.024 174.261 217.024C172.053 217.024 170.005 216.096 168.533 214.592C167.061 213.12 166.133 211.072 166.133 208.8C166.133 206.528 167.061 204.48 168.533 203.008C170.005 201.504 172.053 200.576 174.261 200.576C176.469 200.576 178.549 201.504 180.053 203.008C181.493 204.48 182.421 206.496 182.421 208.8ZM162.868 208.8C162.868 211.968 164.181 214.816 166.197 216.896C168.245 219.008 171.125 220.288 174.261 220.288C177.429 220.288 180.277 219.008 182.357 216.896C184.373 214.816 185.685 211.968 185.685 208.8C185.685 205.632 184.373 202.784 182.357 200.704C180.277 198.624 177.429 197.312 174.261 197.312C171.125 197.312 168.245 198.624 166.197 200.704C164.181 202.784 162.868 205.632 162.868 208.8ZM192.324 200.672H198.436C201.956 200.672 201.892 206.528 198.372 206.528H192.324V200.672ZM189.124 197.6V220H199.236C203.524 220 205.732 216.608 205.732 213.248C205.732 211.136 204.772 208.768 202.212 207.68C206.468 204.512 203.748 197.6 198.436 197.6H189.124ZM192.324 209.728H199.236C201.412 209.728 202.5 211.52 202.5 213.28C202.5 215.04 201.412 216.864 199.236 216.864H192.324V209.728ZM208.588 208.864C208.588 212.256 209.868 214.784 211.788 216.832C213.74 218.88 216.492 220.16 219.532 220.16C224.748 220.16 228.844 216.704 230.124 211.616H226.956C225.804 215.008 222.924 216.96 219.532 216.96C217.388 216.96 215.436 216.032 214.028 214.56C212.62 213.088 211.724 211.392 211.724 208.864C211.724 204.832 214.54 200.576 219.532 200.576C222.828 200.576 225.58 202.272 226.764 205.632H229.964C228.684 200.576 224.652 197.376 219.532 197.376C213.58 197.376 208.588 202.336 208.588 208.864ZM232.964 197.6V220H236.228V197.6H232.964ZM236.836 209.632L245.38 220H249.604L240.164 208.736L248.708 197.6H244.74L236.836 208V209.632ZM269.483 208.8C269.483 211.104 268.555 213.12 267.115 214.592C265.611 216.096 263.531 217.024 261.323 217.024C259.115 217.024 257.067 216.096 255.595 214.592C254.123 213.12 253.195 211.072 253.195 208.8C253.195 206.528 254.123 204.48 255.595 203.008C257.067 201.504 259.115 200.576 261.323 200.576C263.531 200.576 265.611 201.504 267.115 203.008C268.555 204.48 269.483 206.496 269.483 208.8ZM249.931 208.8C249.931 211.968 251.243 214.816 253.259 216.896C255.307 219.008 258.187 220.288 261.323 220.288C264.491 220.288 267.339 219.008 269.419 216.896C271.435 214.816 272.747 211.968 272.747 208.8C272.747 205.632 271.435 202.784 269.419 200.704C267.339 198.624 264.491 197.312 261.323 197.312C258.187 197.312 255.307 198.624 253.259 200.704C251.243 202.784 249.931 205.632 249.931 208.8ZM279.45 200.736H289.818V197.6H276.186V220H279.45V200.736ZM310.389 208.8C310.389 211.104 309.461 213.12 308.021 214.592C306.517 216.096 304.437 217.024 302.229 217.024C300.021 217.024 297.973 216.096 296.501 214.592C295.029 213.12 294.101 211.072 294.101 208.8C294.101 206.528 295.029 204.48 296.501 203.008C297.973 201.504 300.021 200.576 302.229 200.576C304.437 200.576 306.517 201.504 308.021 203.008C309.461 204.48 310.389 206.496 310.389 208.8ZM290.837 208.8C290.837 211.968 292.149 214.816 294.165 216.896C296.213 219.008 299.093 220.288 302.229 220.288C305.397 220.288 308.245 219.008 310.325 216.896C312.341 214.816 313.653 211.968 313.653 208.8C313.653 205.632 312.341 202.784 310.325 200.704C308.245 198.624 305.397 197.312 302.229 197.312C299.093 197.312 296.213 198.624 294.165 200.704C292.149 202.784 290.837 205.632 290.837 208.8Z" fill="#292929"/>
<path d="M148.555 503.008C149.131 499.264 151.291 496.576 155.419 496.576C163.243 496.576 164.539 504.544 159.259 508.336H159.307L143.515 522.256V526H167.083V521.344H151.675L162.523 512.032C171.595 505.696 168.139 491.728 155.419 491.728C148.411 491.728 144.571 496.624 143.707 502.624L148.555 503.008ZM169.848 515.008V518.416H186.6V526H191.4V518.416H194.136V513.712H191.4V492.4H187.656L169.848 515.008ZM176.184 513.808L186.696 500.8V513.808H176.184ZM211.354 496.864C216.778 496.864 219.226 502.576 219.226 509.248C219.226 515.584 216.778 521.584 211.354 521.584C205.93 521.584 203.578 515.584 203.578 509.248C203.578 502.576 205.93 496.864 211.354 496.864ZM211.354 526.336C219.898 526.336 224.218 517.792 224.218 509.248C224.218 500.656 219.898 492.064 211.354 492.064C202.762 492.064 198.538 500.656 198.538 509.248C198.538 517.792 202.762 526.336 211.354 526.336ZM228.179 492.4V526H233.075V514.816H240.467C247.715 514.816 251.363 509.248 251.363 503.632C251.363 498.016 247.715 492.4 240.467 492.4H228.179ZM233.075 510.016V497.296H240.467C244.547 497.296 246.563 500.464 246.563 503.68C246.563 506.848 244.547 510.016 240.467 510.016H233.075Z" fill="#292929"/>
<g clip-path="url(#clip0_8_49005)">
<path d="M259.031 321.05L201.681 266.077C200.184 264.64 197.816 264.64 196.319 266.077L138.912 321.106C137.697 322.321 137 323.995 137 325.705C137 329.265 139.899 332.164 143.459 332.164H152.5V378.664C152.5 384.372 157.124 388.996 162.834 388.996H235.166C240.876 388.996 245.5 384.372 245.5 378.664V332.164H254.541C258.101 332.164 261 329.265 261 325.705C261 323.995 260.303 322.321 259.031 321.05Z" fill="#91C6CB"/>
</g>
<rect x="3" y="3" width="392" height="600" stroke="#292929" stroke-width="5"/>
<defs>
<clipPath id="clip0_8_49005">
<rect width="124" height="124" fill="white" transform="translate(137 265)"/>
</clipPath>
</defs>
</svg>
