<svg width="398" height="605" viewBox="0 0 398 605" fill="none" xmlns="http://www.w3.org/2000/svg">
<rect x="3" y="3" width="392" height="600" fill="white"/>
<rect x="3" y="3" width="392" height="100" fill="white"/>
<path d="M107.573 159.6V182H110.837V159.6H107.573ZM111.445 171.632L119.989 182H124.213L114.773 170.736L123.317 159.6H119.349L111.445 170V171.632ZM135.413 164.464L138.773 173.296H132.053L135.413 164.464ZM142.101 182H145.557L136.565 159.312H134.197L125.205 182H128.693L130.869 176.336H139.957L142.101 182ZM152.372 172.016H155.732C158.644 172.016 159.764 173.872 159.764 175.472C159.764 177.328 158.292 179.28 154.74 179.28C151.924 179.28 150.452 177.68 150.164 175.888L147.156 176.432C147.668 179.504 149.94 182.288 154.74 182.288C160.116 182.288 162.932 179.024 162.964 175.792C162.996 173.392 161.972 171.6 159.956 170.416C161.588 169.328 162.004 167.504 162.004 165.744C161.972 161.2 158.388 159.376 154.548 159.376C151.572 159.376 148.596 161.072 147.796 164.464L150.708 165.168C151.124 163.44 152.852 162.48 154.548 162.48C156.66 162.48 158.804 163.312 158.804 165.744C158.804 167.216 157.972 169.04 155.732 169.04H152.372V172.016ZM175.225 164.464L178.585 173.296L171.865 173.296L175.225 164.464ZM181.913 182H185.369L176.377 159.312H174.009L165.017 182H168.505L170.681 176.336L179.769 176.336L181.913 182ZM190.649 159.6H187.417V182H190.649V172.272H200.121V182H203.385V159.6H200.121V169.072H190.649V159.6ZM206.666 170.864C206.666 174.256 207.946 176.784 209.866 178.832C211.818 180.88 214.57 182.16 217.61 182.16C222.826 182.16 226.922 178.704 228.202 173.616H225.034C223.882 177.008 221.002 178.96 217.61 178.96C215.466 178.96 213.514 178.032 212.106 176.56C210.698 175.088 209.802 173.392 209.802 170.864C209.802 166.832 212.618 162.576 217.61 162.576C220.906 162.576 223.658 164.272 224.842 167.632H228.042C226.762 162.576 222.73 159.376 217.61 159.376C211.658 159.376 206.666 164.336 206.666 170.864ZM231.042 159.6V182H234.306V159.6H231.042ZM234.914 171.632L243.458 182H247.682L238.242 170.736L246.786 159.6H242.818L234.914 170V171.632ZM258.881 164.464L262.241 173.296H255.521L258.881 164.464ZM265.569 182H269.025L260.033 159.312H257.665L248.673 182H252.161L254.337 176.336H263.425L265.569 182ZM282.929 170.64H279.153C276.433 170.64 275.089 168.688 275.089 166.736C275.089 164.816 276.433 162.864 279.153 162.864H284.113V182H287.313V159.6H279.153C274.289 159.6 271.857 163.184 271.857 166.736C271.857 169.904 273.809 172.912 277.649 173.584L270.577 182H274.769L282.929 172.176V170.64ZM56.9213 197.6V220H60.1853L60.1853 197.6H56.9213ZM60.7933 209.632L68.6333 220H72.6653L64.0253 208.736L71.8333 197.6H68.0253L60.7933 208V209.632ZM56.2813 208L49.0493 197.6H45.2413L53.0493 208.736L44.4093 220H48.4413L56.2813 209.632V208ZM78.2003 210.4H88.3443V207.136H78.2003V200.832H88.5683V197.6H74.9363V220H88.6003V216.768H78.2003V210.4ZM101.46 202.912L108.083 220H111.604L102.612 197.312H100.244L91.2515 220H94.7715L101.46 202.912ZM117.325 210.4H127.469V207.136H117.325V200.832H127.693V197.6H114.061L114.061 220H127.725V216.768H117.325L117.325 210.4ZM135.513 210.016H138.873C141.785 210.016 142.905 211.872 142.905 213.472C142.905 215.328 141.433 217.28 137.881 217.28C135.065 217.28 133.593 215.68 133.305 213.888L130.297 214.432C130.809 217.504 133.081 220.288 137.881 220.288C143.257 220.288 146.073 217.024 146.105 213.792C146.137 211.392 145.113 209.6 143.097 208.416C144.729 207.328 145.145 205.504 145.145 203.744C145.113 199.2 141.529 197.376 137.689 197.376C134.713 197.376 131.737 199.072 130.937 202.464L133.849 203.168C134.265 201.44 135.993 200.48 137.689 200.48C139.801 200.48 141.945 201.312 141.945 203.744C141.945 205.216 141.113 207.04 138.873 207.04H135.513V210.016ZM153.071 197.6H149.839V220H153.071V210.272H162.543V220H165.807V197.6H162.543V207.072H153.071V197.6ZM178.272 202.464L181.632 211.296H174.912L178.272 202.464ZM184.96 220H188.416L179.424 197.312H177.056L168.064 220H171.552L173.728 214.336H182.816L184.96 220ZM202.319 208.64H198.543C195.823 208.64 194.479 206.688 194.479 204.736C194.479 202.816 195.823 200.864 198.543 200.864H203.503V220H206.703V197.6H198.543C193.679 197.6 191.247 201.184 191.247 204.736C191.247 207.904 193.199 210.912 197.039 211.584L189.967 220H194.159L202.319 210.176V208.64ZM235.37 216.832V197.6H222.058L221.194 210.784C221.002 212.832 220.554 215.712 219.274 217.056L217.482 217.408V223.584L220.714 223.584V220H234.026V223.584H237.194V216.832H235.37ZM222.922 216.832C224.362 214.88 224.49 212.16 224.65 208.672L225.13 200.704H232.042V216.832H222.922ZM258.921 208.8C258.921 211.104 257.993 213.12 256.553 214.592C255.049 216.096 252.969 217.024 250.761 217.024C248.553 217.024 246.505 216.096 245.033 214.592C243.561 213.12 242.633 211.072 242.633 208.8C242.633 206.528 243.561 204.48 245.033 203.008C246.505 201.504 248.553 200.576 250.761 200.576C252.969 200.576 255.049 201.504 256.553 203.008C257.993 204.48 258.921 206.496 258.921 208.8ZM239.368 208.8C239.368 211.968 240.681 214.816 242.697 216.896C244.745 219.008 247.625 220.288 250.761 220.288C253.929 220.288 256.777 219.008 258.857 216.896C260.873 214.816 262.185 211.968 262.185 208.8C262.185 205.632 260.873 202.784 258.857 200.704C256.777 198.624 253.929 197.312 250.761 197.312C247.625 197.312 244.745 198.624 242.697 200.704C240.681 202.784 239.368 205.632 239.368 208.8ZM265.432 197.6V220H268.696V212.544H273.624C278.456 212.544 280.888 208.832 280.888 205.088C280.888 201.344 278.456 197.6 273.624 197.6H265.432ZM268.696 209.344V200.864H273.624C276.344 200.864 277.688 202.976 277.688 205.12C277.688 207.232 276.344 209.344 273.624 209.344H268.696ZM303.108 208.8C303.108 211.104 302.18 213.12 300.74 214.592C299.236 216.096 297.156 217.024 294.948 217.024C292.74 217.024 290.692 216.096 289.22 214.592C287.748 213.12 286.82 211.072 286.82 208.8C286.82 206.528 287.748 204.48 289.22 203.008C290.692 201.504 292.74 200.576 294.948 200.576C297.156 200.576 299.236 201.504 300.74 203.008C302.18 204.48 303.108 206.496 303.108 208.8ZM283.556 208.8C283.556 211.968 284.868 214.816 286.884 216.896C288.932 219.008 291.812 220.288 294.948 220.288C298.116 220.288 300.964 219.008 303.044 216.896C305.06 214.816 306.372 211.968 306.372 208.8C306.372 205.632 305.06 202.784 303.044 200.704C300.964 198.624 298.116 197.312 294.948 197.312C291.812 197.312 288.932 198.624 286.884 200.704C284.868 202.784 283.556 205.632 283.556 208.8ZM313.075 200.736H323.443V197.6H309.811V220H313.075V200.736ZM332.678 202.464L336.038 211.296H329.318L332.678 202.464ZM339.366 220H342.822L333.83 197.312H331.462L322.47 220H325.958L328.134 214.336H337.222L339.366 220Z" fill="#292929"/>
<path d="M146.703 503.008C147.279 499.264 149.439 496.576 153.567 496.576C161.391 496.576 162.687 504.544 157.407 508.336H157.455L141.663 522.256V526H165.231V521.344H149.823L160.671 512.032C169.743 505.696 166.287 491.728 153.567 491.728C146.559 491.728 142.719 496.624 141.855 502.624L146.703 503.008ZM183.112 496.864C188.536 496.864 190.984 502.576 190.984 509.248C190.984 515.584 188.536 521.584 183.112 521.584C177.688 521.584 175.336 515.584 175.336 509.248C175.336 502.576 177.688 496.864 183.112 496.864ZM183.112 526.336C191.656 526.336 195.976 517.792 195.976 509.248C195.976 500.656 191.656 492.064 183.112 492.064C174.52 492.064 170.296 500.656 170.296 509.248C170.296 517.792 174.52 526.336 183.112 526.336ZM213.206 496.864C218.63 496.864 221.078 502.576 221.078 509.248C221.078 515.584 218.63 521.584 213.206 521.584C207.782 521.584 205.43 515.584 205.43 509.248C205.43 502.576 207.782 496.864 213.206 496.864ZM213.206 526.336C221.75 526.336 226.07 517.792 226.07 509.248C226.07 500.656 221.75 492.064 213.206 492.064C204.614 492.064 200.39 500.656 200.39 509.248C200.39 517.792 204.614 526.336 213.206 526.336ZM230.03 492.4V526H234.926V514.816H242.318C249.566 514.816 253.214 509.248 253.214 503.632C253.214 498.016 249.566 492.4 242.318 492.4H230.03ZM234.926 510.016V497.296H242.318C246.398 497.296 248.414 500.464 248.414 503.68C248.414 506.848 246.398 510.016 242.318 510.016H234.926Z" fill="#292929"/>
<path d="M258.933 374.537H234.133H211.4H188.667H165.933H139.067C137.924 374.537 137 375.463 137 376.604C137 377.744 137.924 378.67 139.067 378.67H258.933C260.076 378.67 261 377.744 261 376.604C261 375.463 260.076 374.537 258.933 374.537Z" fill="#E4E4E4"/>
<path d="M252.733 355.937H180.4C179.259 355.937 178.333 355.011 178.333 353.87V327.004C178.333 325.863 177.407 324.937 176.267 324.937H151.467C150.326 324.937 149.4 325.863 149.4 327.004V333.204C149.4 334.152 150.045 334.979 150.965 335.208L157.667 336.884V355.937H147.333C146.193 355.937 145.267 356.863 145.267 358.004V364.204C145.267 365.344 146.193 366.27 147.333 366.27H157.667C157.667 370.829 161.374 374.537 165.933 374.537C170.492 374.537 174.2 370.829 174.2 366.27H180.4C180.4 370.829 184.108 374.537 188.666 374.537C193.226 374.537 196.933 370.829 196.933 366.27H203.133C203.133 370.829 206.841 374.537 211.4 374.537C215.959 374.537 219.666 370.829 219.666 366.27H225.866C225.866 370.829 229.574 374.537 234.133 374.537C238.692 374.537 242.399 370.829 242.399 366.27H252.733C253.874 366.27 254.799 365.344 254.799 364.204V358.004C254.8 356.863 253.874 355.937 252.733 355.937Z" fill="#292929"/>
<path d="M246.533 331.137H236.2V327.003C236.2 324.288 234.435 322 231.999 321.163C232.125 320.775 232.257 320.388 232.315 319.962C232.617 317.726 231.897 315.56 230.403 313.986C231.027 311.865 230.976 309.189 229.502 307.066C228.787 306.037 227.264 304.527 224.354 304.217C224.689 300.889 223.395 297.667 220.684 295.369C217.354 292.55 212.82 291.746 208.738 293.079C208.356 292.156 207.796 291.401 207.058 290.827C206.167 290.132 205.09 289.733 203.801 289.624C204.293 286.415 203.596 283.254 201.761 280.642C199.314 277.162 195.296 275.197 190.733 275.337C185.833 275.337 180.952 277.991 178.585 281.94C176.887 284.782 176.636 288.02 177.835 291.213C172.902 295.33 172.385 300.852 174.212 304.76C176.074 308.749 180.749 311.954 187.261 310.849C188.111 312.543 189.718 314.101 191.781 315.133C194.633 316.559 197.861 316.79 200.901 315.852C201.211 317.789 202.185 319.184 203.129 320.12C206.804 323.763 213.731 324.201 219.075 323.069C220.439 324.139 222.25 324.844 224.128 325.109C223.932 325.708 223.8 326.338 223.8 327.004V331.137H213.012C211.902 328.707 208.864 327.004 205.2 327.004C201.535 327.004 198.497 328.707 197.388 331.137H184.533C183.392 331.137 182.467 332.063 182.467 333.204V351.804H246.533C250.067 351.804 252.733 347.362 252.733 341.47C252.733 335.578 250.067 331.137 246.533 331.137Z" fill="#292929"/>
<rect x="3" y="3" width="392" height="600" stroke="#292929" stroke-width="5"/>
</svg>
