<svg width="398" height="605" viewBox="0 0 398 605" fill="none" xmlns="http://www.w3.org/2000/svg">
<rect x="3" y="3" width="392" height="600" fill="white"/>
<path d="M54.1503 182.032L64.2303 159.6H60.5503L57.0943 167.664L55.6543 171.216L53.9903 167.632L50.0223 159.6H46.3742L53.7983 174.832L50.6302 182.032H54.1503ZM73.272 164.912L79.896 182H83.416L74.424 159.312H72.056L63.064 182H66.584L73.272 164.912ZM102.706 182V159.6H100.21L89.2977 175.376V159.6H86.0978V182H88.6578L99.4738 166.352V182H102.706ZM121.159 179.024V159.6H117.831V179.024H109.543V159.6H106.247V182H119.815V186.544H122.983V179.024H121.159ZM136.21 164.464L139.57 173.296H132.85L136.21 164.464ZM142.898 182H146.354L137.362 159.312H134.994L126.002 182H129.49L131.666 176.336H140.754L142.898 182ZM159.794 162.736L170.162 162.736V159.6L156.53 159.6V182H159.794V162.736ZM173.182 159.6V182H176.446V174.544L181.374 174.544C186.206 174.544 188.638 170.832 188.638 167.088C188.638 163.344 186.206 159.6 181.374 159.6H173.182ZM176.446 171.344V162.864H181.374C184.094 162.864 185.438 164.976 185.438 167.12C185.438 169.232 184.094 171.344 181.374 171.344L176.446 171.344ZM197.994 182.032L208.074 159.6H204.394L200.938 167.664L199.498 171.216L197.834 167.632L193.866 159.6H190.218L197.642 174.832L194.474 182.032H197.994ZM214.388 172.016H217.748C220.66 172.016 221.78 173.872 221.78 175.472C221.78 177.328 220.308 179.28 216.756 179.28C213.94 179.28 212.468 177.68 212.18 175.888L209.172 176.432C209.684 179.504 211.956 182.288 216.756 182.288C222.132 182.288 224.948 179.024 224.98 175.792C225.012 173.392 223.988 171.6 221.972 170.416C223.604 169.328 224.02 167.504 224.02 165.744C223.988 161.2 220.404 159.376 216.564 159.376C213.588 159.376 210.612 161.072 209.812 164.464L212.724 165.168C213.14 163.44 214.868 162.48 216.564 162.48C218.676 162.48 220.82 163.312 220.82 165.744C220.82 167.216 219.988 169.04 217.748 169.04H214.388V172.016ZM245.081 182V159.6H242.585L231.673 175.376V159.6H228.473V182H231.033L241.849 166.352V182H245.081ZM251.758 159.6H248.526V182H251.758V172.272H261.23V182H264.494V159.6H261.23V169.072H251.758V159.6ZM267.776 170.864C267.776 174.256 269.056 176.784 270.976 178.832C272.928 180.88 275.68 182.16 278.72 182.16C283.936 182.16 288.032 178.704 289.312 173.616H286.144C284.992 177.008 282.112 178.96 278.72 178.96C276.576 178.96 274.624 178.032 273.216 176.56C271.808 175.088 270.911 173.392 270.911 170.864C270.911 166.832 273.728 162.576 278.72 162.576C282.016 162.576 284.767 164.272 285.952 167.632H289.152C287.872 162.576 283.84 159.376 278.72 159.376C272.768 159.376 267.776 164.336 267.776 170.864ZM292.151 159.6V182H295.415V159.6H292.151ZM296.023 171.632L304.567 182H308.791L299.351 170.736L307.895 159.6H303.927L296.023 170V171.632ZM327.831 182V159.6H325.335L314.423 175.376V159.6H311.223V182H313.783L324.599 166.352V182H327.831ZM348.268 182V159.6H345.772L334.86 175.376V159.6H331.66V182H334.22L345.036 166.352V182H348.268ZM335.916 155.312V158.128H344.78V155.312H335.916ZM167.699 200.672H173.811C177.331 200.672 177.267 206.528 173.747 206.528H167.699V200.672ZM164.499 197.6V220H174.611C178.899 220 181.107 216.608 181.107 213.248C181.107 211.136 180.147 208.768 177.587 207.68C181.843 204.512 179.123 197.6 173.811 197.6H164.499ZM167.699 209.728H174.611C176.787 209.728 177.875 211.52 177.875 213.28C177.875 215.04 176.787 216.864 174.611 216.864H167.699V209.728ZM192.46 202.464L195.82 211.296L189.1 211.296L192.46 202.464ZM199.148 220H202.604L193.612 197.312H191.244L182.252 220H185.74L187.916 214.336L197.004 214.336L199.148 220ZM214.491 202.912L221.115 220H224.635L215.643 197.312H213.275L204.283 220H207.803L214.491 202.912Z" fill="#292929"/>
<path d="M148.68 503.008C149.256 499.264 151.416 496.576 155.544 496.576C163.368 496.576 164.664 504.544 159.384 508.336H159.432L143.64 522.256V526H167.208V521.344H151.8L162.648 512.032C171.72 505.696 168.264 491.728 155.544 491.728C148.536 491.728 144.696 496.624 143.832 502.624L148.68 503.008ZM183.389 507.76C188.381 507.76 190.781 511.12 190.781 514.48C190.781 517.84 188.381 521.104 183.389 521.104C178.445 521.104 175.997 517.84 175.997 514.48C175.997 511.12 178.445 507.76 183.389 507.76ZM173.213 507.76C171.917 509.728 171.149 512.128 171.149 514.48C171.149 520.24 175.277 526 183.389 526C191.549 526 195.629 520.24 195.629 514.48C195.629 510.592 193.757 506.656 190.061 504.544C187.709 503.248 184.397 503.104 181.901 503.968L190.109 492.4H184.157L173.213 507.76ZM212.229 496.864C217.653 496.864 220.101 502.576 220.101 509.248C220.101 515.584 217.653 521.584 212.229 521.584C206.805 521.584 204.453 515.584 204.453 509.248C204.453 502.576 206.805 496.864 212.229 496.864ZM212.229 526.336C220.773 526.336 225.093 517.792 225.093 509.248C225.093 500.656 220.773 492.064 212.229 492.064C203.637 492.064 199.413 500.656 199.413 509.248C199.413 517.792 203.637 526.336 212.229 526.336ZM229.054 492.4V526H233.95V514.816H241.342C248.59 514.816 252.238 509.248 252.238 503.632C252.238 498.016 248.59 492.4 241.342 492.4H229.054ZM233.95 510.016V497.296H241.342C245.422 497.296 247.438 500.464 247.438 503.68C247.438 506.848 245.422 510.016 241.342 510.016H233.95Z" fill="#292929"/>
<g clip-path="url(#clip0_8_48635)">
<path d="M259.031 321.05L201.681 266.077C200.184 264.64 197.816 264.64 196.319 266.077L138.912 321.106C137.697 322.321 137 323.995 137 325.705C137 329.265 139.899 332.164 143.459 332.164H152.5V378.664C152.5 384.372 157.124 388.996 162.834 388.996H235.166C240.876 388.996 245.5 384.372 245.5 378.664V332.164H254.541C258.101 332.164 261 329.265 261 325.705C261 323.995 260.303 322.321 259.031 321.05Z" fill="#F7D185"/>
</g>
<rect x="3" y="3" width="392" height="600" stroke="#292929" stroke-width="5"/>
<defs>
<clipPath id="clip0_8_48635">
<rect width="124" height="124" fill="white" transform="translate(137 265)"/>
</clipPath>
</defs>
</svg>
