<svg width="398" height="605" viewBox="0 0 398 605" fill="none" xmlns="http://www.w3.org/2000/svg">
<rect x="3" y="3" width="392" height="600" fill="white"/>
<path d="M36.7114 159.6H33.4794V182H36.7114V172.272H46.1834V182H49.4474V159.6H46.1834V169.072H36.7114V159.6ZM72.2486 170.8C72.2486 173.104 71.3206 175.12 69.8806 176.592C68.3766 178.096 66.2966 179.024 64.0886 179.024C61.8806 179.024 59.8326 178.096 58.3606 176.592C56.8886 175.12 55.9606 173.072 55.9606 170.8C55.9606 168.528 56.8886 166.48 58.3606 165.008C59.8326 163.504 61.8806 162.576 64.0886 162.576C66.2966 162.576 68.3766 163.504 69.8806 165.008C71.3206 166.48 72.2486 168.496 72.2486 170.8ZM52.6966 170.8C52.6966 173.968 54.0086 176.816 56.0246 178.896C58.0726 181.008 60.9526 182.288 64.0886 182.288C67.2566 182.288 70.1046 181.008 72.1846 178.896C74.2006 176.816 75.5126 173.968 75.5126 170.8C75.5126 167.632 74.2006 164.784 72.1846 162.704C70.1046 160.624 67.2566 159.312 64.0886 159.312C60.9526 159.312 58.0726 160.624 56.0246 162.704C54.0086 164.784 52.6966 167.632 52.6966 170.8ZM82.1519 162.672H88.2639C91.7839 162.672 91.7199 168.528 88.1999 168.528H82.1519V162.672ZM78.9519 159.6V182H89.0639C93.3519 182 95.5599 178.608 95.5599 175.248C95.5599 173.136 94.5999 170.768 92.0399 169.68C96.2959 166.512 93.5759 159.6 88.2639 159.6H78.9519ZM82.1519 171.728H89.0639C91.2399 171.728 92.3279 173.52 92.3279 175.28C92.3279 177.04 91.2399 178.864 89.0639 178.864H82.1519V171.728ZM115.44 182V159.6H112.944L102.032 175.376V159.6H98.8321V182H101.392L112.208 166.352V182H115.44ZM122.118 159.6H118.886V182H122.118V172.272H131.59V182H134.854V159.6H131.59V169.072H122.118V159.6ZM138.135 170.864C138.135 174.256 139.415 176.784 141.335 178.832C143.287 180.88 146.039 182.16 149.079 182.16C154.295 182.16 158.391 178.704 159.671 173.616H156.503C155.351 177.008 152.471 178.96 149.079 178.96C146.935 178.96 144.983 178.032 143.575 176.56C142.167 175.088 141.271 173.392 141.271 170.864C141.271 166.832 144.087 162.576 149.079 162.576C152.375 162.576 155.127 164.272 156.311 167.632H159.511C158.231 162.576 154.199 159.376 149.079 159.376C143.127 159.376 138.135 164.336 138.135 170.864ZM162.511 159.6V182L165.775 182V159.6H162.511ZM166.383 171.632L174.927 182H179.151L169.711 170.736L178.255 159.6H174.287L166.383 170V171.632ZM198.19 182V159.6H195.694L184.782 175.376V159.6H181.582V182H184.142L194.958 166.352V182H198.19ZM218.628 182V159.6H216.132L205.22 175.376V159.6H202.02V182H204.58L215.396 166.352V182H218.628ZM206.276 155.312V158.128H215.14V155.312H206.276ZM245.05 159.6H230.202V182H240.314C244.602 182 246.81 178.608 246.81 175.248C246.81 171.664 244.346 168.528 240.314 168.528H233.402V162.736H245.05V159.6ZM233.402 171.632H240.314C242.49 171.632 243.578 173.52 243.578 175.28C243.578 177.04 242.49 178.864 240.314 178.864H233.402V171.632ZM255.635 182.032L265.715 159.6H262.035L258.579 167.664L257.139 171.216L255.475 167.632L251.507 159.6H247.859L255.283 174.832L252.115 182.032H255.635ZM274.756 164.912L281.38 182H284.9L275.908 159.312H273.54L264.548 182H268.068L274.756 164.912ZM296.046 182C300.878 182 303.31 178.256 303.31 174.512C303.31 170.768 300.878 167.056 296.046 167.056H291.118V159.6H287.854V182H296.046ZM296.046 170.256C298.766 170.256 300.11 172.368 300.11 174.48C300.11 176.624 298.766 178.8 296.046 178.8H291.118V170.256H296.046ZM309.027 162.672H315.139C318.659 162.672 318.595 168.528 315.075 168.528H309.027V162.672ZM305.827 159.6V182H315.939C320.227 182 322.435 178.608 322.435 175.248C322.435 173.136 321.475 170.768 318.915 169.68C323.171 166.512 320.451 159.6 315.139 159.6H305.827ZM309.027 171.728H315.939C318.115 171.728 319.203 173.52 319.203 175.28C319.203 177.04 318.115 178.864 315.939 178.864H309.027V171.728ZM333.788 164.464L337.148 173.296H330.428L333.788 164.464ZM340.476 182H343.932L334.94 159.312H332.572L323.58 182H327.068L329.244 176.336H338.332L340.476 182ZM346.572 159.6V182H349.836V174.544H354.764C359.596 174.544 362.028 170.832 362.028 167.088C362.028 163.344 359.596 159.6 354.764 159.6H346.572ZM349.836 171.344V162.864H354.764C357.484 162.864 358.828 164.976 358.828 167.12C358.828 169.232 357.484 171.344 354.764 171.344H349.836Z" fill="#292929"/>
<path d="M148.68 503.008C149.256 499.264 151.416 496.576 155.544 496.576C163.368 496.576 164.664 504.544 159.384 508.336H159.432L143.64 522.256V526H167.208V521.344H151.8L162.648 512.032C171.72 505.696 168.264 491.728 155.544 491.728C148.536 491.728 144.696 496.624 143.832 502.624L148.68 503.008ZM183.389 507.76C188.381 507.76 190.781 511.12 190.781 514.48C190.781 517.84 188.381 521.104 183.389 521.104C178.445 521.104 175.997 517.84 175.997 514.48C175.997 511.12 178.445 507.76 183.389 507.76ZM173.213 507.76C171.917 509.728 171.149 512.128 171.149 514.48C171.149 520.24 175.277 526 183.389 526C191.549 526 195.629 520.24 195.629 514.48C195.629 510.592 193.757 506.656 190.061 504.544C187.709 503.248 184.397 503.104 181.901 503.968L190.109 492.4H184.157L173.213 507.76ZM212.229 496.864C217.653 496.864 220.101 502.576 220.101 509.248C220.101 515.584 217.653 521.584 212.229 521.584C206.805 521.584 204.453 515.584 204.453 509.248C204.453 502.576 206.805 496.864 212.229 496.864ZM212.229 526.336C220.773 526.336 225.093 517.792 225.093 509.248C225.093 500.656 220.773 492.064 212.229 492.064C203.637 492.064 199.413 500.656 199.413 509.248C199.413 517.792 203.637 526.336 212.229 526.336ZM229.054 492.4V526H233.95V514.816H241.342C248.59 514.816 252.238 509.248 252.238 503.632C252.238 498.016 248.59 492.4 241.342 492.4H229.054ZM233.95 510.016V497.296H241.342C245.422 497.296 247.438 500.464 247.438 503.68C247.438 506.848 245.422 510.016 241.342 510.016H233.95Z" fill="#292929"/>
<g clip-path="url(#clip0_8_48634)">
<path d="M259.031 321.05L201.681 266.077C200.184 264.64 197.816 264.64 196.319 266.077L138.912 321.106C137.697 322.321 137 323.995 137 325.705C137 329.265 139.899 332.164 143.459 332.164H152.5V378.664C152.5 384.372 157.124 388.996 162.834 388.996H235.166C240.876 388.996 245.5 384.372 245.5 378.664V332.164H254.541C258.101 332.164 261 329.265 261 325.705C261 323.995 260.303 322.321 259.031 321.05Z" fill="#F7D185"/>
</g>
<rect x="3" y="3" width="392" height="600" stroke="#292929" stroke-width="5"/>
<defs>
<clipPath id="clip0_8_48634">
<rect width="124" height="124" fill="white" transform="translate(137 265)"/>
</clipPath>
</defs>
</svg>
