<svg width="398" height="605" viewBox="0 0 398 605" fill="none" xmlns="http://www.w3.org/2000/svg">
<g clip-path="url(#clip0_8_48633)">
<rect x="3" y="3" width="392" height="600" fill="white"/>
<rect x="3" y="3" width="392" height="100" fill="white"/>
<path d="M90.6675 162.672H96.7795C100.3 162.672 100.236 168.528 96.7155 168.528H90.6675V162.672ZM87.4675 159.6V182H97.5795C101.868 182 104.076 178.608 104.076 175.248C104.076 173.136 103.116 170.768 100.556 169.68C104.812 166.512 102.092 159.6 96.7795 159.6H87.4675ZM90.6675 171.728H97.5795C99.7555 171.728 100.844 173.52 100.844 175.28C100.844 177.04 99.7555 178.864 97.5795 178.864H90.6675V171.728ZM126.452 170.8C126.452 173.104 125.524 175.12 124.084 176.592C122.58 178.096 120.5 179.024 118.292 179.024C116.084 179.024 114.036 178.096 112.564 176.592C111.092 175.12 110.164 173.072 110.164 170.8C110.164 168.528 111.092 166.48 112.564 165.008C114.036 163.504 116.084 162.576 118.292 162.576C120.5 162.576 122.58 163.504 124.084 165.008C125.524 166.48 126.452 168.496 126.452 170.8ZM106.9 170.8C106.9 173.968 108.212 176.816 110.228 178.896C112.276 181.008 115.156 182.288 118.292 182.288C121.46 182.288 124.308 181.008 126.388 178.896C128.404 176.816 129.716 173.968 129.716 170.8C129.716 167.632 128.404 164.784 126.388 162.704C124.308 160.624 121.46 159.312 118.292 159.312C115.156 159.312 112.276 160.624 110.228 162.704C108.212 164.784 106.9 167.632 106.9 170.8ZM149.339 178.832V159.6H136.027L135.163 172.784C134.971 174.832 134.523 177.712 133.243 179.056L131.451 179.408V185.584H134.683V182H147.995V185.584H151.163V178.832H149.339ZM136.891 178.832C138.331 176.88 138.459 174.16 138.619 170.672L139.099 162.704H146.011V178.832H136.891ZM172.889 170.8C172.889 173.104 171.961 175.12 170.521 176.592C169.017 178.096 166.937 179.024 164.729 179.024C162.521 179.024 160.473 178.096 159.001 176.592C157.529 175.12 156.601 173.072 156.601 170.8C156.601 168.528 157.529 166.48 159.001 165.008C160.473 163.504 162.521 162.576 164.729 162.576C166.937 162.576 169.017 163.504 170.521 165.008C171.961 166.48 172.889 168.496 172.889 170.8ZM153.337 170.8C153.337 173.968 154.649 176.816 156.665 178.896C158.713 181.008 161.593 182.288 164.729 182.288C167.897 182.288 170.745 181.008 172.825 178.896C174.841 176.816 176.153 173.968 176.153 170.8C176.153 167.632 174.841 164.784 172.825 162.704C170.745 160.624 167.897 159.312 164.729 159.312C161.593 159.312 158.713 160.624 156.665 162.704C154.649 164.784 153.337 167.632 153.337 170.8ZM180.058 159.6V182H183.322V162.768H192.73V182H196.026V159.6H180.058ZM199.932 159.6V182H203.196V174.544H208.124C212.956 174.544 215.388 170.832 215.388 167.088C215.388 163.344 212.956 159.6 208.124 159.6L199.932 159.6ZM203.196 171.344V162.864L208.124 162.864C210.844 162.864 212.188 164.976 212.188 167.12C212.188 169.232 210.844 171.344 208.124 171.344H203.196ZM237.608 170.8C237.608 173.104 236.68 175.12 235.24 176.592C233.736 178.096 231.656 179.024 229.448 179.024C227.24 179.024 225.192 178.096 223.72 176.592C222.248 175.12 221.32 173.072 221.32 170.8C221.32 168.528 222.248 166.48 223.72 165.008C225.192 163.504 227.24 162.576 229.448 162.576C231.656 162.576 233.736 163.504 235.24 165.008C236.68 166.48 237.608 168.496 237.608 170.8ZM218.056 170.8C218.056 173.968 219.368 176.816 221.384 178.896C223.432 181.008 226.312 182.288 229.448 182.288C232.616 182.288 235.464 181.008 237.544 178.896C239.56 176.816 240.872 173.968 240.872 170.8C240.872 167.632 239.56 164.784 237.544 162.704C235.464 160.624 232.616 159.312 229.448 159.312C226.312 159.312 223.432 160.624 221.384 162.704C219.368 164.784 218.056 167.632 218.056 170.8ZM247.511 162.672H253.623C257.143 162.672 257.079 168.528 253.559 168.528H247.511V162.672ZM244.311 159.6V182H254.423C258.711 182 260.919 178.608 260.919 175.248C260.919 173.136 259.959 170.768 257.399 169.68C261.655 166.512 258.935 159.6 253.623 159.6H244.311ZM247.511 171.728H254.423C256.599 171.728 257.687 173.52 257.687 175.28C257.687 177.04 256.599 178.864 254.423 178.864H247.511V171.728ZM283.296 170.8C283.296 173.104 282.368 175.12 280.928 176.592C279.424 178.096 277.344 179.024 275.136 179.024C272.928 179.024 270.88 178.096 269.408 176.592C267.936 175.12 267.008 173.072 267.008 170.8C267.008 168.528 267.936 166.48 269.408 165.008C270.88 163.504 272.928 162.576 275.136 162.576C277.344 162.576 279.424 163.504 280.928 165.008C282.368 166.48 283.296 168.496 283.296 170.8ZM263.743 170.8C263.743 173.968 265.056 176.816 267.072 178.896C269.12 181.008 272 182.288 275.136 182.288C278.304 182.288 281.152 181.008 283.232 178.896C285.248 176.816 286.56 173.968 286.56 170.8C286.56 167.632 285.248 164.784 283.232 162.704C281.152 160.624 278.304 159.312 275.136 159.312C272 159.312 269.12 160.624 267.072 162.704C265.056 164.784 263.743 167.632 263.743 170.8ZM306.183 178.832V159.6H292.871L292.007 172.784C291.815 174.832 291.367 177.712 290.087 179.056L288.295 179.408V185.584H291.527V182H304.839V185.584H308.007V178.832H306.183ZM293.735 178.832C295.175 176.88 295.303 174.16 295.463 170.672L295.943 162.704H302.855V178.832H293.735Z" fill="#292929"/>
<path d="M148.422 503.008C148.998 499.264 151.158 496.576 155.286 496.576C163.11 496.576 164.406 504.544 159.126 508.336H159.174L143.382 522.256V526H166.95V521.344H151.542L162.39 512.032C171.462 505.696 168.006 491.728 155.286 491.728C148.278 491.728 144.438 496.624 143.574 502.624L148.422 503.008ZM172.066 518.368C174.034 523.36 177.922 526 183.538 526C191.698 526 195.874 520.144 195.826 514.288C195.778 509.92 193.426 505.792 188.77 503.872C185.074 502.384 181.09 502.48 177.394 503.68V496.96H193.906V492.256H172.498V508.24L175.234 509.488C179.218 507.136 183.058 506.752 187.042 508.384C189.586 509.488 190.93 511.936 190.93 514.288C190.978 517.744 188.53 521.104 183.538 521.104C180.226 521.104 177.874 519.28 176.53 516.544L172.066 518.368ZM212.487 496.864C217.911 496.864 220.359 502.576 220.359 509.248C220.359 515.584 217.911 521.584 212.487 521.584C207.063 521.584 204.711 515.584 204.711 509.248C204.711 502.576 207.063 496.864 212.487 496.864ZM212.487 526.336C221.031 526.336 225.351 517.792 225.351 509.248C225.351 500.656 221.031 492.064 212.487 492.064C203.895 492.064 199.671 500.656 199.671 509.248C199.671 517.792 203.895 526.336 212.487 526.336ZM229.312 492.4V526H234.208V514.816H241.6C248.848 514.816 252.496 509.248 252.496 503.632C252.496 498.016 248.848 492.4 241.6 492.4H229.312ZM234.208 510.016V497.296H241.6C245.68 497.296 247.696 500.464 247.696 503.68C247.696 506.848 245.68 510.016 241.6 510.016H234.208Z" fill="#292929"/>
<g clip-path="url(#clip1_8_48633)">
<path d="M248.739 356.136C245.314 351.494 239.118 344.796 239.118 344.796C239.118 344.796 232.921 351.494 229.497 356.137C224.518 362.884 222.098 368.067 222.098 371.98C222.098 381.365 229.733 389 239.118 389C248.502 389 256.137 381.365 256.137 371.98C256.137 368.067 253.717 362.884 248.739 356.136Z" fill="#91C6CB"/>
<path d="M218.335 301.355L217.105 301.368C215.519 301.385 214.029 300.781 212.903 299.667C211.777 298.553 211.157 297.067 211.157 295.483V283.235H200.216V275.941H218.451V268.647H200.216V265H192.921V268.647H174.686V275.941H192.921V283.235H181.98V294.581C181.98 298.38 178.89 301.471 175.091 301.471H165.865C166.066 302.543 166.176 303.647 166.176 304.777V323.694C166.176 324.823 166.066 325.928 165.865 327H218.451C222.473 327 225.745 330.272 225.745 334.294V337.941H251.274V334.294C251.274 316.132 236.498 301.355 218.335 301.355Z" fill="#292929"/>
<path d="M148.282 294.176H141.863V334.294H148.282C154.127 334.294 158.882 329.538 158.882 323.693V304.777C158.882 298.932 154.127 294.176 148.282 294.176Z" fill="#292929"/>
</g>
</g>
<rect x="3" y="3" width="392" height="600" stroke="#292929" stroke-width="5"/>
<defs>
<clipPath id="clip0_8_48633">
<rect x="3" y="3" width="392" height="600" fill="white"/>
</clipPath>
<clipPath id="clip1_8_48633">
<rect width="124" height="124" fill="white" transform="translate(137 265)"/>
</clipPath>
</defs>
</svg>
