<svg width="398" height="605" viewBox="0 0 398 605" fill="none" xmlns="http://www.w3.org/2000/svg">
<rect x="3" y="3" width="392" height="600" fill="white"/>
<path d="M92.2443 170.864C92.2443 174.256 93.5243 176.784 95.4443 178.832C97.3963 180.88 100.148 182.16 103.188 182.16C108.404 182.16 112.5 178.704 113.78 173.616H110.612C109.46 177.008 106.58 178.96 103.188 178.96C101.044 178.96 99.0923 178.032 97.6843 176.56C96.2763 175.088 95.3802 173.392 95.3802 170.864C95.3802 166.832 98.1963 162.576 103.188 162.576C106.484 162.576 109.236 164.272 110.42 167.632H113.62C112.34 162.576 108.308 159.376 103.188 159.376C97.2363 159.376 92.2443 164.336 92.2443 170.864ZM119.98 166.224L125.836 174.928H127.66L133.516 166.224V182H136.716V159.6H134.156L126.764 170.48L119.372 159.6H116.748V182H119.98V166.224ZM159.764 170.8C159.764 173.104 158.836 175.12 157.396 176.592C155.892 178.096 153.812 179.024 151.604 179.024C149.396 179.024 147.348 178.096 145.876 176.592C144.404 175.12 143.476 173.072 143.476 170.8C143.476 168.528 144.404 166.48 145.876 165.008C147.348 163.504 149.396 162.576 151.604 162.576C153.812 162.576 155.892 163.504 157.396 165.008C158.836 166.48 159.764 168.496 159.764 170.8ZM140.212 170.8C140.212 173.968 141.524 176.816 143.54 178.896C145.588 181.008 148.468 182.288 151.604 182.288C154.772 182.288 157.62 181.008 159.7 178.896C161.716 176.816 163.028 173.968 163.028 170.8C163.028 167.632 161.716 164.784 159.7 162.704C157.62 160.624 154.772 159.312 151.604 159.312C148.468 159.312 145.588 160.624 143.54 162.704C141.524 164.784 140.212 167.632 140.212 170.8ZM174.428 164.912L181.052 182H184.572L175.58 159.312H173.212L164.22 182H167.74L174.428 164.912ZM190.294 172.4H200.438V169.136H190.294V162.832H200.662V159.6H187.03V182H200.694V178.768H190.294V172.4ZM206.946 159.6H203.714V182H206.946V172.272H216.418V182H219.682V159.6H216.418V169.072L206.946 169.072V159.6ZM222.963 170.864C222.963 174.256 224.243 176.784 226.163 178.832C228.115 180.88 230.867 182.16 233.907 182.16C239.123 182.16 243.219 178.704 244.499 173.616H241.331C240.179 177.008 237.299 178.96 233.907 178.96C231.763 178.96 229.811 178.032 228.403 176.56C226.995 175.088 226.099 173.392 226.099 170.864C226.099 166.832 228.915 162.576 233.907 162.576C237.203 162.576 239.955 164.272 241.139 167.632H244.339C243.059 162.576 239.027 159.376 233.907 159.376C227.955 159.376 222.963 164.336 222.963 170.864ZM247.339 159.6V182H250.603V159.6H247.339ZM251.211 171.632L259.755 182H263.979L254.539 170.736L263.083 159.6H259.115L251.211 170V171.632ZM275.178 164.464L278.538 173.296H271.818L275.178 164.464ZM281.866 182H285.322L276.33 159.312H273.962L264.97 182H268.458L270.634 176.336H279.722L281.866 182ZM299.226 170.64H295.45C292.73 170.64 291.386 168.688 291.386 166.736C291.386 164.816 292.73 162.864 295.45 162.864H300.41V182H303.61V159.6H295.45C290.586 159.6 288.154 163.184 288.154 166.736C288.154 169.904 290.106 172.912 293.946 173.584L286.873 182H291.066L299.226 172.176V170.64ZM119.995 197.6V220H123.259V200.768H132.667V220H135.963V197.6H119.995ZM148.428 202.912L155.052 220H158.572L149.58 197.312H147.212L138.22 220H141.74L148.428 202.912ZM179.327 208.8C179.327 211.104 178.399 213.12 176.959 214.592C175.455 216.096 173.375 217.024 171.167 217.024C168.959 217.024 166.911 216.096 165.439 214.592C163.967 213.12 163.039 211.072 163.039 208.8C163.039 206.528 163.967 204.48 165.439 203.008C166.911 201.504 168.959 200.576 171.167 200.576C173.375 200.576 175.455 201.504 176.959 203.008C178.399 204.48 179.327 206.496 179.327 208.8ZM159.775 208.8C159.775 211.968 161.087 214.816 163.103 216.896C165.151 219.008 168.031 220.288 171.167 220.288C174.335 220.288 177.183 219.008 179.263 216.896C181.279 214.816 182.591 211.968 182.591 208.8C182.591 205.632 181.279 202.784 179.263 200.704C177.183 198.624 174.335 197.312 171.167 197.312C168.031 197.312 165.151 198.624 163.103 200.704C161.087 202.784 159.775 205.632 159.775 208.8ZM185.934 197.6V220H209.646V224.544H212.942V217.056H210.99V197.6H207.566V217.056H200.142V197.6H196.718V217.056H189.326V197.6H185.934ZM225.866 202.464L229.226 211.296H222.506L225.866 202.464ZM232.554 220H236.01L227.018 197.312H224.65L215.658 220H219.146L221.322 214.336H230.41L232.554 220ZM256.089 216.832V197.6H242.777L241.913 210.784C241.721 212.832 241.273 215.712 239.993 217.056L238.201 217.408V223.584H241.433V220H254.745V223.584H257.913V216.832H256.089ZM243.641 216.832C245.081 214.88 245.209 212.16 245.369 208.672L245.849 200.704H252.761V216.832H243.641ZM268.999 220C273.831 220 276.263 216.256 276.263 212.512C276.263 208.768 273.831 205.056 268.999 205.056H264.071V197.6H260.807V220L268.999 220ZM268.999 208.256C271.719 208.256 273.063 210.368 273.063 212.48C273.063 214.624 271.719 216.8 268.999 216.8H264.071V208.256H268.999Z" fill="#292929"/>
<path d="M148.656 503.008C149.232 499.264 151.392 496.576 155.52 496.576C163.344 496.576 164.64 504.544 159.36 508.336H159.408L143.616 522.256V526H167.184V521.344H151.776L162.624 512.032C171.696 505.696 168.24 491.728 155.52 491.728C148.512 491.728 144.672 496.624 143.808 502.624L148.656 503.008ZM183.221 521.968C178.373 521.968 175.925 518.992 175.925 516.4C175.925 513.76 178.373 510.928 183.221 510.928C188.165 510.928 190.565 513.76 190.565 516.4C190.565 518.992 188.165 521.968 183.221 521.968ZM183.221 496.144C186.053 496.144 189.173 497.968 189.173 501.184C189.173 503.536 187.253 506.464 183.221 506.464C179.237 506.464 177.317 503.536 177.317 501.232C177.317 498.016 180.389 496.144 183.221 496.144ZM193.973 501.328C193.973 496.576 190.373 491.872 183.221 491.872C178.085 491.872 172.565 494.896 172.517 501.28C172.517 503.248 173.285 506.944 176.933 508.432C173.141 510.064 171.125 513.376 171.125 516.352C171.125 521.68 175.205 526.48 183.221 526.48C191.333 526.48 195.413 521.392 195.413 516.352C195.413 513.328 193.637 509.92 189.749 508.432C192.485 507.184 193.973 503.776 193.973 501.328ZM212.253 496.864C217.677 496.864 220.125 502.576 220.125 509.248C220.125 515.584 217.677 521.584 212.253 521.584C206.829 521.584 204.477 515.584 204.477 509.248C204.477 502.576 206.829 496.864 212.253 496.864ZM212.253 526.336C220.797 526.336 225.117 517.792 225.117 509.248C225.117 500.656 220.797 492.064 212.253 492.064C203.661 492.064 199.437 500.656 199.437 509.248C199.437 517.792 203.661 526.336 212.253 526.336ZM229.077 492.4V526H233.973V514.816H241.365C248.613 514.816 252.261 509.248 252.261 503.632C252.261 498.016 248.613 492.4 241.365 492.4H229.077ZM233.973 510.016V497.296H241.365C245.445 497.296 247.461 500.464 247.461 503.68C247.461 506.848 245.445 510.016 241.365 510.016H233.973Z" fill="#292929"/>
<g clip-path="url(#clip0_8_48632)">
<path d="M259.031 321.05L201.681 266.077C200.184 264.64 197.816 264.64 196.319 266.077L138.912 321.106C137.697 322.321 137 323.995 137 325.705C137 329.265 139.899 332.164 143.459 332.164H152.5V378.664C152.5 384.372 157.124 388.996 162.834 388.996H235.166C240.876 388.996 245.5 384.372 245.5 378.664V332.164H254.541C258.101 332.164 261 329.265 261 325.705C261 323.995 260.303 322.321 259.031 321.05Z" fill="#F7D185"/>
</g>
<rect x="3" y="3" width="392" height="600" stroke="#292929" stroke-width="5"/>
<defs>
<clipPath id="clip0_8_48632">
<rect width="124" height="124" fill="white" transform="translate(137 265)"/>
</clipPath>
</defs>
</svg>
