<svg width="605" height="398" viewBox="0 0 605 398" fill="none" xmlns="http://www.w3.org/2000/svg">
<g clip-path="url(#clip0_8_48650)">
<rect x="602" y="2.99951" width="392" height="600" transform="rotate(90 602 2.99951)" fill="white"/>
<path d="M422.968 86.8529L445.4 96.9329L445.4 93.2529L437.336 89.7969L433.784 88.3569L437.368 86.6929L445.4 82.7249L445.4 79.0769L430.168 86.5009L422.968 83.3329L422.968 86.8529ZM440.088 105.975L423 112.599L423 116.119L445.688 107.127L445.688 104.759L423 95.7666L423 99.2866L440.088 105.975ZM423 135.408L445.4 135.408L445.4 132.912L429.624 122L445.4 122L445.4 118.8L423 118.8L423 121.36L438.648 132.176L423 132.176L423 135.408ZM425.976 153.862L445.4 153.862L445.4 150.534L425.976 150.534L425.976 142.246L445.4 142.246L445.4 138.95L423 138.95L423 152.518L418.456 152.518L418.456 155.686L425.976 155.686L425.976 153.862ZM440.536 168.912L431.704 172.272L431.704 165.552L440.536 168.912ZM423 175.6L423 179.056L445.688 170.064L445.688 167.696L423 158.704L423 162.192L428.664 164.368L428.664 173.456L423 175.6ZM445.4 189.137L423 189.137L423 212.849L418.456 212.849L418.456 216.145L425.944 216.145L425.944 214.193L445.4 214.193L445.4 210.769L425.944 210.769L425.944 203.345L445.4 203.345L445.4 199.921L425.944 199.921L425.944 192.529L445.4 192.529L445.4 189.137ZM422.968 225.509L445.4 235.589L445.4 231.909L437.336 228.453L433.784 227.013L437.368 225.349L445.4 221.381L445.4 217.733L430.168 225.157L422.968 221.989L422.968 225.509ZM434.136 236.478C430.744 236.478 428.216 237.758 426.168 239.678C424.12 241.63 422.84 244.382 422.84 247.422C422.84 252.638 426.296 256.734 431.384 258.014L431.384 254.846C427.992 253.694 426.04 250.814 426.04 247.422C426.04 245.278 426.968 243.326 428.44 241.918C429.912 240.51 431.608 239.614 434.136 239.614C438.168 239.614 442.424 242.43 442.424 247.422C442.424 250.718 440.728 253.47 437.368 254.654L437.368 257.854C442.424 256.574 445.624 252.542 445.624 247.422C445.624 241.47 440.664 236.478 434.136 236.478ZM432.6 264.278L432.6 274.422L435.864 274.422L435.864 264.278L442.168 264.278L442.168 274.646L445.4 274.646L445.4 261.014L423 261.014L423 274.678L426.232 274.678L426.232 264.278L432.6 264.278ZM442.328 281.058L442.328 287.17C442.328 290.69 436.472 290.626 436.472 287.106L436.472 281.058L442.328 281.058ZM445.4 277.858L423 277.858L423 287.97C423 292.258 426.392 294.466 429.752 294.466C431.864 294.466 434.232 293.506 435.32 290.946C438.488 295.202 445.4 292.482 445.4 287.17L445.4 277.858ZM433.272 281.058L433.272 287.97C433.272 290.146 431.48 291.234 429.72 291.234C427.96 291.234 426.136 290.146 426.136 287.97L426.136 281.058L433.272 281.058ZM440.536 305.818L431.704 309.178L431.704 302.458L440.536 305.818ZM423 312.506L423 315.962L445.688 306.97L445.688 304.602L423 295.61L423 299.098L428.664 301.274L428.664 310.362L423 312.506Z" fill="#292929"/>
<path d="M93.976 150.047L93.976 155.087C93.976 159.455 91.192 161.183 88.792 161.183C86.008 161.183 83.08 158.927 83.08 153.599C83.08 149.375 85.48 147.167 88.168 146.735L87.352 142.223C82.744 142.991 78.568 146.399 78.568 153.599C78.568 161.663 83.464 165.695 88.312 165.743C91.624 165.791 94.6 164.447 96.376 161.423C98.008 163.871 100.744 164.495 103.384 164.495C110.2 164.447 112.888 158.735 112.888 153.311C112.888 148.847 110.392 144.383 105.304 143.183L104.248 147.551C106.84 148.175 108.28 150.767 108.28 153.311C108.28 156.479 107.032 159.695 103.384 159.695C101.176 159.695 98.392 158.447 98.392 155.087L98.392 150.047L93.976 150.047ZM108.136 183.119C108.136 188.543 102.424 190.991 95.752 190.991C89.416 190.991 83.416 188.543 83.416 183.119C83.416 177.695 89.416 175.343 95.752 175.343C102.424 175.343 108.136 177.695 108.136 183.119ZM78.664 183.119C78.664 191.663 87.208 195.983 95.752 195.983C104.344 195.983 112.936 191.663 112.936 183.119C112.936 174.527 104.344 170.303 95.752 170.303C87.208 170.303 78.664 174.527 78.664 183.119ZM108.136 213.213C108.136 218.637 102.424 221.085 95.752 221.085C89.416 221.085 83.416 218.637 83.416 213.213C83.416 207.789 89.416 205.437 95.752 205.437C102.424 205.437 108.136 207.789 108.136 213.213ZM78.664 213.213C78.664 221.757 87.208 226.077 95.752 226.077C104.344 226.077 112.936 221.757 112.936 213.213C112.936 204.621 104.344 200.397 95.752 200.397C87.208 200.397 78.664 204.621 78.664 213.213ZM112.6 230.038L79 230.038L79 234.934L90.184 234.934L90.184 242.326C90.184 249.574 95.752 253.222 101.368 253.222C106.984 253.222 112.6 249.574 112.6 242.326L112.6 230.038ZM94.984 234.934L107.704 234.934L107.704 242.326C107.704 246.406 104.536 248.422 101.32 248.422C98.152 248.422 94.984 246.406 94.984 242.326L94.984 234.934Z" fill="#292929"/>
<g clip-path="url(#clip1_8_48650)">
<path d="M283.95 259.031L338.923 201.681C340.36 200.183 340.36 197.816 338.923 196.318L283.893 138.911C282.679 137.697 281.005 137 279.295 137C275.735 137 272.836 139.898 272.836 143.458L272.836 152.5L226.336 152.5C220.628 152.5 216.003 157.124 216.003 162.833L216.003 235.166C216.003 240.875 220.628 245.5 226.336 245.5L272.836 245.5L272.836 254.541C272.836 258.101 275.735 261 279.295 261C281.005 261 282.679 260.302 283.95 259.031Z" fill="#F2AD2E"/>
</g>
</g>
<rect x="602" y="2.99951" width="392" height="600" transform="rotate(90 602 2.99951)" stroke="#292929" stroke-width="5"/>
<defs>
<clipPath id="clip0_8_48650">
<rect x="602" y="2.99951" width="392" height="600" transform="rotate(90 602 2.99951)" fill="white"/>
</clipPath>
<clipPath id="clip1_8_48650">
<rect width="124" height="124" fill="white" transform="translate(340 137) rotate(90)"/>
</clipPath>
</defs>
</svg>
