<svg width="605" height="398" viewBox="0 0 605 398" fill="none" xmlns="http://www.w3.org/2000/svg">
<g clip-path="url(#clip0_8_48649)">
<rect x="602" y="2.99951" width="392" height="600" transform="rotate(90 602 2.99951)" fill="white"/>
<path d="M442.264 91.6529L442.264 102.021L445.4 102.021L445.4 88.3889L423 88.3889L423 91.6529L442.264 91.6529ZM434.2 122.592C431.896 122.592 429.88 121.664 428.408 120.224C426.904 118.72 425.976 116.64 425.976 114.432C425.976 112.224 426.904 110.176 428.408 108.704C429.88 107.232 431.928 106.304 434.2 106.304C436.472 106.304 438.52 107.232 439.992 108.704C441.496 110.176 442.424 112.224 442.424 114.432C442.424 116.64 441.496 118.72 439.992 120.224C438.52 121.664 436.504 122.592 434.2 122.592ZM434.2 103.04C431.032 103.04 428.184 104.352 426.104 106.368C423.992 108.416 422.712 111.296 422.712 114.432C422.712 117.6 423.992 120.448 426.104 122.528C428.184 124.544 431.032 125.856 434.2 125.856C437.368 125.856 440.216 124.544 442.296 122.528C444.376 120.448 445.688 117.6 445.688 114.432C445.688 111.296 444.376 108.416 442.296 106.368C440.216 104.352 437.368 103.04 434.2 103.04ZM442.264 132.559L442.264 142.927L445.4 142.927L445.4 129.295L423 129.295L423 132.559L442.264 132.559ZM434.2 163.498C431.896 163.498 429.88 162.57 428.408 161.13C426.904 159.626 425.976 157.546 425.976 155.338C425.976 153.13 426.904 151.082 428.408 149.61C429.88 148.138 431.928 147.21 434.2 147.21C436.472 147.21 438.52 148.138 439.992 149.61C441.496 151.082 442.424 153.13 442.424 155.338C442.424 157.546 441.496 159.626 439.992 161.13C438.52 162.57 436.504 163.498 434.2 163.498ZM434.2 143.946C431.032 143.946 428.184 145.258 426.104 147.274C423.992 149.322 422.712 152.202 422.712 155.338C422.712 158.506 423.992 161.354 426.104 163.434C428.184 165.45 431.032 166.762 434.2 166.762C437.368 166.762 440.216 165.45 442.296 163.434C444.376 161.354 445.688 158.506 445.688 155.338C445.688 152.202 444.376 149.322 442.296 147.274C440.216 145.258 437.368 143.946 434.2 143.946ZM440.088 178.162L423 184.786L423 188.306L445.688 179.314L445.688 176.946L423 167.954L423 171.474L440.088 178.162ZM432.6 194.028L432.6 204.172L435.864 204.172L435.864 194.028L442.168 194.028L442.168 204.396L445.4 204.396L445.4 190.764L423 190.764L423 204.428L426.232 204.428L426.232 194.028L432.6 194.028ZM442.328 210.808L442.328 216.92C442.328 220.44 436.472 220.376 436.472 216.856L436.472 210.808L442.328 210.808ZM445.4 207.608L423 207.608L423 217.72C423 222.008 426.392 224.216 429.752 224.216C431.864 224.216 434.232 223.256 435.32 220.696C438.488 224.952 445.4 222.232 445.4 216.92L445.4 207.608ZM433.272 210.808L433.272 217.72C433.272 219.896 431.48 220.984 429.72 220.984C427.96 220.984 426.136 219.896 426.136 217.72L426.136 210.808L433.272 210.808ZM434.136 227.072C430.744 227.072 428.216 228.352 426.168 230.272C424.12 232.224 422.84 234.976 422.84 238.016C422.84 243.232 426.296 247.328 431.384 248.608L431.384 245.44C427.992 244.288 426.04 241.408 426.04 238.016C426.04 235.872 426.968 233.92 428.44 232.512C429.912 231.104 431.608 230.208 434.136 230.208C438.168 230.208 442.424 233.024 442.424 238.016C442.424 241.312 440.728 244.064 437.368 245.248L437.368 248.448C442.424 247.168 445.624 243.136 445.624 238.016C445.624 232.064 440.664 227.072 434.136 227.072ZM445.4 251.448L423 251.448L423 254.712L445.4 254.712L445.4 251.448ZM433.368 255.32L423 263.864L423 268.088L434.264 258.648L445.4 267.192L445.4 263.224L435 255.32L433.368 255.32ZM423 287.127L445.4 287.127L445.4 284.631L429.624 273.719L445.4 273.719L445.4 270.519L423 270.519L423 273.079L438.648 283.895L423 283.895L423 287.127ZM423 307.565L445.4 307.565L445.4 305.069L429.624 294.157L445.4 294.157L445.4 290.957L423 290.957L423 293.517L438.648 304.333L423 304.333L423 307.565ZM449.688 295.213L446.872 295.213L446.872 304.077L449.688 304.077L449.688 295.213ZM407.4 143.284L407.4 128.436L385 128.436L385 138.548C385 142.836 388.392 145.044 391.752 145.044C395.336 145.044 398.472 142.58 398.472 138.548L398.472 131.636L404.264 131.636L404.264 143.284L407.4 143.284ZM395.368 131.636L395.368 138.548C395.368 140.724 393.48 141.812 391.72 141.812C389.96 141.812 388.136 140.724 388.136 138.548L388.136 131.636L395.368 131.636ZM384.968 153.869L407.4 163.949L407.4 160.269L399.336 156.813L395.784 155.373L399.368 153.709L407.4 149.741L407.4 146.093L392.168 153.517L384.968 150.349L384.968 153.869ZM402.088 172.99L385 179.614L385 183.134L407.688 174.142L407.688 171.774L385 162.782L385 166.302L402.088 172.99ZM385 194.28C385 199.112 388.744 201.544 392.488 201.544C396.232 201.544 399.944 199.112 399.944 194.28L399.944 189.352L407.4 189.352L407.4 186.088L385 186.088L385 194.28ZM396.744 194.28C396.744 197 394.632 198.344 392.52 198.344C390.376 198.344 388.2 197 388.2 194.28L388.2 189.352L396.744 189.352L396.744 194.28ZM404.328 207.261L404.328 213.373C404.328 216.893 398.472 216.829 398.472 213.309L398.472 207.261L404.328 207.261ZM407.4 204.061L385 204.061L385 214.173C385 218.461 388.392 220.669 391.752 220.669C393.864 220.669 396.232 219.709 397.32 217.149C400.488 221.405 407.4 218.685 407.4 213.373L407.4 204.061ZM395.272 207.261L395.272 214.173C395.272 216.349 393.48 217.437 391.72 217.437C389.96 217.437 388.136 216.349 388.136 214.173L388.136 207.261L395.272 207.261ZM402.536 232.022L393.704 235.382L393.704 228.662L402.536 232.022ZM385 238.71L385 242.166L407.688 233.174L407.688 230.806L385 221.814L385 225.302L390.664 227.478L390.664 236.566L385 238.71ZM407.4 244.806L385 244.806L385 248.07L392.456 248.07L392.456 252.998C392.456 257.83 396.168 260.262 399.912 260.262C403.656 260.262 407.4 257.83 407.4 252.998L407.4 244.806ZM395.656 248.07L404.136 248.07L404.136 252.998C404.136 255.718 402.024 257.062 399.88 257.062C397.768 257.062 395.656 255.718 395.656 252.998L395.656 248.07Z" fill="#292929"/>
<path d="M93.976 150.047L93.976 155.087C93.976 159.455 91.192 161.183 88.792 161.183C86.008 161.183 83.08 158.927 83.08 153.599C83.08 149.375 85.48 147.167 88.168 146.735L87.352 142.223C82.744 142.991 78.568 146.399 78.568 153.599C78.568 161.663 83.464 165.695 88.312 165.743C91.624 165.791 94.6 164.447 96.376 161.423C98.008 163.871 100.744 164.495 103.384 164.495C110.2 164.447 112.888 158.735 112.888 153.311C112.888 148.847 110.392 144.383 105.304 143.183L104.248 147.551C106.84 148.175 108.28 150.767 108.28 153.311C108.28 156.479 107.032 159.695 103.384 159.695C101.176 159.695 98.392 158.447 98.392 155.087L98.392 150.047L93.976 150.047ZM108.136 183.119C108.136 188.543 102.424 190.991 95.752 190.991C89.416 190.991 83.416 188.543 83.416 183.119C83.416 177.695 89.416 175.343 95.752 175.343C102.424 175.343 108.136 177.695 108.136 183.119ZM78.664 183.119C78.664 191.663 87.208 195.983 95.752 195.983C104.344 195.983 112.936 191.663 112.936 183.119C112.936 174.527 104.344 170.303 95.752 170.303C87.208 170.303 78.664 174.527 78.664 183.119ZM108.136 213.213C108.136 218.637 102.424 221.085 95.752 221.085C89.416 221.085 83.416 218.637 83.416 213.213C83.416 207.789 89.416 205.437 95.752 205.437C102.424 205.437 108.136 207.789 108.136 213.213ZM78.664 213.213C78.664 221.757 87.208 226.077 95.752 226.077C104.344 226.077 112.936 221.757 112.936 213.213C112.936 204.621 104.344 200.397 95.752 200.397C87.208 200.397 78.664 204.621 78.664 213.213ZM112.6 230.038L79 230.038L79 234.934L90.184 234.934L90.184 242.326C90.184 249.574 95.752 253.222 101.368 253.222C106.984 253.222 112.6 249.574 112.6 242.326L112.6 230.038ZM94.984 234.934L107.704 234.934L107.704 242.326C107.704 246.406 104.536 248.422 101.32 248.422C98.152 248.422 94.984 246.406 94.984 242.326L94.984 234.934Z" fill="#292929"/>
<g clip-path="url(#clip1_8_48649)">
<path d="M283.95 259.031L338.923 201.681C340.36 200.183 340.36 197.816 338.923 196.318L283.893 138.911C282.679 137.697 281.005 137 279.295 137C275.735 137 272.836 139.898 272.836 143.458L272.836 152.5L226.336 152.5C220.628 152.5 216.003 157.124 216.003 162.833L216.003 235.166C216.003 240.875 220.628 245.5 226.336 245.5L272.836 245.5L272.836 254.541C272.836 258.101 275.735 261 279.295 261C281.005 261 282.679 260.302 283.95 259.031Z" fill="#F2AD2E"/>
</g>
</g>
<rect x="602" y="2.99951" width="392" height="600" transform="rotate(90 602 2.99951)" stroke="#292929" stroke-width="5"/>
<defs>
<clipPath id="clip0_8_48649">
<rect x="602" y="2.99951" width="392" height="600" transform="rotate(90 602 2.99951)" fill="white"/>
</clipPath>
<clipPath id="clip1_8_48649">
<rect width="124" height="124" fill="white" transform="translate(340 137) rotate(90)"/>
</clipPath>
</defs>
</svg>
