<svg width="398" height="605" viewBox="0 0 398 605" fill="none" xmlns="http://www.w3.org/2000/svg">
<g clip-path="url(#clip0_8_46265)">
<rect x="395" y="602" width="392" height="600" transform="rotate(-180 395 602)" fill="white"/>
<rect x="395" y="602" width="392" height="100" transform="rotate(-180 395 602)" fill="#E4E4E4"/>
<path d="M358.507 445.4H361.739V423H358.507V432.728H349.035V423H345.771V445.4H349.035V435.928H358.507V445.4ZM333.306 440.536L329.946 431.704H336.666L333.306 440.536ZM326.618 423H323.162L332.154 445.688H334.522L343.514 423H340.026L337.85 428.664H328.762L326.618 423ZM316.69 442.264H306.322V445.4H319.954V423H316.69V442.264ZM297.087 440.536L293.727 431.704H300.447L297.087 440.536ZM290.399 423H286.943L295.935 445.688H298.303L307.295 423H303.807L301.631 428.664H292.543L290.399 423ZM277.799 423V442.328H271.047V445.4H287.815V442.328H281.031V423H277.799ZM251.56 423V445.4H254.056L264.968 429.624V445.4H268.168V423H265.608L254.792 438.648V423H251.56ZM244.882 445.4L248.114 445.4V423H244.882V432.728L235.41 432.728V423H232.146V445.4H235.41V435.928L244.882 435.928V445.4ZM228.865 434.136C228.865 430.744 227.585 428.216 225.665 426.168C223.713 424.12 220.961 422.84 217.921 422.84C212.705 422.84 208.609 426.296 207.329 431.384H210.497C211.649 427.992 214.529 426.04 217.921 426.04C220.065 426.04 222.017 426.968 223.425 428.44C224.833 429.912 225.729 431.608 225.729 434.136C225.729 438.168 222.913 442.424 217.921 442.424C214.625 442.424 211.873 440.728 210.689 437.368H207.489C208.769 442.424 212.801 445.624 217.921 445.624C223.873 445.624 228.865 440.664 228.865 434.136ZM204.489 445.4V423H201.225V445.4H204.489ZM200.617 433.368L192.073 423H187.849L197.289 434.264L188.745 445.4H192.713L200.617 435V433.368ZM176.65 440.536L173.29 431.704H180.01L176.65 440.536ZM169.962 423H166.506L175.498 445.688H177.866L186.858 423H183.37L181.194 428.664H172.106L169.962 423ZM152.603 434.36H156.379C159.099 434.36 160.443 436.312 160.443 438.264C160.443 440.184 159.099 442.136 156.379 442.136H151.419V423H148.219V445.4H156.379C161.243 445.4 163.675 441.816 163.675 438.264C163.675 435.096 161.723 432.088 157.883 431.416L164.955 423H160.763L152.603 432.824V434.36ZM130.272 422.968L120.192 445.4H123.872L127.328 437.336L128.768 433.784L130.432 437.368L134.4 445.4H138.048L130.624 430.168L133.792 422.968H130.272ZM111.15 440.088L104.526 423H101.006L109.998 445.688H112.366L121.358 423H117.838L111.15 440.088ZM81.7161 423V445.4H84.2121L95.1241 429.624V445.4H98.3241V423H95.7641L84.9481 438.648V423H81.7161ZM63.2626 425.976V445.4H66.5906V425.976H74.8786V445.4H78.1746V423H64.6066V418.456H61.4386V425.976H63.2626ZM48.2124 440.536L44.8524 431.704H51.5724L48.2124 440.536ZM41.5244 423H38.0684L47.0604 445.688H49.4284L58.4204 423H54.9324L52.7564 428.664H43.6684L41.5244 423Z" fill="#292929"/>
<path d="M228.51 97.24C223.518 97.24 221.118 93.88 221.118 90.52C221.118 87.16 223.518 83.896 228.51 83.896C233.454 83.896 235.902 87.16 235.902 90.52C235.902 93.88 233.454 97.24 228.51 97.24ZM238.686 97.24C239.982 95.272 240.75 92.872 240.75 90.52C240.75 84.76 236.622 79 228.51 79C220.35 79 216.27 84.76 216.27 90.52C216.27 94.408 218.142 98.344 221.838 100.456C224.19 101.752 227.502 101.896 229.998 101.032L221.79 112.6H227.742L238.686 97.24ZM199.669 108.136C194.245 108.136 191.797 102.424 191.797 95.752C191.797 89.416 194.245 83.416 199.669 83.416C205.093 83.416 207.445 89.416 207.445 95.752C207.445 102.424 205.093 108.136 199.669 108.136ZM199.669 78.664C191.125 78.664 186.805 87.208 186.805 95.752C186.805 104.344 191.125 112.936 199.669 112.936C208.261 112.936 212.485 104.344 212.485 95.752C212.485 87.208 208.261 78.664 199.669 78.664ZM182.845 112.6V79H177.949V90.184H170.557C163.309 90.184 159.661 95.752 159.661 101.368C159.661 106.984 163.309 112.6 170.557 112.6H182.845ZM177.949 94.984V107.704H170.557C166.477 107.704 164.461 104.536 164.461 101.32C164.461 98.152 166.477 94.984 170.557 94.984H177.949Z" fill="#292929"/>
<g clip-path="url(#clip1_8_46265)">
<path d="M138.969 283.95L196.319 338.923C197.816 340.36 200.184 340.36 201.681 338.923L259.088 283.893C260.303 282.679 261 281.005 261 279.295C261 275.735 258.101 272.836 254.541 272.836H245.5V226.336C245.5 220.628 240.876 216.003 235.166 216.003L162.834 216.003C157.124 216.003 152.5 220.628 152.5 226.336L152.5 272.836H143.459C139.899 272.836 137 275.735 137 279.295C137 281.005 137.697 282.679 138.969 283.95Z" fill="#E4E4E4"/>
</g>
</g>
<rect x="395" y="602" width="392" height="600" transform="rotate(-180 395 602)" stroke="#292929" stroke-width="5"/>
<defs>
<clipPath id="clip0_8_46265">
<rect x="395" y="602" width="392" height="600" transform="rotate(-180 395 602)" fill="white"/>
</clipPath>
<clipPath id="clip1_8_46265">
<rect width="124" height="124" fill="white" transform="matrix(-1 0 0 -1 261 340)"/>
</clipPath>
</defs>
</svg>
