<svg width="605" height="398" viewBox="0 0 605 398" fill="none" xmlns="http://www.w3.org/2000/svg">
<g clip-path="url(#clip0_8_48648)">
<rect x="602" y="2.99951" width="392" height="600" transform="rotate(90 602 2.99951)" fill="white"/>
<rect x="602" y="2.99951" width="392" height="100" transform="rotate(90 602 2.99951)" fill="white"/>
<path d="M445.4 149.245L423 149.245L423 152.509L445.4 152.509L445.4 149.245ZM433.368 153.117L423 161.661L423 165.885L434.264 156.445L445.4 164.989L445.4 161.021L435 153.117L433.368 153.117ZM440.536 177.084L431.704 180.444L431.704 173.724L440.536 177.084ZM423 183.772L423 187.228L445.688 178.236L445.688 175.868L423 166.876L423 170.364L428.664 172.54L428.664 181.628L423 183.772ZM432.984 194.044L432.984 197.404C432.984 200.316 431.128 201.436 429.528 201.436C427.672 201.436 425.72 199.964 425.72 196.412C425.72 193.596 427.32 192.124 429.112 191.836L428.568 188.828C425.496 189.34 422.712 191.612 422.712 196.412C422.712 201.788 425.976 204.604 429.208 204.636C431.608 204.668 433.4 203.644 434.584 201.628C435.672 203.26 437.496 203.676 439.256 203.676C443.8 203.644 445.624 200.06 445.624 196.22C445.624 193.244 443.928 190.268 440.536 189.468L439.832 192.38C441.56 192.796 442.52 194.524 442.52 196.22C442.52 198.332 441.688 200.476 439.256 200.476C437.784 200.476 435.96 199.644 435.96 197.404L435.96 194.044L432.984 194.044ZM445.4 211.602L445.4 208.37L423 208.37L423 211.602L432.728 211.602L432.728 221.074L423 221.074L423 224.338L445.4 224.338L445.4 221.074L435.928 221.074L435.928 211.602L445.4 211.602ZM440.536 236.803L431.704 240.163L431.704 233.443L440.536 236.803ZM423 243.491L423 246.947L445.688 237.955L445.688 235.587L423 226.595L423 230.083L428.664 232.259L428.664 241.347L423 243.491Z" fill="#292929"/>
<path d="M314.616 257.064C326.509 257.064 336.186 247.387 336.186 235.494L336.186 162.384C336.186 150.491 326.509 140.814 314.616 140.814L313.5 140.814L288.378 159.255C288.199 159.016 288.066 158.744 287.993 158.45C286.549 152.706 282.233 148.179 276.698 146.399L276.698 140.814L219.936 140.814L219.936 257.064L276.698 257.064L276.698 251.477C282.541 249.592 286.947 244.641 288.164 238.632L313.508 257.064L314.616 257.064ZM329.374 162.384L329.374 235.494C329.374 242.46 324.522 248.31 318.021 249.852L318.021 148.026C324.522 149.568 329.374 155.418 329.374 162.384ZM269.887 193.263L269.887 204.615L256.264 204.615L256.264 193.263L269.887 193.263ZM276.698 244.048L276.698 153.823C278.994 155.186 280.711 157.427 281.385 160.11C282.156 163.177 284.521 165.663 287.556 166.6C292.705 168.188 295.316 171.43 295.316 176.234C295.316 178.227 294.742 180.157 293.657 181.814C291.623 184.922 292.05 189.12 294.671 191.795C296.551 193.716 297.587 196.253 297.587 198.939C297.587 202.245 295.973 205.363 293.269 207.279C290.427 209.292 289.234 212.915 290.301 216.291C290.616 217.283 290.775 218.32 290.775 219.374C290.775 222.974 288.845 226.348 285.738 228.18C283.242 229.651 281.693 232.352 281.693 235.227L281.693 235.267C281.693 238.956 279.706 242.25 276.698 244.048Z" fill="#292929"/>
</g>
<rect x="602" y="2.99951" width="392" height="600" transform="rotate(90 602 2.99951)" stroke="#292929" stroke-width="5"/>
<defs>
<clipPath id="clip0_8_48648">
<rect x="602" y="2.99951" width="392" height="600" transform="rotate(90 602 2.99951)" fill="white"/>
</clipPath>
</defs>
</svg>
