<svg width="605" height="398" viewBox="0 0 605 398" fill="none" xmlns="http://www.w3.org/2000/svg">
<g clip-path="url(#clip0_8_48647)">
<rect x="602" y="2.99951" width="392" height="600" transform="rotate(90 602 2.99951)" fill="white"/>
<rect x="602" y="2.99951" width="392" height="100" transform="rotate(90 602 2.99951)" fill="white"/>
<path d="M445.4 87.2914L423 87.2914L423 90.5554L445.4 90.5554L445.4 87.2914ZM433.368 91.1634L423 99.7074L423 103.931L434.264 94.4914L445.4 103.035L445.4 99.0674L435 91.1634L433.368 91.1634ZM422.968 112.603L445.4 122.683L445.4 119.003L437.336 115.547L433.784 114.107L437.368 112.443L445.4 108.475L445.4 104.827L430.168 112.251L422.968 109.083L422.968 112.603ZM423 135.388L442.328 135.388L442.328 142.14L445.4 142.14L445.4 125.372L442.328 125.372L442.328 132.156L423 132.156L423 135.388ZM422.968 152.259L445.4 162.339L445.4 158.659L437.336 155.203L433.784 153.763L437.368 152.099L445.4 148.131L445.4 144.483L430.168 151.907L422.968 148.739L422.968 152.259ZM432.984 168.653L432.984 172.013C432.984 174.925 431.128 176.045 429.528 176.045C427.672 176.045 425.72 174.573 425.72 171.021C425.72 168.205 427.32 166.733 429.112 166.445L428.568 163.437C425.496 163.949 422.712 166.221 422.712 171.021C422.712 176.397 425.976 179.213 429.208 179.245C431.608 179.277 433.4 178.253 434.584 176.237C435.672 177.869 437.496 178.285 439.256 178.285C443.8 178.253 445.624 174.669 445.624 170.829C445.624 167.853 443.928 164.877 440.536 164.077L439.832 166.989C441.56 167.405 442.52 169.133 442.52 170.829C442.52 172.941 441.688 175.085 439.256 175.085C437.784 175.085 435.96 174.253 435.96 172.013L435.96 168.653L432.984 168.653ZM434.2 201.842C431.896 201.842 429.88 200.914 428.408 199.474C426.904 197.97 425.976 195.89 425.976 193.682C425.976 191.474 426.904 189.426 428.408 187.954C429.88 186.482 431.928 185.554 434.2 185.554C436.472 185.554 438.52 186.482 439.992 187.954C441.496 189.426 442.424 191.474 442.424 193.682C442.424 195.89 441.496 197.97 439.992 199.474C438.52 200.914 436.504 201.842 434.2 201.842ZM434.2 182.29C431.032 182.29 428.184 183.602 426.104 185.618C423.992 187.666 422.712 190.546 422.712 193.682C422.712 196.85 423.992 199.698 426.104 201.778C428.184 203.794 431.032 205.106 434.2 205.106C437.368 205.106 440.216 203.794 442.296 201.778C444.376 199.698 445.688 196.85 445.688 193.682C445.688 190.546 444.376 187.666 442.296 185.618C440.216 183.602 437.368 182.29 434.2 182.29ZM442.328 211.745L442.328 217.857C442.328 221.377 436.472 221.313 436.472 217.793L436.472 211.745L442.328 211.745ZM445.4 208.545L423 208.545L423 218.657C423 222.945 426.392 225.153 429.752 225.153C431.864 225.153 434.232 224.193 435.32 221.633C438.488 225.889 445.4 223.169 445.4 217.857L445.4 208.545ZM433.272 211.745L433.272 218.657C433.272 220.833 431.48 221.921 429.72 221.921C427.96 221.921 426.136 220.833 426.136 218.657L426.136 211.745L433.272 211.745ZM434.136 228.009C430.744 228.009 428.216 229.289 426.168 231.209C424.12 233.161 422.84 235.913 422.84 238.953C422.84 244.169 426.296 248.265 431.384 249.545L431.384 246.377C427.992 245.225 426.04 242.345 426.04 238.953C426.04 236.809 426.968 234.857 428.44 233.449C429.912 232.041 431.608 231.145 434.136 231.145C438.168 231.145 442.424 233.961 442.424 238.953C442.424 242.249 440.728 245.001 437.368 246.185L437.368 249.385C442.424 248.105 445.624 244.073 445.624 238.953C445.624 233.001 440.664 228.009 434.136 228.009ZM445.4 252.385L423 252.385L423 255.649L445.4 255.649L445.4 252.385ZM433.368 256.257L423 264.801L423 269.025L434.264 259.585L445.4 268.129L445.4 264.161L435 256.257L433.368 256.257ZM423 288.065L445.4 288.065L445.4 285.569L429.624 274.657L445.4 274.657L445.4 271.457L423 271.457L423 274.017L438.648 284.833L423 284.833L423 288.065ZM423 308.502L445.4 308.502L445.4 306.006L429.624 295.094L445.4 295.094L445.4 291.894L423 291.894L423 294.454L438.648 305.27L423 305.27L423 308.502ZM449.688 296.15L446.872 296.15L446.872 305.014L449.688 305.014L449.688 296.15ZM407.4 114.323L385 114.323L385 117.587L404.232 117.587L404.232 126.995L385 126.995L385 130.291L407.4 130.291L407.4 114.323ZM407.4 134.197L385 134.197L385 137.461L392.456 137.461L392.456 142.389C392.456 147.221 396.168 149.653 399.912 149.653C403.656 149.653 407.4 147.221 407.4 142.389L407.4 134.197ZM395.656 137.461L404.136 137.461L404.136 142.389C404.136 145.109 402.024 146.453 399.88 146.453C397.768 146.453 395.656 145.109 395.656 142.389L395.656 137.461ZM396.2 171.873C393.896 171.873 391.88 170.945 390.408 169.505C388.904 168.001 387.976 165.921 387.976 163.713C387.976 161.505 388.904 159.457 390.408 157.985C391.88 156.513 393.928 155.585 396.2 155.585C398.472 155.585 400.52 156.513 401.992 157.985C403.496 159.457 404.424 161.505 404.424 163.713C404.424 165.921 403.496 168.001 401.992 169.505C400.52 170.945 398.504 171.873 396.2 171.873ZM396.2 152.321C393.032 152.321 390.184 153.633 388.104 155.649C385.992 157.697 384.712 160.577 384.712 163.713C384.712 166.881 385.992 169.729 388.104 171.809C390.184 173.825 393.032 175.137 396.2 175.137C399.368 175.137 402.216 173.825 404.296 171.809C406.376 169.729 407.688 166.881 407.688 163.713C407.688 160.577 406.376 157.697 404.296 155.649C402.216 153.633 399.368 152.321 396.2 152.321ZM396.136 178.041C392.744 178.041 390.216 179.321 388.168 181.241C386.12 183.193 384.84 185.945 384.84 188.985C384.84 194.201 388.296 198.297 393.384 199.577L393.384 196.409C389.992 195.257 388.04 192.377 388.04 188.985C388.04 186.841 388.968 184.889 390.44 183.481C391.912 182.073 393.608 181.177 396.136 181.177C400.168 181.177 404.424 183.993 404.424 188.985C404.424 192.281 402.728 195.033 399.368 196.217L399.368 199.417C404.424 198.137 407.624 194.105 407.624 188.985C407.624 183.033 402.664 178.041 396.136 178.041ZM407.4 203.448L385 203.448L385 206.712L404.232 206.712L404.232 216.12L385 216.12L385 219.416L407.4 219.416L407.4 203.448ZM394.6 226.153L394.6 236.297L397.864 236.297L397.864 226.153L404.168 226.153L404.168 236.521L407.4 236.521L407.4 222.889L385 222.889L385 236.553L388.232 236.553L388.232 226.153L394.6 226.153ZM407.4 239.573L385 239.573L385 242.837L407.4 242.837L407.4 239.573ZM395.368 243.445L385 251.989L385 256.213L396.264 246.773L407.4 255.317L407.4 251.349L397 243.445L395.368 243.445ZM385 267.7L404.328 267.7L404.328 274.452L407.4 274.452L407.4 257.684L404.328 257.684L404.328 264.468L385 264.468L385 267.7Z" fill="#292929"/>
<path d="M93.976 150.719L93.976 155.759C93.976 160.127 91.192 161.855 88.792 161.855C86.008 161.855 83.08 159.599 83.08 154.271C83.08 150.047 85.48 147.839 88.168 147.407L87.352 142.895C82.744 143.663 78.568 147.071 78.568 154.271C78.568 162.335 83.464 166.367 88.312 166.415C91.624 166.463 94.6 165.119 96.376 162.095C98.008 164.543 100.744 165.167 103.384 165.167C110.2 165.119 112.888 159.407 112.888 153.983C112.888 149.519 110.392 145.055 105.304 143.855L104.248 148.223C106.84 148.847 108.28 151.439 108.28 153.983C108.28 157.151 107.032 160.367 103.384 160.367C101.176 160.367 98.392 159.119 98.392 155.759L98.392 150.719L93.976 150.719ZM101.992 175.132C105.736 175.708 108.424 177.868 108.424 181.996C108.424 189.82 100.456 191.116 96.664 185.836L96.664 185.884L82.744 170.092L79 170.092L79 193.66L83.656 193.66L83.656 178.252L92.968 189.1C99.304 198.172 113.272 194.716 113.272 181.996C113.272 174.988 108.376 171.148 102.376 170.284L101.992 175.132ZM108.136 211.541C108.136 216.965 102.424 219.413 95.752 219.413C89.416 219.413 83.416 216.965 83.416 211.541C83.416 206.117 89.416 203.765 95.752 203.765C102.424 203.765 108.136 206.117 108.136 211.541ZM78.664 211.541C78.664 220.085 87.208 224.405 95.752 224.405C104.344 224.405 112.936 220.085 112.936 211.541C112.936 202.949 104.344 198.725 95.752 198.725C87.208 198.725 78.664 202.949 78.664 211.541ZM112.6 228.366L79 228.366L79 233.262L90.184 233.262L90.184 240.654C90.184 247.902 95.752 251.55 101.368 251.55C106.984 251.55 112.6 247.902 112.6 240.654L112.6 228.366ZM94.984 233.262L107.704 233.262L107.704 240.654C107.704 244.734 104.536 246.75 101.32 246.75C98.152 246.75 94.984 244.734 94.984 240.654L94.984 233.262Z" fill="#292929"/>
<g clip-path="url(#clip1_8_48647)">
<path d="M283.95 259.031L338.923 201.681C340.36 200.183 340.36 197.816 338.923 196.318L283.893 138.911C282.679 137.697 281.005 137 279.295 137C275.735 137 272.836 139.898 272.836 143.458L272.836 152.5L226.336 152.5C220.628 152.5 216.003 157.124 216.003 162.833L216.003 235.166C216.003 240.875 220.628 245.5 226.336 245.5L272.836 245.5L272.836 254.541C272.836 258.101 275.735 261 279.295 261C281.005 261 282.679 260.302 283.95 259.031Z" fill="#F2AD2E"/>
</g>
</g>
<rect x="602" y="2.99951" width="392" height="600" transform="rotate(90 602 2.99951)" stroke="#292929" stroke-width="5"/>
<defs>
<clipPath id="clip0_8_48647">
<rect x="602" y="2.99951" width="392" height="600" transform="rotate(90 602 2.99951)" fill="white"/>
</clipPath>
<clipPath id="clip1_8_48647">
<rect width="124" height="124" fill="white" transform="translate(340 137) rotate(90)"/>
</clipPath>
</defs>
</svg>
