<svg width="605" height="20" viewBox="0 0 605 20" fill="none" xmlns="http://www.w3.org/2000/svg">
<g clip-path="url(#clip0_8_48646)">
<rect x="602" y="-196" width="392" height="600" transform="rotate(90 602 -196)" fill="white"/>
<rect x="602" y="-196" width="392" height="100" transform="rotate(90 602 -196)" fill="white"/>
<path d="M440.088 -119.978L423 -113.354L423 -109.834L445.688 -118.826L445.688 -121.194L423 -130.186L423 -126.666L440.088 -119.978ZM432.6 -104.113L432.6 -93.9687L435.864 -93.9687L435.864 -104.113L442.168 -104.113L442.168 -93.7447L445.4 -93.7447L445.4 -107.377L423 -107.377L423 -93.7127L426.232 -93.7127L426.232 -104.113L432.6 -104.113ZM445.4 -87.461L445.4 -90.693L423 -90.693L423 -87.461L432.728 -87.461L432.728 -77.989L423 -77.989L423 -74.725L445.4 -74.725L445.4 -77.989L435.928 -77.989L435.928 -87.461L445.4 -87.461ZM423 -54.4197L445.4 -54.4197L445.4 -56.9157L429.624 -67.8277L445.4 -67.8277L445.4 -71.0277L423 -71.0277L423 -68.4677L438.648 -57.6517L423 -57.6517L423 -54.4197ZM445.4 -47.7422L445.4 -50.9742L423 -50.9742L423 -47.7422L432.728 -47.7422L432.728 -38.2702L423 -38.2702L423 -35.0062L445.4 -35.0062L445.4 -38.2702L435.928 -38.2702L435.928 -47.7422L445.4 -47.7422ZM442.264 -28.269L442.264 -17.901L445.4 -17.901L445.4 -31.533L423 -31.533L423 -28.269L442.264 -28.269ZM445.4 -14.8812L423 -14.8812L423 -11.6172L430.456 -11.6172L430.456 -6.68924C430.456 -1.85724 434.168 0.574764 437.912 0.574764C441.656 0.574763 445.4 -1.85724 445.4 -6.68924L445.4 -14.8812ZM433.656 -11.6172L442.136 -11.6172L442.136 -6.68924C442.136 -3.96924 440.024 -2.62524 437.88 -2.62524C435.768 -2.62524 433.656 -3.96924 433.656 -6.68924L433.656 -11.6172ZM440.536 11.1153L431.704 14.4753L431.704 7.75526L440.536 11.1153ZM423 17.8033L423 21.2593L445.688 12.2673L445.688 9.89926L423 0.907265L423 4.39527L428.664 6.57126L428.664 15.6593L423 17.8033ZM426.168 41.3385L445.4 41.3385L445.4 28.0265L432.216 27.1625C430.168 26.9705 427.288 26.5225 425.944 25.2425L425.592 23.4505L419.416 23.4505L419.416 26.6825L423 26.6825L423 39.9945L419.416 39.9945L419.416 43.1625L426.168 43.1625L426.168 41.3385ZM426.168 28.8905C428.12 30.3305 430.84 30.4585 434.328 30.6185L442.296 31.0985L442.296 38.0105L426.168 38.0105L426.168 28.8905ZM434.136 45.3688C430.744 45.3688 428.216 46.6488 426.168 48.5688C424.12 50.5208 422.84 53.2728 422.84 56.3128C422.84 61.5288 426.296 65.6248 431.384 66.9048L431.384 63.7368C427.992 62.5848 426.04 59.7048 426.04 56.3128C426.04 54.1688 426.968 52.2168 428.44 50.8088C429.912 49.4008 431.608 48.5048 434.136 48.5048C438.168 48.5048 442.424 51.3208 442.424 56.3128C442.424 59.6088 440.728 62.3608 437.368 63.5448L437.368 66.7448C442.424 65.4648 445.624 61.4328 445.624 56.3128C445.624 50.3608 440.664 45.3688 434.136 45.3688ZM445.4 69.7445L423 69.7445L423 73.0085L445.4 73.0085L445.4 69.7445ZM433.368 73.6165L423 82.1605L423 86.3845L434.264 76.9445L445.4 85.4885L445.4 81.5205L435 73.6165L433.368 73.6165ZM440.536 97.584L431.704 100.944L431.704 94.224L440.536 97.584ZM423 104.272L423 107.728L445.688 98.736L445.688 96.368L423 87.376L423 90.864L428.664 93.04L428.664 102.128L423 104.272ZM434.36 121.631L434.36 117.855C434.36 115.135 436.312 113.791 438.264 113.791C440.184 113.791 442.136 115.135 442.136 117.855L442.136 122.815L423 122.815L423 126.015L445.4 126.015L445.4 117.855C445.4 112.991 441.816 110.559 438.264 110.559C435.096 110.559 432.088 112.511 431.416 116.351L423 109.279L423 113.471L432.824 121.631L434.36 121.631ZM407.4 -142.079L385 -142.079L385 -138.815L407.4 -138.815L407.4 -142.079ZM395.368 -138.207L385 -130.367L385 -126.335L396.264 -134.975L407.4 -127.167L407.4 -130.975L397 -138.207L395.368 -138.207ZM397 -142.719L407.4 -149.951L407.4 -153.759L396.264 -145.951L385 -154.591L385 -150.559L395.368 -142.719L397 -142.719ZM394.6 -120.8L394.6 -110.656L397.864 -110.656L397.864 -120.8L404.168 -120.8L404.168 -110.432L407.4 -110.432L407.4 -124.064L385 -124.064L385 -110.4L388.232 -110.4L388.232 -120.8L394.6 -120.8ZM402.088 -97.541L385 -90.917L385 -87.397L407.688 -96.389L407.688 -98.757L385 -107.749L385 -104.229L402.088 -97.541ZM394.6 -81.6752L394.6 -71.5312L397.864 -71.5312L397.864 -81.6752L404.168 -81.6752L404.168 -71.3072L407.4 -71.3072L407.4 -84.9392L385 -84.9392L385 -71.2752L388.232 -71.2752L388.232 -81.6752L394.6 -81.6752ZM394.984 -63.4875L394.984 -60.1275C394.984 -57.2155 393.128 -56.0955 391.528 -56.0955C389.672 -56.0955 387.72 -57.5675 387.72 -61.1195C387.72 -63.9355 389.32 -65.4075 391.112 -65.6955L390.568 -68.7035C387.496 -68.1915 384.712 -65.9195 384.712 -61.1195C384.712 -55.7435 387.976 -52.9275 391.208 -52.8955C393.608 -52.8635 395.4 -53.8875 396.584 -55.9035C397.672 -54.2715 399.496 -53.8555 401.256 -53.8555C405.8 -53.8875 407.624 -57.4715 407.624 -61.3115C407.624 -64.2875 405.928 -67.2635 402.536 -68.0635L401.832 -65.1515C403.56 -64.7355 404.52 -63.0075 404.52 -61.3115C404.52 -59.1995 403.688 -57.0555 401.256 -57.0555C399.784 -57.0555 397.96 -57.8875 397.96 -60.1275L397.96 -63.4875L394.984 -63.4875ZM407.4 -45.9297L407.4 -49.1617L385 -49.1617L385 -45.9297L394.728 -45.9297L394.728 -36.4577L385 -36.4577L385 -33.1937L407.4 -33.1937L407.4 -36.4577L397.928 -36.4577L397.928 -45.9297L407.4 -45.9297ZM402.536 -20.7285L393.704 -17.3685L393.704 -24.0885L402.536 -20.7285ZM385 -14.0405L385 -10.5845L407.688 -19.5765L407.688 -21.9445L385 -30.9365L385 -27.4485L390.664 -25.2725L390.664 -16.1845L385 -14.0405ZM396.36 3.31877L396.36 -0.457231C396.36 -3.17723 398.312 -4.52123 400.264 -4.52123C402.184 -4.52123 404.136 -3.17723 404.136 -0.457232L404.136 4.50277L385 4.50277L385 7.70277L407.4 7.70277L407.4 -0.457233C407.4 -5.32123 403.816 -7.75323 400.264 -7.75323C397.096 -7.75323 394.088 -5.80123 393.416 -1.96123L385 -9.03323L385 -4.84123L394.824 3.31877L396.36 3.31877ZM388.168 36.3698L407.4 36.3698L407.4 23.0578L394.216 22.1938C392.168 22.0018 389.288 21.5538 387.944 20.2738L387.592 18.4818L381.416 18.4818L381.416 21.7138L385 21.7138L385 35.0258L381.416 35.0258L381.416 38.1938L388.168 38.1938L388.168 36.3698ZM388.168 23.9218C390.12 25.3618 392.84 25.4898 396.328 25.6498L404.296 26.1298L404.296 33.0418L388.168 33.0418L388.168 23.9218ZM396.2 59.92C393.896 59.92 391.88 58.992 390.408 57.552C388.904 56.048 387.976 53.968 387.976 51.76C387.976 49.552 388.904 47.504 390.408 46.032C391.88 44.56 393.928 43.632 396.2 43.632C398.472 43.632 400.52 44.56 401.992 46.032C403.496 47.504 404.424 49.552 404.424 51.76C404.424 53.968 403.496 56.048 401.992 57.552C400.52 58.992 398.504 59.92 396.2 59.92ZM396.2 40.368C393.032 40.368 390.184 41.68 388.104 43.696C385.992 45.744 384.712 48.624 384.712 51.76C384.712 54.928 385.992 57.776 388.104 59.856C390.184 61.872 393.032 63.184 396.2 63.184C399.368 63.184 402.216 61.872 404.296 59.856C406.376 57.776 407.688 54.928 407.688 51.76C407.688 48.624 406.376 45.744 404.296 43.696C402.216 41.68 399.368 40.368 396.2 40.368ZM407.4 66.4313L385 66.4313L385 69.6953L392.456 69.6953L392.456 74.6233C392.456 79.4553 396.168 81.8873 399.912 81.8873C403.656 81.8873 407.4 79.4553 407.4 74.6233L407.4 66.4313ZM395.656 69.6953L404.136 69.6953L404.136 74.6233C404.136 77.3433 402.024 78.6873 399.88 78.6873C397.768 78.6873 395.656 77.3433 395.656 74.6233L395.656 69.6953ZM396.2 104.108C393.896 104.108 391.88 103.18 390.408 101.74C388.904 100.236 387.976 98.1555 387.976 95.9475C387.976 93.7395 388.904 91.6915 390.408 90.2195C391.88 88.7475 393.928 87.8195 396.2 87.8195C398.472 87.8195 400.52 88.7475 401.992 90.2195C403.496 91.6915 404.424 93.7395 404.424 95.9475C404.424 98.1555 403.496 100.236 401.992 101.74C400.52 103.18 398.504 104.108 396.2 104.108ZM396.2 84.5555C393.032 84.5555 390.184 85.8675 388.104 87.8835C385.992 89.9315 384.712 92.8115 384.712 95.9475C384.712 99.1155 385.992 101.964 388.104 104.044C390.184 106.06 393.032 107.372 396.2 107.372C399.368 107.372 402.216 106.06 404.296 104.044C406.376 101.964 407.688 99.1155 407.688 95.9475C407.688 92.8115 406.376 89.9315 404.296 87.8835C402.216 85.8675 399.368 84.5555 396.2 84.5555ZM404.264 114.075L404.264 124.443L407.4 124.443L407.4 110.811L385 110.811L385 114.075L404.264 114.075ZM402.536 133.678L393.704 137.038L393.704 130.318L402.536 133.678ZM385 140.366L385 143.822L407.688 134.83L407.688 132.462L385 123.47L385 126.958L390.664 129.134L390.664 138.222L385 140.366Z" fill="#292929"/>
<path d="M101.992 -52.2973C105.736 -51.7213 108.424 -49.5613 108.424 -45.4333C108.424 -37.6093 100.456 -36.3133 96.664 -41.5933L96.664 -41.5453L82.744 -57.3373L79 -57.3373L79 -33.7693L83.656 -33.7693L83.656 -49.1773L92.968 -38.3293C99.304 -29.2573 113.272 -32.7133 113.272 -45.4333C113.272 -52.4413 108.376 -56.2813 102.376 -57.1453L101.992 -52.2973ZM108.136 -15.8885C108.136 -10.4645 102.424 -8.01655 95.752 -8.01655C89.416 -8.01655 83.416 -10.4645 83.416 -15.8885C83.416 -21.3125 89.416 -23.6645 95.752 -23.6645C102.424 -23.6645 108.136 -21.3125 108.136 -15.8885ZM78.664 -15.8885C78.664 -7.34454 87.208 -3.02455 95.752 -3.02455C104.344 -3.02455 112.936 -7.34455 112.936 -15.8885C112.936 -24.4805 104.344 -28.7045 95.752 -28.7045C87.208 -28.7045 78.664 -24.4805 78.664 -15.8885ZM108.136 14.2052C108.136 19.6292 102.424 22.0772 95.752 22.0772C89.416 22.0772 83.416 19.6292 83.416 14.2052C83.416 8.7812 89.416 6.4292 95.752 6.4292C102.424 6.4292 108.136 8.7812 108.136 14.2052ZM78.664 14.2052C78.664 22.7492 87.208 27.0692 95.752 27.0692C104.344 27.0692 112.936 22.7492 112.936 14.2052C112.936 5.6132 104.344 1.3892 95.752 1.3892C87.208 1.3892 78.664 5.6132 78.664 14.2052ZM112.6 31.03L79 31.03L79 35.926L90.184 35.926L90.184 43.318C90.184 50.566 95.752 54.214 101.368 54.214C106.984 54.214 112.6 50.566 112.6 43.318L112.6 31.03ZM94.984 35.926L107.704 35.926L107.704 43.318C107.704 47.398 104.536 49.414 101.32 49.414C98.152 49.414 94.984 47.398 94.984 43.318L94.984 35.926Z" fill="#292929"/>
<g clip-path="url(#clip1_8_48646)">
<path d="M230.463 59.9329L230.463 35.1329L230.463 12.3995L230.463 -10.3339L230.463 -33.0673L230.463 -59.9339C230.463 -61.0768 229.537 -62.0005 228.397 -62.0005C227.256 -62.0005 226.33 -61.0768 226.33 -59.9339L226.33 59.9327C226.33 61.0756 227.256 61.9993 228.397 61.9993C229.537 61.9993 230.463 61.0758 230.463 59.9329Z" fill="#E4E4E4"/>
<path d="M249.063 53.7329L249.063 -18.6005C249.063 -19.7412 249.989 -20.6671 251.13 -20.6671L277.996 -20.6671C279.137 -20.6671 280.063 -21.5929 280.063 -22.7336L280.063 -47.5336C280.063 -48.6743 279.137 -49.6002 277.996 -49.6002L271.796 -49.6002C270.848 -49.6002 270.021 -48.9555 269.792 -48.0357L268.116 -41.3334L249.063 -41.3334L249.063 -51.6671C249.063 -52.8078 248.137 -53.7336 246.996 -53.7336L240.796 -53.7336C239.656 -53.7336 238.73 -52.8078 238.73 -51.6671L238.73 -41.3336C234.171 -41.3336 230.463 -37.626 230.463 -33.0671C230.463 -28.5081 234.171 -24.8005 238.73 -24.8005L238.73 -18.6005C234.171 -18.6005 230.463 -14.8928 230.463 -10.3339C230.463 -5.77471 234.171 -2.0673 238.73 -2.0673L238.73 4.1327C234.171 4.1327 230.463 7.84035 230.463 12.3993C230.463 16.9582 234.171 20.6659 238.73 20.6659L238.73 26.8659C234.171 26.8659 230.463 30.5735 230.463 35.1325C230.463 39.6916 234.171 43.399 238.73 43.399L238.73 53.7325C238.73 54.8732 239.656 55.799 240.796 55.799L246.996 55.799C248.137 55.7995 249.063 54.8736 249.063 53.7329Z" fill="#292929"/>
<path d="M273.863 47.5329L273.863 37.1995L277.997 37.1995C280.712 37.1995 283 35.4347 283.837 32.9981C284.225 33.1242 284.612 33.2565 285.038 33.3144C287.274 33.6161 289.44 32.8968 291.014 31.4028C293.135 32.0269 295.811 31.9753 297.934 30.5016C298.963 29.7864 300.474 28.2633 300.784 25.3534C304.111 25.6881 307.333 24.3946 309.631 21.6831C312.45 18.3537 313.254 13.8195 311.921 9.73764C312.844 9.35522 313.599 8.79528 314.173 8.05733C314.868 7.16657 315.267 6.0898 315.376 4.80016C318.586 5.29204 321.746 4.59551 324.358 2.76045C327.838 0.313631 329.803 -3.70402 329.663 -8.26731C329.663 -13.1675 327.009 -18.0488 323.06 -20.4152C320.218 -22.1139 316.98 -22.3641 313.787 -21.1655C309.67 -26.0986 304.148 -26.6152 300.24 -24.7884C296.251 -22.9262 293.046 -18.2515 294.151 -11.7393C292.457 -10.89 290.899 -9.28207 289.867 -7.2196C288.441 -4.3676 288.21 -1.13949 289.148 1.90069C287.211 2.2107 285.816 3.18405 284.88 4.12858C281.237 7.80305 280.799 14.7306 281.931 20.0749C280.861 21.4389 280.156 23.2493 279.891 25.1279C279.292 24.9315 278.662 24.7993 277.996 24.7993L273.863 24.7993L273.863 14.0113C276.293 12.9016 277.996 9.86357 277.996 6.19928C277.996 2.53498 276.294 -0.503016 273.863 -1.61272L273.863 -14.4673C273.863 -15.608 272.937 -16.5339 271.796 -16.5339L253.196 -16.5339L253.196 47.5327C253.196 51.0667 257.638 53.7327 263.53 53.7327C269.422 53.7327 273.863 51.0669 273.863 47.5329Z" fill="#292929"/>
</g>
</g>
<rect x="602" y="-196" width="392" height="600" transform="rotate(90 602 -196)" stroke="#292929" stroke-width="5"/>
<defs>
<clipPath id="clip0_8_48646">
<rect x="602" y="-196" width="392" height="600" transform="rotate(90 602 -196)" fill="white"/>
</clipPath>
<clipPath id="clip1_8_48646">
<rect width="124" height="124" fill="white" transform="translate(340 -62.0005) rotate(90)"/>
</clipPath>
</defs>
</svg>
