<svg width="605" height="398" viewBox="0 0 605 398" fill="none" xmlns="http://www.w3.org/2000/svg">
<g clip-path="url(#clip0_8_46311)">
<rect x="602" y="2.99951" width="392" height="600" transform="rotate(90 602 2.99951)" fill="white"/>
<rect x="602" y="2.99951" width="392" height="100" transform="rotate(90 602 2.99951)" fill="white"/>
<path d="M440.088 229.022L423 235.646L423 239.166L445.688 230.174L445.688 227.806L423 218.814L423 222.334L440.088 229.022ZM432.6 244.887L432.6 255.031L435.864 255.031L435.864 244.887L442.168 244.887L442.168 255.255L445.4 255.255L445.4 241.623L423 241.623L423 255.287L426.232 255.287L426.232 244.887L432.6 244.887ZM445.4 261.539L445.4 258.307L423 258.307L423 261.539L432.728 261.539L432.728 271.011L423 271.011L423 274.275L445.4 274.275L445.4 271.011L435.928 271.011L435.928 261.539L445.4 261.539ZM423 294.58L445.4 294.58L445.4 292.084L429.624 281.172L445.4 281.172L445.4 277.972L423 277.972L423 280.532L438.648 291.348L423 291.348L423 294.58ZM445.4 301.258L445.4 298.026L423 298.026L423 301.258L432.728 301.258L432.728 310.73L423 310.73L423 313.994L445.4 313.994L445.4 310.73L435.928 310.73L435.928 301.258L445.4 301.258ZM442.264 320.731L442.264 331.099L445.4 331.099L445.4 317.467L423 317.467L423 320.731L442.264 320.731ZM445.4 334.119L423 334.119L423 337.383L430.456 337.383L430.456 342.311C430.456 347.143 434.168 349.575 437.912 349.575C441.656 349.575 445.4 347.143 445.4 342.311L445.4 334.119ZM433.656 337.383L442.136 337.383L442.136 342.311C442.136 345.031 440.024 346.375 437.88 346.375C435.768 346.375 433.656 345.031 433.656 342.311L433.656 337.383ZM440.536 360.115L431.704 363.475L431.704 356.755L440.536 360.115ZM423 366.803L423 370.259L445.688 361.267L445.688 358.899L423 349.907L423 353.395L428.664 355.571L428.664 364.659L423 366.803ZM426.168 390.339L445.4 390.339L445.4 377.027L432.216 376.163C430.168 375.971 427.288 375.523 425.944 374.243L425.592 372.451L419.416 372.451L419.416 375.683L423 375.683L423 388.995L419.416 388.995L419.416 392.163L426.168 392.163L426.168 390.339ZM426.168 377.891C428.12 379.331 430.84 379.459 434.328 379.619L442.296 380.099L442.296 387.011L426.168 387.011L426.168 377.891ZM434.136 394.369C430.744 394.369 428.216 395.649 426.168 397.569C424.12 399.521 422.84 402.273 422.84 405.313C422.84 410.529 426.296 414.625 431.384 415.905L431.384 412.737C427.992 411.585 426.04 408.705 426.04 405.313C426.04 403.169 426.968 401.217 428.44 399.809C429.912 398.401 431.608 397.505 434.136 397.505C438.168 397.505 442.424 400.321 442.424 405.313C442.424 408.609 440.728 411.361 437.368 412.545L437.368 415.745C442.424 414.465 445.624 410.433 445.624 405.313C445.624 399.361 440.664 394.369 434.136 394.369ZM445.4 418.745L423 418.745L423 422.009L445.4 422.009L445.4 418.745ZM433.368 422.617L423 431.161L423 435.385L434.264 425.945L445.4 434.489L445.4 430.521L435 422.617L433.368 422.617ZM440.536 446.584L431.704 449.944L431.704 443.224L440.536 446.584ZM423 453.272L423 456.728L445.688 447.736L445.688 445.368L423 436.376L423 439.864L428.664 442.04L428.664 451.128L423 453.272ZM434.36 470.631L434.36 466.855C434.36 464.135 436.312 462.791 438.264 462.791C440.184 462.791 442.136 464.135 442.136 466.855L442.136 471.815L423 471.815L423 475.015L445.4 475.015L445.4 466.855C445.4 461.991 441.816 459.559 438.264 459.559C435.096 459.559 432.088 461.511 431.416 465.351L423 458.279L423 462.471L432.824 470.631L434.36 470.631ZM407.4 206.921L385 206.921L385 210.185L407.4 210.185L407.4 206.921ZM395.368 210.793L385 218.633L385 222.665L396.264 214.025L407.4 221.833L407.4 218.025L397 210.793L395.368 210.793ZM397 206.281L407.4 199.049L407.4 195.241L396.264 203.049L385 194.409L385 198.441L395.368 206.281L397 206.281ZM394.6 228.2L394.6 238.344L397.864 238.344L397.864 228.2L404.168 228.2L404.168 238.568L407.4 238.568L407.4 224.936L385 224.936L385 238.6L388.232 238.6L388.232 228.2L394.6 228.2ZM402.088 251.459L385 258.083L385 261.603L407.688 252.611L407.688 250.243L385 241.251L385 244.771L402.088 251.459ZM394.6 267.325L394.6 277.469L397.864 277.469L397.864 267.325L404.168 267.325L404.168 277.693L407.4 277.693L407.4 264.061L385 264.061L385 277.725L388.232 277.725L388.232 267.325L394.6 267.325ZM394.984 285.513L394.984 288.873C394.984 291.785 393.128 292.905 391.528 292.905C389.672 292.905 387.72 291.433 387.72 287.881C387.72 285.065 389.32 283.593 391.112 283.305L390.568 280.297C387.496 280.809 384.712 283.081 384.712 287.881C384.712 293.257 387.976 296.073 391.208 296.105C393.608 296.137 395.4 295.113 396.584 293.097C397.672 294.729 399.496 295.145 401.256 295.145C405.8 295.113 407.624 291.529 407.624 287.689C407.624 284.713 405.928 281.737 402.536 280.937L401.832 283.849C403.56 284.265 404.52 285.993 404.52 287.689C404.52 289.801 403.688 291.945 401.256 291.945C399.784 291.945 397.96 291.113 397.96 288.873L397.96 285.513L394.984 285.513ZM407.4 303.07L407.4 299.838L385 299.838L385 303.07L394.728 303.07L394.728 312.542L385 312.542L385 315.806L407.4 315.806L407.4 312.542L397.928 312.542L397.928 303.07L407.4 303.07ZM402.536 328.272L393.704 331.632L393.704 324.912L402.536 328.272ZM385 334.96L385 338.416L407.688 329.424L407.688 327.056L385 318.064L385 321.552L390.664 323.728L390.664 332.816L385 334.96ZM396.36 352.319L396.36 348.543C396.36 345.823 398.312 344.479 400.264 344.479C402.184 344.479 404.136 345.823 404.136 348.543L404.136 353.503L385 353.503L385 356.703L407.4 356.703L407.4 348.543C407.4 343.679 403.816 341.247 400.264 341.247C397.096 341.247 394.088 343.199 393.416 347.039L385 339.967L385 344.159L394.824 352.319L396.36 352.319ZM388.168 385.37L407.4 385.37L407.4 372.058L394.216 371.194C392.168 371.002 389.288 370.554 387.944 369.274L387.592 367.482L381.416 367.482L381.416 370.714L385 370.714L385 384.026L381.416 384.026L381.416 387.194L388.168 387.194L388.168 385.37ZM388.168 372.922C390.12 374.362 392.84 374.49 396.328 374.65L404.296 375.13L404.296 382.042L388.168 382.042L388.168 372.922ZM396.2 408.92C393.896 408.92 391.88 407.992 390.408 406.552C388.904 405.048 387.976 402.968 387.976 400.76C387.976 398.552 388.904 396.504 390.408 395.032C391.88 393.56 393.928 392.632 396.2 392.632C398.472 392.632 400.52 393.56 401.992 395.032C403.496 396.504 404.424 398.552 404.424 400.76C404.424 402.968 403.496 405.048 401.992 406.552C400.52 407.992 398.504 408.92 396.2 408.92ZM396.2 389.368C393.032 389.368 390.184 390.68 388.104 392.696C385.992 394.744 384.712 397.624 384.712 400.76C384.712 403.928 385.992 406.776 388.104 408.856C390.184 410.872 393.032 412.184 396.2 412.184C399.368 412.184 402.216 410.872 404.296 408.856C406.376 406.776 407.688 403.928 407.688 400.76C407.688 397.624 406.376 394.744 404.296 392.696C402.216 390.68 399.368 389.368 396.2 389.368ZM407.4 415.431L385 415.431L385 418.695L392.456 418.695L392.456 423.623C392.456 428.455 396.168 430.887 399.912 430.887C403.656 430.887 407.4 428.455 407.4 423.623L407.4 415.431ZM395.656 418.695L404.136 418.695L404.136 423.623C404.136 426.343 402.024 427.687 399.88 427.687C397.768 427.687 395.656 426.343 395.656 423.623L395.656 418.695ZM396.2 453.108C393.896 453.108 391.88 452.18 390.408 450.74C388.904 449.236 387.976 447.156 387.976 444.948C387.976 442.74 388.904 440.692 390.408 439.22C391.88 437.748 393.928 436.82 396.2 436.82C398.472 436.82 400.52 437.748 401.992 439.22C403.496 440.692 404.424 442.74 404.424 444.948C404.424 447.156 403.496 449.236 401.992 450.74C400.52 452.18 398.504 453.108 396.2 453.108ZM396.2 433.556C393.032 433.556 390.184 434.868 388.104 436.884C385.992 438.932 384.712 441.812 384.712 444.948C384.712 448.116 385.992 450.964 388.104 453.044C390.184 455.06 393.032 456.372 396.2 456.372C399.368 456.372 402.216 455.06 404.296 453.044C406.376 450.964 407.688 448.116 407.688 444.948C407.688 441.812 406.376 438.932 404.296 436.884C402.216 434.868 399.368 433.556 396.2 433.556ZM404.264 463.075L404.264 473.443L407.4 473.443L407.4 459.811L385 459.811L385 463.075L404.264 463.075ZM402.536 482.678L393.704 486.038L393.704 479.318L402.536 482.678ZM385 489.366L385 492.822L407.688 483.83L407.688 481.462L385 472.47L385 475.958L390.664 478.134L390.664 487.222L385 489.366Z" fill="#292929"/>
<path d="M101.992 138.203C105.736 138.779 108.424 140.939 108.424 145.067C108.424 152.891 100.456 154.187 96.664 148.907L96.664 148.955L82.744 133.163L79 133.163L79 156.731L83.656 156.731L83.656 141.323L92.968 152.171C99.304 161.243 113.272 157.787 113.272 145.067C113.272 138.059 108.376 134.219 102.376 133.355L101.992 138.203ZM108.136 174.611C108.136 180.035 102.424 182.483 95.752 182.483C89.416 182.483 83.416 180.035 83.416 174.611C83.416 169.187 89.416 166.835 95.752 166.835C102.424 166.835 108.136 169.187 108.136 174.611ZM78.664 174.611C78.664 183.155 87.208 187.475 95.752 187.475C104.344 187.475 112.936 183.155 112.936 174.611C112.936 166.019 104.344 161.795 95.752 161.795C87.208 161.795 78.664 166.019 78.664 174.611ZM108.136 204.705C108.136 210.129 102.424 212.577 95.752 212.577C89.416 212.577 83.416 210.129 83.416 204.705C83.416 199.281 89.416 196.929 95.752 196.929C102.424 196.929 108.136 199.281 108.136 204.705ZM78.664 204.705C78.664 213.249 87.208 217.569 95.752 217.569C104.344 217.569 112.936 213.249 112.936 204.705C112.936 196.113 104.344 191.889 95.752 191.889C87.208 191.889 78.664 196.113 78.664 204.705ZM112.6 221.53L79 221.53L79 226.426L90.184 226.426L90.184 233.818C90.184 241.066 95.752 244.714 101.368 244.714C106.984 244.714 112.6 241.066 112.6 233.818L112.6 221.53ZM94.984 226.426L107.704 226.426L107.704 233.818C107.704 237.898 104.536 239.914 101.32 239.914C98.152 239.914 94.984 237.898 94.984 233.818L94.984 226.426Z" fill="#292929"/>
<g clip-path="url(#clip1_8_46311)">
<path d="M230.463 258.933L230.463 234.133L230.463 211.4L230.463 188.666L230.463 165.933L230.463 139.066C230.463 137.923 229.537 137 228.397 137C227.256 137 226.33 137.923 226.33 139.066L226.33 258.933C226.33 260.076 227.256 260.999 228.397 260.999C229.537 260.999 230.463 260.076 230.463 258.933Z" fill="#E4E4E4"/>
<path d="M249.063 252.733L249.063 180.4C249.063 179.259 249.989 178.333 251.13 178.333L277.996 178.333C279.137 178.333 280.063 177.407 280.063 176.266L280.063 151.466C280.063 150.326 279.137 149.4 277.996 149.4L271.796 149.4C270.848 149.4 270.021 150.044 269.792 150.964L268.116 157.667L249.063 157.667L249.063 147.333C249.063 146.192 248.137 145.266 246.996 145.266L240.796 145.266C239.656 145.266 238.73 146.192 238.73 147.333L238.73 157.666C234.171 157.666 230.463 161.374 230.463 165.933C230.463 170.492 234.171 174.2 238.73 174.2L238.73 180.4C234.171 180.4 230.463 184.107 230.463 188.666C230.463 193.225 234.171 196.933 238.73 196.933L238.73 203.133C234.171 203.133 230.463 206.84 230.463 211.399C230.463 215.958 234.171 219.666 238.73 219.666L238.73 225.866C234.171 225.866 230.463 229.574 230.463 234.132C230.463 238.692 234.171 242.399 238.73 242.399L238.73 252.732C238.73 253.873 239.656 254.799 240.796 254.799L246.996 254.799C248.137 254.8 249.063 253.874 249.063 252.733Z" fill="#292929"/>
<path d="M273.863 246.533L273.863 236.2L277.997 236.2C280.712 236.2 283 234.435 283.837 231.998C284.225 232.124 284.612 232.256 285.038 232.314C287.274 232.616 289.44 231.897 291.014 230.403C293.135 231.027 295.811 230.975 297.934 229.502C298.963 228.786 300.474 227.263 300.784 224.353C304.111 224.688 307.333 223.395 309.631 220.683C312.45 217.354 313.254 212.819 311.921 208.738C312.845 208.355 313.599 207.795 314.173 207.057C314.868 206.167 315.267 205.09 315.376 203.8C318.586 204.292 321.746 203.596 324.358 201.76C327.838 199.314 329.803 195.296 329.663 190.733C329.663 185.833 327.009 180.951 323.06 178.585C320.218 176.886 316.98 176.636 313.787 177.835C309.67 172.901 304.148 172.385 300.24 174.212C296.251 176.074 293.046 180.749 294.152 187.261C292.457 188.11 290.899 189.718 289.867 191.78C288.441 194.632 288.21 197.861 289.148 200.901C287.211 201.211 285.816 202.184 284.88 203.129C281.237 206.803 280.799 213.731 281.931 219.075C280.861 220.439 280.156 222.249 279.892 224.128C279.292 223.932 278.662 223.799 277.996 223.799L273.863 223.799L273.863 213.011C276.293 211.902 277.996 208.864 277.996 205.199C277.996 201.535 276.294 198.497 273.863 197.387L273.863 184.533C273.863 183.392 272.937 182.466 271.796 182.466L253.196 182.466L253.196 246.533C253.196 250.067 257.638 252.733 263.53 252.733C269.422 252.733 273.863 250.067 273.863 246.533Z" fill="#292929"/>
</g>
</g>
<rect x="602" y="2.99951" width="392" height="600" transform="rotate(90 602 2.99951)" stroke="#292929" stroke-width="5"/>
<defs>
<clipPath id="clip0_8_46311">
<rect x="602" y="2.99951" width="392" height="600" transform="rotate(90 602 2.99951)" fill="white"/>
</clipPath>
<clipPath id="clip1_8_46311">
<rect width="124" height="124" fill="white" transform="translate(340 137) rotate(90)"/>
</clipPath>
</defs>
</svg>
