<svg width="605" height="398" viewBox="0 0 605 398" fill="none" xmlns="http://www.w3.org/2000/svg">
<g clip-path="url(#clip0_8_46314)">
<rect x="602" y="2.99951" width="392" height="600" transform="rotate(90 602 2.99951)" fill="white"/>
<rect x="602" y="2.99951" width="392" height="100" transform="rotate(90 602 2.99951)" fill="white"/>
<path d="M445.4 54.1054L423 54.1054L423 79.1934L445.4 79.1934L445.4 75.7694L425.944 75.7694L425.944 68.3454L445.4 68.3454L445.4 64.9534L425.944 64.9534L425.944 57.5294L445.4 57.5294L445.4 54.1054ZM440.536 92.3809L431.704 95.7409L431.704 89.0209L440.536 92.3809ZM423 99.0689L423 102.525L445.688 93.5329L445.688 91.1649L423 82.1729L423 85.6609L428.664 87.8369L428.664 96.9249L423 99.0689ZM445.4 107.805L445.4 104.573L423 104.573L423 107.805L432.728 107.805L432.728 117.277L423 117.277L423 120.541L445.4 120.541L445.4 117.277L435.928 117.277L435.928 107.805L445.4 107.805ZM434.136 123.822C430.744 123.822 428.216 125.102 426.168 127.022C424.12 128.974 422.84 131.726 422.84 134.766C422.84 139.982 426.296 144.078 431.384 145.358L431.384 142.19C427.992 141.038 426.04 138.158 426.04 134.766C426.04 132.622 426.968 130.67 428.44 129.262C429.912 127.854 431.608 126.958 434.136 126.958C438.168 126.958 442.424 129.774 442.424 134.766C442.424 138.062 440.728 140.814 437.368 141.998L437.368 145.198C442.424 143.918 445.624 139.886 445.624 134.766C445.624 128.814 440.664 123.822 434.136 123.822Z" fill="#292929"/>
<g clip-path="url(#clip1_8_46314)">
<path d="M227.622 192.46L216.379 225.285L245.117 254.024L256.134 220.972L227.622 192.46ZM229.377 207.241C227.638 205.502 226.885 202.669 227.696 200.911C228.507 199.154 230.573 199.138 232.312 200.878C234.05 202.616 234.803 205.45 233.992 207.208C233.181 208.966 231.115 208.979 229.377 207.241ZM225.664 217.841C223.925 216.102 223.172 213.269 223.983 211.511C224.794 209.754 226.86 209.738 228.599 211.478C230.337 213.218 231.09 216.05 230.279 217.808C229.468 219.565 227.402 219.58 225.664 217.841ZM242.289 239.214C244.028 240.952 244.781 243.785 243.97 245.544C243.159 247.3 241.093 247.317 239.354 245.578C237.616 243.84 236.863 241.006 237.674 239.248C238.485 237.49 240.551 237.475 242.289 239.214ZM245.763 228.645C247.502 230.383 248.255 233.217 247.444 234.975C246.633 236.731 244.567 236.748 242.828 235.008C241.09 233.269 240.337 230.436 241.148 228.678C241.959 226.921 244.025 226.906 245.763 228.645ZM226.805 228.377C225.994 230.134 223.928 230.15 222.189 228.41C220.451 226.672 219.698 223.838 220.509 222.08C221.32 220.322 223.386 220.307 225.124 222.046C226.861 223.786 227.614 226.619 226.805 228.377ZM251.158 224.374C250.347 226.131 248.282 226.147 246.543 224.407C244.804 222.669 244.052 219.835 244.863 218.077C245.674 216.321 247.739 216.304 249.478 218.044C251.217 219.783 251.968 222.616 251.158 224.374Z" fill="#F2AD2E"/>
<path d="M249.088 254.558L281.648 243.705L292.502 211.145L259.944 221.998L249.088 254.558ZM274.619 230.38C275.835 231.596 275.364 234.04 273.566 235.838C271.767 237.636 269.324 238.108 268.108 236.891C266.892 235.675 267.363 233.232 269.161 231.433C270.959 229.635 273.403 229.163 274.619 230.38Z" fill="#F2AD2E"/>
<path d="M340 176.671L324.651 145.972L309.303 176.67L324.651 207.368L340 176.671ZM321.537 176.671C321.537 174.129 322.932 172.066 324.651 172.066C326.372 172.066 327.766 174.127 327.766 176.671C327.766 179.214 326.371 181.276 324.651 181.276C322.931 181.274 321.537 179.213 321.537 176.671Z" fill="#F2AD2E"/>
<path d="M281.151 184.562C281.691 186.028 280.836 187.254 279.196 187.679L297.581 206.064L296.335 209.799L321.467 209.799L305.885 178.637L270.154 178.637L273.304 181.788C273.874 181.466 274.611 181.274 275.485 181.274C277.945 181.274 280.481 182.747 281.151 184.562ZM314.659 204.614C315.328 206.43 313.878 207.901 311.419 207.901C308.961 207.901 306.425 206.43 305.755 204.614C305.086 202.797 306.537 201.326 308.995 201.326C311.454 201.326 313.99 202.797 314.659 204.614ZM298.574 195.245C299.243 197.062 297.793 198.533 295.334 198.533C292.876 198.533 290.34 197.062 289.671 195.245C289.001 193.429 290.452 191.958 292.91 191.958C295.369 191.958 297.905 193.431 298.574 195.245ZM299.107 181.274C301.566 181.274 304.102 182.745 304.771 184.561C305.44 186.378 303.99 187.849 301.532 187.849C299.073 187.849 296.537 186.378 295.868 184.561C295.198 182.745 296.649 181.274 299.107 181.274Z" fill="#F2AD2E"/>
<path d="M280.827 143.539L265.78 174.261L266.22 174.702L305.885 174.702L321.467 143.539L280.827 143.539ZM281.151 168.702C280.481 170.518 277.945 171.989 275.487 171.989C273.028 171.989 271.578 170.518 272.247 168.702C272.916 166.885 275.453 165.414 277.911 165.414C280.369 165.414 281.82 166.887 281.151 168.702ZM299.071 159.12C298.402 160.937 295.866 162.408 293.408 162.408C290.949 162.408 289.499 160.937 290.168 159.12C290.837 157.304 293.373 155.833 295.832 155.833C298.29 155.833 299.741 157.305 299.071 159.12ZM314.659 149.259C313.99 151.075 311.454 152.547 308.995 152.547C306.537 152.547 305.086 151.075 305.755 149.259C306.425 147.443 308.961 145.972 311.419 145.972C313.878 145.972 315.328 147.443 314.659 149.259Z" fill="#F2AD2E"/>
<path d="M291.97 207.172L263.234 178.433L230.405 189.677L258.92 218.189L291.97 207.172ZM241.232 194.899C239.493 193.16 239.508 191.093 241.266 190.283C243.024 189.474 245.858 190.225 247.596 191.964C249.335 193.702 249.32 195.77 247.563 196.579C245.806 197.389 242.97 196.637 241.232 194.899ZM275.303 204.488C273.564 202.749 273.579 200.682 275.336 199.872C277.092 199.061 279.927 199.814 281.666 201.553C283.405 203.291 283.39 205.359 281.633 206.168C279.875 206.979 277.042 206.227 275.303 204.488Z" fill="#F2AD2E"/>
</g>
</g>
<rect x="602" y="2.99951" width="392" height="600" transform="rotate(90 602 2.99951)" stroke="#292929" stroke-width="5"/>
<defs>
<clipPath id="clip0_8_46314">
<rect x="602" y="2.99951" width="392" height="600" transform="rotate(90 602 2.99951)" fill="white"/>
</clipPath>
<clipPath id="clip1_8_46314">
<rect width="124" height="124" fill="white" transform="translate(340 137) rotate(90)"/>
</clipPath>
</defs>
</svg>
