<svg width="605" height="398" viewBox="0 0 605 398" fill="none" xmlns="http://www.w3.org/2000/svg">
<g clip-path="url(#clip0_8_46312)">
<rect x="602" y="2.99927" width="392" height="600" transform="rotate(90 602 2.99927)" fill="white"/>
<rect x="602" y="2.99927" width="392" height="100" transform="rotate(90 602 2.99927)" fill="white"/>
<path d="M422.968 179.165L445.4 189.245L445.4 185.565L437.336 182.109L433.784 180.669L437.368 179.005L445.4 175.037L445.4 171.389L430.168 178.813L422.968 175.645L422.968 179.165ZM445.4 192.166L423 192.166L423 195.43L442.232 195.43L442.232 204.838L423 204.838L423 208.134L445.4 208.134L445.4 192.166ZM440.088 220.599L423 227.223L423 230.743L445.688 221.751L445.688 219.383L423 210.391L423 213.911L440.088 220.599ZM440.536 243.193L431.704 246.553L431.704 239.833L440.536 243.193ZM423 249.881L423 253.337L445.688 244.345L445.688 241.977L423 232.985L423 236.473L428.664 238.649L428.664 247.737L423 249.881ZM423 262.481L442.328 262.481L442.328 269.233L445.4 269.233L445.4 252.465L442.328 252.465L442.328 259.249L423 259.249L423 262.481ZM423 288.721L445.4 288.721L445.4 286.225L429.624 275.313L445.4 275.313L445.4 272.113L423 272.113L423 274.673L438.648 285.489L423 285.489L423 288.721ZM423 301.606L442.328 301.606L442.328 308.358L445.4 308.358L445.4 291.59L442.328 291.59L442.328 298.374L423 298.374L423 301.606ZM432.6 314.278L432.6 324.422L435.864 324.422L435.864 314.278L442.168 314.278L442.168 324.646L445.4 324.646L445.4 311.014L423 311.014L423 324.678L426.232 324.678L426.232 314.278L432.6 314.278ZM396.136 144.056C392.744 144.056 390.216 145.336 388.168 147.256C386.12 149.208 384.84 151.96 384.84 155C384.84 160.216 388.296 164.312 393.384 165.592L393.384 162.424C389.992 161.272 388.04 158.392 388.04 155C388.04 152.856 388.968 150.904 390.44 149.496C391.912 148.088 393.608 147.192 396.136 147.192C400.168 147.192 404.424 150.008 404.424 155C404.424 158.296 402.728 161.048 399.368 162.232L399.368 165.432C404.424 164.152 407.624 160.12 407.624 155C407.624 149.048 402.664 144.056 396.136 144.056ZM404.328 171.792L404.328 177.904C404.328 181.424 398.472 181.36 398.472 177.84L398.472 171.792L404.328 171.792ZM407.4 168.592L385 168.592L385 178.704C385 182.992 388.392 185.2 391.752 185.2C393.864 185.2 396.232 184.24 397.32 181.68C400.488 185.936 407.4 183.216 407.4 177.904L407.4 168.592ZM395.272 171.792L395.272 178.704C395.272 180.88 393.48 181.968 391.72 181.968C389.96 181.968 388.136 180.88 388.136 178.704L388.136 171.792L395.272 171.792ZM394.6 191.512L394.6 201.656L397.864 201.656L397.864 191.512L404.168 191.512L404.168 201.88L407.4 201.88L407.4 188.248L385 188.248L385 201.912L388.232 201.912L388.232 191.512L394.6 191.512ZM407.4 204.9L385 204.9L385 208.164L392.456 208.164L392.456 213.092C392.456 217.924 396.168 220.356 399.912 220.356C403.656 220.356 407.4 217.924 407.4 213.092L407.4 204.9ZM395.656 208.164L404.136 208.164L404.136 213.092C404.136 215.812 402.024 217.156 399.88 217.156C397.768 217.156 395.656 215.812 395.656 213.092L395.656 208.164ZM407.4 221.249L396.392 229.345L385 221.249L385 225.217L393.8 231.297L385 237.409L385 241.345L396.392 233.249L407.4 241.345L407.4 237.409L399.176 231.297L407.4 225.217L407.4 221.249ZM407.4 246.664L407.4 243.432L385 243.432L385 246.664L394.728 246.664L394.728 256.136L385 256.136L385 259.4L407.4 259.4L407.4 256.136L397.928 256.136L397.928 246.664L407.4 246.664ZM402.536 271.865L393.704 275.225L393.704 268.505L402.536 271.865ZM385 278.553L385 282.009L407.688 273.017L407.688 270.649L385 261.657L385 265.145L390.664 267.321L390.664 276.409L385 278.553ZM402.088 293.896L385 300.52L385 304.04L407.688 295.048L407.688 292.68L385 283.688L385 287.208L402.088 293.896ZM396.2 324.795C393.896 324.795 391.88 323.867 390.408 322.427C388.904 320.923 387.976 318.843 387.976 316.635C387.976 314.427 388.904 312.379 390.408 310.907C391.88 309.435 393.928 308.507 396.2 308.507C398.472 308.507 400.52 309.435 401.992 310.907C403.496 312.379 404.424 314.427 404.424 316.635C404.424 318.843 403.496 320.923 401.992 322.427C400.52 323.867 398.504 324.795 396.2 324.795ZM396.2 305.243C393.032 305.243 390.184 306.555 388.104 308.571C385.992 310.619 384.712 313.499 384.712 316.635C384.712 319.803 385.992 322.651 388.104 324.731C390.184 326.747 393.032 328.059 396.2 328.059C399.368 328.059 402.216 326.747 404.296 324.731C406.376 322.651 407.688 319.803 407.688 316.635C407.688 313.499 406.376 310.619 404.296 308.571C402.216 306.555 399.368 305.243 396.2 305.243ZM404.264 334.762L404.264 345.13L407.4 345.13L407.4 331.498L385 331.498L385 334.762L404.264 334.762Z" fill="#292929"/>
<path d="M78.48 175.644L78.48 179.844C78.48 183.484 76.16 184.884 74.16 184.884C71.84 184.884 69.4 183.044 69.4 178.604C69.4 175.084 71.4 173.244 73.64 172.884L72.96 169.124C69.12 169.764 65.64 172.604 65.64 178.604C65.64 185.324 69.72 188.844 73.76 188.884C76.76 188.924 79 187.644 80.48 185.124C81.84 187.164 84.12 187.684 86.32 187.684C92 187.644 94.28 183.164 94.28 178.364C94.28 174.644 92.16 170.924 87.92 169.924L87.04 173.564C89.2 174.084 90.4 176.244 90.4 178.364C90.4 181.004 89.36 183.684 86.32 183.684C84.48 183.684 82.2 182.644 82.2 179.844L82.2 175.644L78.48 175.644ZM87.92 204.21L76.88 208.41L76.88 200.01L87.92 204.21ZM66 212.57L66 216.89L94.36 205.65L94.36 202.69L66 191.45L66 195.81L73.08 198.53L73.08 209.89L66 212.57ZM94 220.7L66 220.7L66 224.78L90.04 224.78L90.04 236.54L66 236.54L66 240.66L94 240.66L94 220.7ZM87.36 256.242L66 264.522L66 268.922L94.36 257.682L94.36 254.722L66 243.482L66 247.882L87.36 256.242ZM87.92 284.484L76.88 288.684L76.88 280.284L87.92 284.484ZM66 292.844L66 297.164L94.36 285.924L94.36 282.964L66 271.724L66 276.084L73.08 278.804L73.08 290.164L66 292.844ZM66 308.594L90.16 308.594L90.16 317.034L94 317.034L94 296.074L90.16 296.074L90.16 304.554L66 304.554L66 308.594ZM66 341.393L94 341.393L94 338.273L74.28 324.633L94 324.633L94 320.633L66 320.633L66 323.833L85.56 337.353L66 337.353L66 341.393ZM66 357.5L90.16 357.5L90.16 365.94L94 365.94L94 344.98L90.16 344.98L90.16 353.46L66 353.46L66 357.5ZM78 373.339L78 386.019L82.08 386.019L82.08 373.339L89.96 373.339L89.96 386.299L94 386.299L94 369.259L66 369.259L66 386.339L70.04 386.339L70.04 373.339L78 373.339ZM18 246.046L46.12 246.046L46.12 242.806L35.48 235.246L33.28 238.286L38.4 242.046L18 242.046L18 246.046ZM42.28 261.678C42.28 266.198 37.52 268.238 31.96 268.238C26.68 268.238 21.68 266.198 21.68 261.678C21.68 257.158 26.68 255.198 31.96 255.198C37.52 255.198 42.28 257.158 42.28 261.678ZM17.72 261.678C17.72 268.799 24.84 272.398 31.96 272.398C39.12 272.398 46.28 268.798 46.28 261.678C46.28 254.518 39.12 250.998 31.96 250.998C24.84 250.998 17.72 254.518 17.72 261.678ZM42.28 286.757C42.28 291.277 37.52 293.317 31.96 293.317C26.68 293.317 21.68 291.277 21.68 286.757C21.68 282.237 26.68 280.277 31.96 280.277C37.52 280.277 42.28 282.237 42.28 286.757ZM17.72 286.757C17.72 293.877 24.84 297.477 31.96 297.477C39.12 297.477 46.28 293.877 46.28 286.757C46.28 279.597 39.12 276.077 31.96 276.077C24.84 276.077 17.72 279.597 17.72 286.757ZM46 300.777L18 300.777L18 304.857L27.32 304.857L27.32 311.017C27.32 317.057 31.96 320.097 36.64 320.097C41.32 320.097 46 317.057 46 311.017L46 300.777ZM31.32 304.857L41.92 304.857L41.92 311.017C41.92 314.417 39.28 316.097 36.6 316.097C33.96 316.097 31.32 314.417 31.32 311.017L31.32 304.857Z" fill="#292929"/>
<g clip-path="url(#clip1_8_46312)">
<path d="M277.839 138.69C277.348 137.357 275.871 136.67 274.533 137.155L270.069 138.777L282.422 151.13L277.839 138.69Z" fill="#E4E4E4"/>
<path d="M238.161 150.381L217.701 157.821C217.055 158.054 216.528 158.539 216.244 159.159C216.084 159.505 216.001 159.877 216.001 160.249C216.001 160.554 216.053 160.854 216.162 161.143L219.189 169.353L238.161 150.381Z" fill="#292929"/>
<path d="M255.628 260.841L279.038 252.326L258.604 231.893L262.335 242.019C262.841 243.347 262.149 244.845 260.805 245.336C259.467 245.832 257.979 245.145 257.488 243.807L252.746 230.942C252.637 230.648 252.585 230.348 252.585 230.048C252.585 228.999 253.231 228.008 254.275 227.625C254.29 227.62 254.306 227.625 254.321 227.62L232.669 205.968L252.322 259.306C252.813 260.644 254.29 261.331 255.628 260.841Z" fill="#292929"/>
<path d="M297.911 260.242L339.243 218.91C340.25 217.902 340.25 216.264 339.243 215.257L261.746 137.76C260.738 136.752 259.1 136.752 258.093 137.76L216.761 179.091C216.255 179.593 216.001 180.254 216.001 180.915C216.001 181.577 216.255 182.238 216.756 182.744L294.253 260.242C295.266 261.249 296.898 261.249 297.911 260.242ZM268.421 167.245L258.088 156.912C257.587 156.405 257.333 155.744 257.333 155.083C257.333 154.421 257.586 153.76 258.088 153.254C259.095 152.246 260.733 152.246 261.741 153.254L272.074 163.587C273.081 164.594 273.081 166.232 272.074 167.24C271.066 168.247 269.433 168.252 268.421 167.245ZM265.14 211.857C263.311 210.028 262.433 207.543 262.433 204.779C262.433 200.212 264.825 194.875 269.294 190.411C272.559 187.146 276.465 184.852 280.288 183.958C284.55 182.966 288.26 183.783 290.74 186.257C293.22 188.732 294.036 192.442 293.039 196.709C292.145 200.532 289.856 204.438 286.586 207.703C279.415 214.88 269.991 216.709 265.14 211.857ZM294.253 244.742L283.92 234.409C283.419 233.903 283.166 233.242 283.166 232.58C283.166 231.919 283.419 231.258 283.92 230.751C284.928 229.744 286.565 229.744 287.573 230.751L297.906 241.084C298.913 242.092 298.913 243.73 297.906 244.737C296.898 245.744 295.266 245.75 294.253 244.742Z" fill="#292929"/>
</g>
</g>
<rect x="602" y="2.99927" width="392" height="600" transform="rotate(90 602 2.99927)" stroke="#292929" stroke-width="5"/>
<defs>
<clipPath id="clip0_8_46312">
<rect x="602" y="2.99927" width="392" height="600" transform="rotate(90 602 2.99927)" fill="white"/>
</clipPath>
<clipPath id="clip1_8_46312">
<rect width="124" height="124" fill="white" transform="translate(340 136.999) rotate(90)"/>
</clipPath>
</defs>
</svg>
