<svg width="605" height="398" viewBox="0 0 605 398" fill="none" xmlns="http://www.w3.org/2000/svg">
<g clip-path="url(#clip0_8_46315)">
<rect x="602" y="2.99927" width="392" height="600" transform="rotate(90 602 2.99927)" fill="white"/>
<path d="M422.968 77.087L445.4 87.167L445.4 83.487L437.336 80.031L433.784 78.591L437.368 76.927L445.4 72.959L445.4 69.311L430.168 76.735L422.968 73.567L422.968 77.087ZM440.088 96.2088L423 102.833L423 106.353L445.688 97.3608L445.688 94.9928L423 86.0008L423 89.5208L440.088 96.2088ZM423 125.643L445.4 125.643L445.4 123.147L429.624 112.235L445.4 112.235L445.4 109.035L423 109.035L423 111.595L438.648 122.411L423 122.411L423 125.643ZM425.976 144.096L445.4 144.096L445.4 140.768L425.976 140.768L425.976 132.48L445.4 132.48L445.4 129.184L423 129.184L423 142.752L418.456 142.752L418.456 145.92L425.976 145.92L425.976 144.096ZM440.536 159.146L431.704 162.506L431.704 155.786L440.536 159.146ZM423 165.834L423 169.29L445.688 160.298L445.688 157.93L423 148.938L423 152.426L428.664 154.602L428.664 163.69L423 165.834ZM440.536 188.459L431.704 191.819L431.704 185.099L440.536 188.459ZM423 195.147L423 198.603L445.688 189.611L445.688 187.243L423 178.251L423 181.739L428.664 183.915L428.664 193.003L423 195.147ZM445.4 201.244L423 201.244L423 204.508L430.456 204.508L430.456 209.436C430.456 214.268 434.168 216.7 437.912 216.7C441.656 216.7 445.4 214.268 445.4 209.436L445.4 201.244ZM433.656 204.508L442.136 204.508L442.136 209.436C442.136 212.156 440.024 213.5 437.88 213.5C435.768 213.5 433.656 212.156 433.656 209.436L433.656 204.508ZM445.4 234.44L445.4 219.592L423 219.592L423 229.704C423 233.992 426.392 236.2 429.752 236.2C433.336 236.2 436.472 233.736 436.472 229.704L436.472 222.792L442.264 222.792L442.264 234.44L445.4 234.44ZM433.368 222.792L433.368 229.704C433.368 231.88 431.48 232.968 429.72 232.968C427.96 232.968 426.136 231.88 426.136 229.704L426.136 222.792L433.368 222.792ZM440.536 248.24L431.704 251.6L431.704 244.88L440.536 248.24ZM423 254.928L423 258.384L445.688 249.392L445.688 247.024L423 238.032L423 241.52L428.664 243.696L428.664 252.784L423 254.928ZM423 267.528L442.328 267.528L442.328 274.28L445.4 274.28L445.4 257.512L442.328 257.512L442.328 264.296L423 264.296L423 267.528Z" fill="#292929"/>
<path d="M89.992 132.918L86.584 132.918L86.584 149.67L79 149.67L79 154.47L86.584 154.47L86.584 157.206L91.288 157.206L91.288 154.47L112.6 154.47L112.6 150.726L89.992 132.918ZM91.192 139.254L104.2 149.766L91.192 149.766L91.192 139.254ZM108.136 174.424C108.136 179.848 102.424 182.296 95.752 182.296C89.416 182.296 83.416 179.848 83.416 174.424C83.416 169 89.416 166.648 95.752 166.648C102.424 166.648 108.136 169 108.136 174.424ZM78.664 174.424C78.664 182.968 87.208 187.288 95.752 187.288C104.344 187.288 112.936 182.968 112.936 174.424C112.936 165.832 104.344 161.608 95.752 161.608C87.208 161.608 78.664 165.832 78.664 174.424ZM108.136 204.517C108.136 209.941 102.424 212.389 95.752 212.389C89.416 212.389 83.416 209.941 83.416 204.517C83.416 199.093 89.416 196.741 95.752 196.741C102.424 196.741 108.136 199.093 108.136 204.517ZM78.664 204.517C78.664 213.061 87.208 217.381 95.752 217.381C104.344 217.381 112.936 213.061 112.936 204.517C112.936 195.925 104.344 191.701 95.752 191.701C87.208 191.701 78.664 195.925 78.664 204.517ZM112.6 221.342L79 221.342L79 226.238L90.184 226.238L90.184 233.63C90.184 240.878 95.752 244.526 101.368 244.526C106.984 244.526 112.6 240.878 112.6 233.63L112.6 221.342ZM94.984 226.238L107.704 226.238L107.704 233.63C107.704 237.71 104.536 239.726 101.32 239.726C98.152 239.726 94.984 237.71 94.984 233.63L94.984 226.238Z" fill="#292929"/>
<g clip-path="url(#clip1_8_46315)">
<path d="M283.95 259.031L338.923 201.68C340.36 200.183 340.36 197.816 338.923 196.318L283.893 138.911C282.679 137.697 281.005 136.999 279.295 136.999C275.735 136.999 272.836 139.898 272.836 143.458L272.836 152.499L226.336 152.499C220.628 152.499 216.003 157.124 216.003 162.833L216.003 235.166C216.003 240.875 220.628 245.499 226.336 245.499L272.836 245.499L272.836 254.541C272.836 258.101 275.735 260.999 279.295 260.999C281.005 260.999 282.679 260.302 283.95 259.031Z" fill="#FF6161"/>
</g>
</g>
<rect x="602" y="2.99927" width="392" height="600" transform="rotate(90 602 2.99927)" stroke="#292929" stroke-width="5"/>
<defs>
<clipPath id="clip0_8_46315">
<rect x="602" y="2.99927" width="392" height="600" transform="rotate(90 602 2.99927)" fill="white"/>
</clipPath>
<clipPath id="clip1_8_46315">
<rect width="124" height="124" fill="white" transform="translate(340 136.999) rotate(90)"/>
</clipPath>
</defs>
</svg>
