<svg width="398" height="605" viewBox="0 0 398 605" fill="none" xmlns="http://www.w3.org/2000/svg">
<g clip-path="url(#clip0_8_46271)">
<rect x="395" y="602" width="392" height="600" transform="rotate(-180 395 602)" fill="white"/>
<rect x="395" y="602" width="392" height="100" transform="rotate(-180 395 602)" fill="white"/>
<path d="M336.289 445.4H339.521V423H336.289V432.728H326.817V423H323.553V445.4H326.817V435.928H336.289V445.4ZM311.087 440.536L307.727 431.704H314.447L311.087 440.536ZM304.399 423H300.943L309.935 445.688H312.303L321.295 423H317.807L315.631 428.664H306.543L304.399 423ZM289.056 440.088L282.432 423H278.912L287.904 445.688H290.272L299.264 423H295.744L289.056 440.088ZM258.158 434.2C258.158 431.896 259.086 429.88 260.526 428.408C262.03 426.904 264.11 425.976 266.318 425.976C268.526 425.976 270.574 426.904 272.046 428.408C273.518 429.88 274.446 431.928 274.446 434.2C274.446 436.472 273.518 438.52 272.046 439.992C270.574 441.496 268.526 442.424 266.318 442.424C264.11 442.424 262.03 441.496 260.526 439.992C259.086 438.52 258.158 436.504 258.158 434.2ZM277.71 434.2C277.71 431.032 276.398 428.184 274.382 426.104C272.334 423.992 269.454 422.712 266.318 422.712C263.15 422.712 260.302 423.992 258.222 426.104C256.206 428.184 254.894 431.032 254.894 434.2C254.894 437.368 256.206 440.216 258.222 442.296C260.302 444.376 263.15 445.688 266.318 445.688C269.454 445.688 272.334 444.376 274.382 442.296C276.398 440.216 277.71 437.368 277.71 434.2ZM248.19 442.264H237.822V445.4H251.454V423H248.19V442.264ZM226.834 434.136C226.834 430.744 225.554 428.216 223.634 426.168C221.682 424.12 218.93 422.84 215.89 422.84C210.674 422.84 206.578 426.296 205.298 431.384H208.466C209.618 427.992 212.498 426.04 215.89 426.04C218.034 426.04 219.986 426.968 221.394 428.44C222.802 429.912 223.698 431.608 223.698 434.136C223.698 438.168 220.882 442.424 215.89 442.424C212.594 442.424 209.842 440.728 208.658 437.368H205.458C206.738 442.424 210.77 445.624 215.89 445.624C221.842 445.624 226.834 440.664 226.834 434.136ZM177.145 426.168V445.4H190.457L191.321 432.216C191.513 430.168 191.961 427.288 193.241 425.944L195.033 425.592V419.416H191.801V423H178.489V419.416H175.321V426.168H177.145ZM189.593 426.168C188.153 428.12 188.025 430.84 187.865 434.328L187.385 442.296H180.473V426.168H189.593ZM153.595 434.2C153.595 431.896 154.523 429.88 155.963 428.408C157.467 426.904 159.547 425.976 161.755 425.976C163.963 425.976 166.011 426.904 167.483 428.408C168.955 429.88 169.883 431.928 169.883 434.2C169.883 436.472 168.955 438.52 167.483 439.992C166.011 441.496 163.963 442.424 161.755 442.424C159.547 442.424 157.467 441.496 155.963 439.992C154.523 438.52 153.595 436.504 153.595 434.2ZM173.147 434.2C173.147 431.032 171.835 428.184 169.819 426.104C167.771 423.992 164.891 422.712 161.755 422.712C158.587 422.712 155.739 423.992 153.659 426.104C151.643 428.184 150.331 431.032 150.331 434.2C150.331 437.368 151.643 440.216 153.659 442.296C155.739 444.376 158.587 445.688 161.755 445.688C164.891 445.688 167.771 444.376 169.819 442.296C171.835 440.216 173.147 437.368 173.147 434.2ZM149.204 445.4L141.108 434.392L149.204 423H145.236L139.156 431.8L133.044 423H129.108L137.204 434.392L129.108 445.4H133.044L139.156 437.176L145.236 445.4H149.204ZM108.22 434.2C108.22 431.896 109.148 429.88 110.588 428.408C112.092 426.904 114.172 425.976 116.38 425.976C118.588 425.976 120.636 426.904 122.108 428.408C123.58 429.88 124.508 431.928 124.508 434.2C124.508 436.472 123.58 438.52 122.108 439.992C120.636 441.496 118.588 442.424 116.38 442.424C114.172 442.424 112.092 441.496 110.588 439.992C109.148 438.52 108.22 436.504 108.22 434.2ZM127.772 434.2C127.772 431.032 126.46 428.184 124.444 426.104C122.396 423.992 119.516 422.712 116.38 422.712C113.212 422.712 110.364 423.992 108.284 426.104C106.268 428.184 104.956 431.032 104.956 434.2C104.956 437.368 106.268 440.216 108.284 442.296C110.364 444.376 113.212 445.688 116.38 445.688C119.516 445.688 122.396 444.376 124.444 442.296C126.46 440.216 127.772 437.368 127.772 434.2ZM85.3329 426.168V445.4H98.6449L99.5089 432.216C99.7009 430.168 100.149 427.288 101.429 425.944L103.221 425.592V419.416H99.9889V423H86.6769V419.416H83.5089V426.168H85.3329ZM97.7809 426.168C96.3409 428.12 96.2129 430.84 96.0529 434.328L95.5729 442.296H88.6609V426.168H97.7809ZM70.4311 440.536L67.0711 431.704H73.7911L70.4311 440.536ZM63.7431 423H60.2871L69.2791 445.688H71.6471L80.6391 423H77.1511L74.9751 428.664H65.8871L63.7431 423Z" fill="#292929"/>
<path d="M302.355 136.48H298.155C294.515 136.48 293.115 134.16 293.115 132.16C293.115 129.84 294.955 127.4 299.395 127.4C302.915 127.4 304.755 129.4 305.115 131.64L308.875 130.96C308.235 127.12 305.395 123.64 299.395 123.64C292.675 123.64 289.155 127.72 289.115 131.76C289.075 134.76 290.355 137 292.875 138.48C290.835 139.84 290.315 142.12 290.315 144.32C290.355 150 294.835 152.28 299.635 152.28C303.355 152.28 307.075 150.16 308.075 145.92L304.435 145.04C303.915 147.2 301.755 148.4 299.635 148.4C296.995 148.4 294.315 147.36 294.315 144.32C294.315 142.48 295.355 140.2 298.155 140.2H302.355V136.48ZM273.789 145.92L269.589 134.88H277.989L273.789 145.92ZM265.429 124H261.109L272.349 152.36H275.309L286.549 124H282.189L279.469 131.08H268.109L265.429 124ZM257.299 152V124H253.219V148.04L241.459 148.04V124L237.339 124V152L257.299 152ZM221.758 145.36L213.478 124H209.078L220.318 152.36H223.278L234.518 124H230.118L221.758 145.36ZM193.515 145.92L189.315 134.88H197.715L193.515 145.92ZM185.155 124H180.835L192.075 152.36H195.035L206.275 124H201.915L199.195 131.08H187.835L185.155 124ZM169.405 124V148.16H160.965V152H181.925V148.16H173.445V124H169.405ZM136.606 124V152L139.726 152L153.366 132.28V152H157.366V124H154.166L140.646 143.56V124H136.606ZM120.499 124V148.16H112.059V152H133.019V148.16H124.539V124L120.499 124ZM104.66 136H91.9798V140.08H104.66V147.96H91.6998V152H108.74V124H91.6598V128.04H104.66V136ZM242.247 95.16C241.767 98.28 239.967 100.52 236.527 100.52C230.007 100.52 228.927 93.88 233.327 90.72H233.287L246.447 79.12V76H226.807V79.88H239.647L230.607 87.64C223.047 92.92 225.927 104.56 236.527 104.56C242.367 104.56 245.567 100.48 246.287 95.48L242.247 95.16ZM211.907 100.28C207.387 100.28 205.347 95.52 205.347 89.96C205.347 84.68 207.387 79.68 211.907 79.68C216.427 79.68 218.387 84.68 218.387 89.96C218.387 95.52 216.427 100.28 211.907 100.28ZM211.907 75.72C204.787 75.72 201.187 82.84 201.187 89.96C201.187 97.12 204.787 104.28 211.907 104.28C219.067 104.28 222.587 97.12 222.587 89.96C222.587 82.84 219.067 75.72 211.907 75.72ZM186.829 100.28C182.309 100.28 180.269 95.52 180.269 89.96C180.269 84.68 182.309 79.68 186.829 79.68C191.349 79.68 193.309 84.68 193.309 89.96C193.309 95.52 191.349 100.28 186.829 100.28ZM186.829 75.72C179.709 75.72 176.109 82.84 176.109 89.96C176.109 97.12 179.709 104.28 186.829 104.28C193.989 104.28 197.509 97.12 197.509 89.96C197.509 82.84 193.989 75.72 186.829 75.72ZM172.808 104L172.808 76H168.728V85.32L162.568 85.32C156.528 85.32 153.488 89.96 153.488 94.64C153.488 99.32 156.528 104 162.568 104H172.808ZM168.728 89.32V99.92H162.568C159.168 99.92 157.488 97.28 157.488 94.6C157.488 91.96 159.168 89.32 162.568 89.32L168.728 89.32Z" fill="#292929"/>
<g clip-path="url(#clip1_8_46271)">
<path d="M259.31 277.839C260.643 277.348 261.33 275.871 260.844 274.533L259.222 270.069L246.869 282.422L259.31 277.839Z" fill="#E4E4E4"/>
<path d="M247.618 238.161L240.178 217.701C239.946 217.055 239.46 216.528 238.84 216.244C238.494 216.084 238.122 216.001 237.75 216.001C237.445 216.001 237.146 216.053 236.856 216.161L228.647 219.189L247.618 238.161Z" fill="#292929"/>
<path d="M137.159 255.628L145.673 279.038L166.106 258.604L155.98 262.335C154.652 262.841 153.154 262.149 152.663 260.805C152.167 259.467 152.854 257.979 154.193 257.488L167.057 252.746C167.352 252.637 167.651 252.585 167.951 252.585C169 252.585 169.992 253.231 170.374 254.275C170.379 254.29 170.374 254.306 170.379 254.321L192.032 232.669L138.693 252.322C137.355 252.813 136.668 254.29 137.159 255.628Z" fill="#292929"/>
<path d="M137.758 297.911L179.09 339.243C180.097 340.25 181.735 340.25 182.743 339.243L260.24 261.746C261.247 260.738 261.247 259.1 260.24 258.093L218.908 216.761C218.407 216.255 217.745 216.001 217.084 216.001C216.423 216.001 215.762 216.255 215.255 216.756L137.758 294.253C136.75 295.266 136.75 296.898 137.758 297.911ZM230.755 268.421L241.088 258.088C241.594 257.587 242.255 257.333 242.917 257.333C243.578 257.333 244.239 257.586 244.746 258.088C245.753 259.095 245.753 260.733 244.746 261.741L234.412 272.074C233.405 273.081 231.767 273.081 230.76 272.074C229.752 271.066 229.747 269.433 230.755 268.421ZM186.142 265.14C187.971 263.311 190.456 262.433 193.22 262.433C197.787 262.433 203.124 264.825 207.588 269.294C210.854 272.559 213.147 276.465 214.041 280.288C215.033 284.55 214.217 288.26 211.742 290.74C209.267 293.22 205.558 294.036 201.29 293.039C197.467 292.145 193.561 289.856 190.296 286.586C183.12 279.415 181.291 269.991 186.142 265.14ZM153.257 294.253L163.59 283.92C164.097 283.419 164.758 283.166 165.419 283.166C166.081 283.166 166.742 283.419 167.248 283.92C168.256 284.928 168.256 286.565 167.248 287.573L156.915 297.906C155.908 298.913 154.27 298.913 153.262 297.906C152.255 296.898 152.25 295.266 153.257 294.253Z" fill="#292929"/>
</g>
</g>
<rect x="395" y="602" width="392" height="600" transform="rotate(-180 395 602)" stroke="#292929" stroke-width="5"/>
<defs>
<clipPath id="clip0_8_46271">
<rect x="395" y="602" width="392" height="600" transform="rotate(-180 395 602)" fill="white"/>
</clipPath>
<clipPath id="clip1_8_46271">
<rect width="124" height="124" fill="white" transform="matrix(-1 0 0 -1 261 340)"/>
</clipPath>
</defs>
</svg>
