<svg width="398" height="605" viewBox="0 0 398 605" fill="none" xmlns="http://www.w3.org/2000/svg">
<rect x="395" y="602" width="392" height="600" transform="rotate(-180 395 602)" fill="white"/>
<rect x="395" y="602" width="392" height="100" transform="rotate(-180 395 602)" fill="white"/>
<path d="M274.537 445.4V423H271.273V430.456H266.345C261.513 430.456 259.081 434.168 259.081 437.912C259.081 441.656 261.513 445.4 266.345 445.4H274.537ZM271.273 433.656V442.136H266.345C263.625 442.136 262.281 440.024 262.281 437.88C262.281 435.768 263.625 433.656 266.345 433.656H271.273ZM239.357 423V445.4H241.853L252.765 429.624V445.4H255.965V423H253.405L242.589 438.648V423H239.357ZM224.391 445.4V423H221.127V445.4H224.391ZM220.519 433.368L212.679 423H208.647L217.287 434.264L209.479 445.4H213.287L220.519 435V433.368ZM225.031 435L232.263 445.4H236.071L228.263 434.264L236.903 423H232.871L225.031 433.368V435ZM207.256 434.136C207.256 430.744 205.976 428.216 204.056 426.168C202.104 424.12 199.352 422.84 196.312 422.84C191.096 422.84 187 426.296 185.72 431.384H188.888C190.04 427.992 192.92 426.04 196.312 426.04C198.456 426.04 200.408 426.968 201.816 428.44C203.224 429.912 204.12 431.608 204.12 434.136C204.12 438.168 201.304 442.424 196.312 442.424C193.016 442.424 190.264 440.728 189.08 437.368H185.88C187.16 442.424 191.192 445.624 196.312 445.624C202.264 445.624 207.256 440.664 207.256 434.136ZM182.88 445.4V423H179.616V445.4H182.88ZM179.008 433.368L170.464 423H166.24L175.68 434.264L167.136 445.4H171.104L179.008 435V433.368ZM155.04 440.536L151.68 431.704H158.4L155.04 440.536ZM148.352 423H144.896L153.888 445.688H156.256L165.248 423H161.76L159.584 428.664H150.496L148.352 423ZM130.993 434.36H134.769C137.489 434.36 138.833 436.312 138.833 438.264C138.833 440.184 137.489 442.136 134.769 442.136H129.809V423H126.609V445.4H134.769C139.633 445.4 142.065 441.816 142.065 438.264C142.065 435.096 140.113 432.088 136.273 431.416L143.345 423H139.153L130.993 432.824V434.36ZM341.079 407.4V385H337.815V407.4H341.079ZM337.207 395.368L329.367 385H325.335L333.975 396.264L326.167 407.4H329.975L337.207 397V395.368ZM341.719 397L348.951 407.4H352.759L344.951 396.264L353.591 385H349.559L341.719 395.368V397ZM319.8 394.6H309.656V397.864H319.8V404.168H309.432V407.4H323.064V385H309.4V388.232H319.8V394.6ZM296.54 402.088L289.917 385H286.396L295.388 407.688H297.756L306.748 385H303.228L296.54 402.088ZM280.675 394.6H270.531V397.864H280.675V404.168H270.307V407.4H283.939V385H270.275V388.232H280.675V394.6ZM262.487 394.984H259.127C256.215 394.984 255.095 393.128 255.095 391.528C255.095 389.672 256.567 387.72 260.119 387.72C262.935 387.72 264.407 389.32 264.695 391.112L267.703 390.568C267.191 387.496 264.919 384.712 260.119 384.712C254.743 384.712 251.927 387.976 251.895 391.208C251.863 393.608 252.887 395.4 254.903 396.584C253.271 397.672 252.855 399.496 252.855 401.256C252.887 405.8 256.471 407.624 260.311 407.624C263.287 407.624 266.263 405.928 267.063 402.536L264.151 401.832C263.735 403.56 262.007 404.52 260.311 404.52C258.199 404.52 256.055 403.688 256.055 401.256C256.055 399.784 256.887 397.96 259.127 397.96H262.487V394.984ZM244.929 407.4H248.161V385H244.929V394.728H235.457V385H232.193V407.4H235.457V397.928H244.929V407.4ZM219.728 402.536L216.368 393.704H223.088L219.728 402.536ZM213.04 385H209.584L218.576 407.688H220.944L229.936 385H226.448L224.272 390.664L215.184 390.664L213.04 385ZM195.681 396.36H199.457C202.177 396.36 203.521 398.312 203.521 400.264C203.521 402.184 202.177 404.136 199.457 404.136H194.497L194.497 385H191.297L191.297 407.4H199.457C204.321 407.4 206.753 403.816 206.753 400.264C206.753 397.096 204.801 394.088 200.961 393.416L208.033 385H203.841L195.681 394.824V396.36ZM162.63 388.168L162.63 407.4H175.942L176.806 394.216C176.998 392.168 177.446 389.288 178.726 387.944L180.518 387.592V381.416H177.286V385H163.974V381.416H160.806V388.168H162.63ZM175.078 388.168C173.638 390.12 173.51 392.84 173.35 396.328L172.87 404.296H165.958L165.958 388.168H175.078ZM139.079 396.2C139.079 393.896 140.007 391.88 141.447 390.408C142.951 388.904 145.031 387.976 147.239 387.976C149.447 387.976 151.495 388.904 152.967 390.408C154.439 391.88 155.367 393.928 155.367 396.2C155.367 398.472 154.439 400.52 152.967 401.992C151.495 403.496 149.447 404.424 147.239 404.424C145.031 404.424 142.951 403.496 141.447 401.992C140.007 400.52 139.079 398.504 139.079 396.2ZM158.632 396.2C158.632 393.032 157.319 390.184 155.303 388.104C153.255 385.992 150.375 384.712 147.239 384.712C144.071 384.712 141.223 385.992 139.143 388.104C137.127 390.184 135.815 393.032 135.815 396.2C135.815 399.368 137.127 402.216 139.143 404.296C141.223 406.376 144.071 407.688 147.239 407.688C150.375 407.688 153.255 406.376 155.303 404.296C157.319 402.216 158.632 399.368 158.632 396.2ZM132.568 407.4L132.568 385H129.304L129.304 392.456H124.376C119.544 392.456 117.112 396.168 117.112 399.912C117.112 403.656 119.544 407.4 124.376 407.4H132.568ZM129.304 395.656V404.136H124.376C121.656 404.136 120.312 402.024 120.312 399.88C120.312 397.768 121.656 395.656 124.376 395.656H129.304ZM94.892 396.2C94.892 393.896 95.82 391.88 97.26 390.408C98.764 388.904 100.844 387.976 103.052 387.976C105.26 387.976 107.308 388.904 108.78 390.408C110.252 391.88 111.18 393.928 111.18 396.2C111.18 398.472 110.252 400.52 108.78 401.992C107.308 403.496 105.26 404.424 103.052 404.424C100.844 404.424 98.764 403.496 97.26 401.992C95.82 400.52 94.892 398.504 94.892 396.2ZM114.444 396.2C114.444 393.032 113.132 390.184 111.116 388.104C109.068 385.992 106.188 384.712 103.052 384.712C99.884 384.712 97.036 385.992 94.956 388.104C92.94 390.184 91.628 393.032 91.628 396.2C91.628 399.368 92.94 402.216 94.956 404.296C97.036 406.376 99.884 407.688 103.052 407.688C106.188 407.688 109.068 406.376 111.116 404.296C113.132 402.216 114.444 399.368 114.444 396.2ZM84.9247 404.264H74.5567V407.4H88.1887V385H84.9247V404.264ZM65.3217 402.536L61.9617 393.704H68.6817L65.3217 402.536ZM58.6337 385H55.1777L64.1697 407.688H66.5377L75.5297 385H72.0417L69.8657 390.664H60.7777L58.6337 385Z" fill="#292929"/>
<path d="M251.297 101.992C250.721 105.736 248.561 108.424 244.433 108.424C236.609 108.424 235.313 100.456 240.593 96.664H240.545L256.337 82.744V79H232.769V83.656H248.177L237.329 92.968C228.257 99.304 231.713 113.272 244.433 113.272C251.441 113.272 255.281 108.376 256.145 102.376L251.297 101.992ZM214.888 108.136C209.464 108.136 207.016 102.424 207.016 95.752C207.016 89.416 209.464 83.416 214.888 83.416C220.312 83.416 222.664 89.416 222.664 95.752C222.664 102.424 220.312 108.136 214.888 108.136ZM214.888 78.664C206.344 78.664 202.024 87.208 202.024 95.752C202.024 104.344 206.344 112.936 214.888 112.936C223.48 112.936 227.704 104.344 227.704 95.752C227.704 87.208 223.48 78.664 214.888 78.664ZM184.794 108.136C179.37 108.136 176.922 102.424 176.922 95.752C176.922 89.416 179.37 83.416 184.794 83.416C190.218 83.416 192.57 89.416 192.57 95.752C192.57 102.424 190.218 108.136 184.794 108.136ZM184.794 78.664C176.25 78.664 171.93 87.208 171.93 95.752C171.93 104.344 176.25 112.936 184.794 112.936C193.386 112.936 197.61 104.344 197.61 95.752C197.61 87.208 193.386 78.664 184.794 78.664ZM167.97 112.6V79H163.074V90.184H155.682C148.434 90.184 144.786 95.752 144.786 101.368C144.786 106.984 148.434 112.6 155.682 112.6H167.97ZM163.074 94.984V107.704H155.682C151.602 107.704 149.586 104.536 149.586 101.32C149.586 98.152 151.602 94.984 155.682 94.984H163.074Z" fill="#292929"/>
<path d="M139.067 230.463H163.867H186.6L209.333 230.463H232.067H258.933C260.076 230.463 261 229.537 261 228.397C261 227.256 260.076 226.33 258.933 226.33L139.067 226.33C137.924 226.33 137 227.256 137 228.397C137 229.537 137.924 230.463 139.067 230.463Z" fill="#E4E4E4"/>
<path d="M145.267 249.063L217.6 249.063C218.741 249.063 219.667 249.989 219.667 251.13V277.996C219.667 279.137 220.593 280.063 221.733 280.063H246.533C247.674 280.063 248.6 279.137 248.6 277.996V271.796C248.6 270.848 247.955 270.021 247.035 269.792L240.333 268.116V249.063H250.667C251.807 249.063 252.733 248.137 252.733 246.996V240.796C252.733 239.656 251.807 238.73 250.667 238.73H240.333C240.333 234.171 236.626 230.463 232.067 230.463C227.508 230.463 223.8 234.171 223.8 238.73H217.6C217.6 234.171 213.892 230.463 209.334 230.463C204.774 230.463 201.067 234.171 201.067 238.73H194.867C194.867 234.171 191.159 230.463 186.6 230.463C182.041 230.463 178.334 234.171 178.334 238.73H172.134C172.134 234.171 168.426 230.463 163.867 230.463C159.308 230.463 155.601 234.171 155.601 238.73H145.267C144.126 238.73 143.201 239.656 143.201 240.796V246.996C143.2 248.137 144.126 249.063 145.267 249.063Z" fill="#292929"/>
<path d="M151.467 273.863H161.8V277.997C161.8 280.712 163.565 283 166.001 283.837C165.875 284.225 165.743 284.612 165.685 285.038C165.383 287.274 166.103 289.44 167.597 291.014C166.973 293.135 167.024 295.811 168.498 297.934C169.213 298.963 170.736 300.474 173.646 300.784C173.311 304.111 174.605 307.333 177.316 309.631C180.646 312.45 185.18 313.254 189.262 311.921C189.644 312.845 190.204 313.599 190.942 314.173C191.833 314.868 192.91 315.267 194.199 315.376C193.707 318.586 194.404 321.746 196.239 324.358C198.686 327.838 202.704 329.803 207.267 329.663C212.167 329.663 217.048 327.009 219.415 323.06C221.113 320.218 221.364 316.98 220.165 313.787C225.098 309.67 225.615 304.148 223.788 300.24C221.926 296.251 217.251 293.046 210.739 294.152C209.889 292.457 208.282 290.899 206.219 289.867C203.367 288.441 200.139 288.21 197.099 289.148C196.789 287.211 195.815 285.816 194.871 284.88C191.196 281.237 184.269 280.799 178.925 281.931C177.561 280.861 175.75 280.156 173.872 279.892C174.068 279.292 174.2 278.662 174.2 277.996V273.863H184.988C186.098 276.293 189.136 277.996 192.8 277.996C196.465 277.996 199.503 276.294 200.612 273.863H213.467C214.608 273.863 215.533 272.937 215.533 271.796L215.533 253.196H151.467C147.933 253.196 145.267 257.638 145.267 263.53C145.267 269.422 147.933 273.863 151.467 273.863Z" fill="#292929"/>
<rect x="395" y="602" width="392" height="600" transform="rotate(-180 395 602)" stroke="#292929" stroke-width="5"/>
</svg>
