<svg width="398" height="605" viewBox="0 0 398 605" fill="none" xmlns="http://www.w3.org/2000/svg">
<rect x="395" y="602" width="392" height="600" transform="rotate(-180 395 602)" fill="white"/>
<path d="M366.129 442.328H360.017C356.497 442.328 356.561 436.472 360.081 436.472H366.129V442.328ZM369.329 445.4V423H359.217C354.929 423 352.721 426.392 352.721 429.752C352.721 431.864 353.681 434.232 356.241 435.32C351.985 438.488 354.705 445.4 360.017 445.4H369.329ZM366.129 433.272H359.217C357.041 433.272 355.953 431.48 355.953 429.72C355.953 427.96 357.041 426.136 359.217 426.136H366.129V433.272ZM341.369 440.536L338.009 431.704H344.729L341.369 440.536ZM334.681 423H331.225L340.217 445.688H342.585L351.577 423H348.089L345.913 428.664H336.825L334.681 423ZM328.584 445.4V423H325.32V430.456H320.392C315.56 430.456 313.128 434.168 313.128 437.912C313.128 441.656 315.56 445.4 320.392 445.4H328.584ZM325.32 433.656V442.136H320.392C317.672 442.136 316.328 440.024 316.328 437.88C316.328 435.768 317.672 433.656 320.392 433.656H325.32ZM310.019 445.4V423H284.931V445.4H288.355V425.944H295.779V445.4H299.171V425.944H306.595V445.4H310.019ZM271.744 440.536L268.384 431.704H275.104L271.744 440.536ZM265.056 423H261.6L270.592 445.688H272.96L281.952 423H278.464L276.288 428.664H267.2L265.056 423ZM255.504 442.328L249.392 442.328C245.872 442.328 245.936 436.472 249.456 436.472L255.504 436.472V442.328ZM258.704 445.4V423H248.592C244.304 423 242.096 426.392 242.096 429.752C242.096 431.864 243.056 434.232 245.616 435.32C241.36 438.488 244.08 445.4 249.392 445.4L258.704 445.4ZM255.504 433.272H248.592C246.416 433.272 245.328 431.48 245.328 429.72C245.328 427.96 246.416 426.136 248.592 426.136H255.504V433.272ZM239.24 434.136C239.24 430.744 237.96 428.216 236.04 426.168C234.088 424.12 231.336 422.84 228.296 422.84C223.08 422.84 218.984 426.296 217.704 431.384H220.872C222.024 427.992 224.904 426.04 228.296 426.04C230.44 426.04 232.392 426.968 233.8 428.44C235.208 429.912 236.104 431.608 236.104 434.136C236.104 438.168 233.288 442.424 228.296 442.424C225 442.424 222.248 440.728 221.064 437.368H217.864C219.144 442.424 223.176 445.624 228.296 445.624C234.248 445.624 239.24 440.664 239.24 434.136ZM214.864 445.4V423H211.6V445.4H214.864ZM210.992 433.368L202.448 423H198.224L207.664 434.264L199.12 445.4H203.088L210.992 435V433.368ZM178.345 434.2C178.345 431.896 179.273 429.88 180.713 428.408C182.217 426.904 184.297 425.976 186.505 425.976C188.713 425.976 190.761 426.904 192.233 428.408C193.705 429.88 194.633 431.928 194.633 434.2C194.633 436.472 193.705 438.52 192.233 439.992C190.761 441.496 188.713 442.424 186.505 442.424C184.297 442.424 182.217 441.496 180.713 439.992C179.273 438.52 178.345 436.504 178.345 434.2ZM197.897 434.2C197.897 431.032 196.585 428.184 194.569 426.104C192.521 423.992 189.641 422.712 186.505 422.712C183.337 422.712 180.489 423.992 178.409 426.104C176.393 428.184 175.081 431.032 175.081 434.2C175.081 437.368 176.393 440.216 178.409 442.296C180.489 444.376 183.337 445.688 186.505 445.688C189.641 445.688 192.521 444.376 194.569 442.296C196.585 440.216 197.897 437.368 197.897 434.2ZM168.378 432.6H158.234V435.864H168.378V442.168H158.01V445.4H171.642V423H157.978V426.232H168.378V432.6ZM146.925 445.4V423H121.837V445.4H125.261V425.944H132.685V445.4H136.077V425.944H143.501V445.4H146.925ZM99.0014 434.2C99.0014 431.896 99.9294 429.88 101.369 428.408C102.873 426.904 104.953 425.976 107.161 425.976C109.369 425.976 111.417 426.904 112.889 428.408C114.361 429.88 115.289 431.928 115.289 434.2C115.289 436.472 114.361 438.52 112.889 439.992C111.417 441.496 109.369 442.424 107.161 442.424C104.953 442.424 102.873 441.496 101.369 439.992C99.9294 438.52 99.0014 436.504 99.0014 434.2ZM118.553 434.2C118.553 431.032 117.241 428.184 115.225 426.104C113.177 423.992 110.297 422.712 107.161 422.712C103.993 422.712 101.145 423.992 99.0654 426.104C97.0494 428.184 95.7374 431.032 95.7374 434.2C95.7374 437.368 97.0494 440.216 99.0654 442.296C101.145 444.376 103.993 445.688 107.161 445.688C110.297 445.688 113.177 444.376 115.225 442.296C117.241 440.216 118.553 437.368 118.553 434.2ZM92.8339 434.136C92.8339 430.744 91.5539 428.216 89.6339 426.168C87.6819 424.12 84.9299 422.84 81.8899 422.84C76.6739 422.84 72.5779 426.296 71.2979 431.384H74.4659C75.6179 427.992 78.4979 426.04 81.8899 426.04C84.0339 426.04 85.9859 426.968 87.3939 428.44C88.8019 429.912 89.6979 431.608 89.6979 434.136C89.6979 438.168 86.8819 442.424 81.8899 442.424C78.5939 442.424 75.8419 440.728 74.6579 437.368H71.4579C72.7379 442.424 76.7699 445.624 81.8899 445.624C87.8419 445.624 92.8339 440.664 92.8339 434.136ZM68.4901 434.136C68.4901 430.744 67.2101 428.216 65.2901 426.168C63.3381 424.12 60.5861 422.84 57.5461 422.84C52.3301 422.84 48.2341 426.296 46.9541 431.384H50.1221C51.2741 427.992 54.1541 426.04 57.5461 426.04C59.6901 426.04 61.6421 426.968 63.0501 428.44C64.4581 429.912 65.3541 431.608 65.3541 434.136C65.3541 438.168 62.5381 442.424 57.5461 442.424C54.2501 442.424 51.4981 440.728 50.3141 437.368H47.1141C48.3941 442.424 52.4261 445.624 57.5461 445.624C63.4981 445.624 68.4901 440.664 68.4901 434.136ZM40.6904 432.6H30.5464V435.864H40.6904V442.168H30.3224V445.4H43.9544V423H30.2904V426.232H40.6904V432.6Z" fill="#292929"/>
<path d="M238.444 79V112.744H242.332L251.404 99.976L247.756 97.336L243.244 103.48V79H238.444ZM219.685 108.136C214.261 108.136 211.813 102.424 211.813 95.752C211.813 89.416 214.261 83.416 219.685 83.416C225.109 83.416 227.461 89.416 227.461 95.752C227.461 102.424 225.109 108.136 219.685 108.136ZM219.685 78.664C211.141 78.664 206.821 87.208 206.821 95.752C206.821 104.344 211.141 112.936 219.685 112.936C228.277 112.936 232.501 104.344 232.501 95.752C232.501 87.208 228.277 78.664 219.685 78.664ZM189.591 108.136C184.167 108.136 181.719 102.424 181.719 95.752C181.719 89.416 184.167 83.416 189.591 83.416C195.015 83.416 197.367 89.416 197.367 95.752C197.367 102.424 195.015 108.136 189.591 108.136ZM189.591 78.664C181.047 78.664 176.727 87.208 176.727 95.752C176.727 104.344 181.047 112.936 189.591 112.936C198.183 112.936 202.407 104.344 202.407 95.752C202.407 87.208 198.183 78.664 189.591 78.664ZM172.766 112.6V79H167.87V90.184H160.478C153.23 90.184 149.582 95.752 149.582 101.368C149.582 106.984 153.23 112.6 160.478 112.6L172.766 112.6ZM167.87 94.984V107.704H160.478C156.398 107.704 154.382 104.536 154.382 101.32C154.382 98.152 156.398 94.984 160.478 94.984H167.87Z" fill="#292929"/>
<g clip-path="url(#clip0_8_48249)">
<path d="M138.969 283.95L196.319 338.923C197.816 340.36 200.184 340.36 201.681 338.923L259.088 283.893C260.303 282.679 261 281.005 261 279.295C261 275.735 258.101 272.836 254.541 272.836H245.5V226.336C245.5 220.628 240.876 216.003 235.166 216.003L162.834 216.003C157.124 216.003 152.5 220.628 152.5 226.336L152.5 272.836H143.459C139.899 272.836 137 275.735 137 279.295C137 281.005 137.697 282.679 138.969 283.95Z" fill="#E8B5BB"/>
</g>
<rect x="395" y="602" width="392" height="600" transform="rotate(-180 395 602)" stroke="#292929" stroke-width="5"/>
<defs>
<clipPath id="clip0_8_48249">
<rect width="124" height="124" fill="white" transform="matrix(-1 0 0 -1 261 340)"/>
</clipPath>
</defs>
</svg>
