<svg width="398" height="605" viewBox="0 0 398 605" fill="none" xmlns="http://www.w3.org/2000/svg">
<rect x="395" y="602" width="392" height="600" transform="rotate(-180 395 602)" fill="white"/>
<rect x="395" y="602" width="392" height="100" transform="rotate(-180 395 602)" fill="white"/>
<path d="M245.347 445.4V423H220.259V445.4H223.683V425.944H231.107V445.4H234.499V425.944H241.923V445.4H245.347ZM207.072 440.536L203.712 431.704H210.432L207.072 440.536ZM200.384 423H196.928L205.92 445.688H208.288L217.28 423H213.792L211.616 428.664H202.528L200.384 423ZM191.648 445.4H194.88V423H191.648V432.728H182.176V423H178.912V445.4H182.176V435.928H191.648V445.4ZM175.855 434.136C175.855 431.032 174.575 428.216 172.655 426.168C170.703 424.12 167.951 422.84 164.911 422.84C159.695 422.84 155.599 426.296 154.319 431.384H157.487C158.639 427.992 161.519 426.04 164.911 426.04C167.055 426.04 169.007 426.968 170.415 428.44C171.823 429.912 172.719 431.896 172.719 434.136C172.719 436.44 171.823 438.424 170.415 439.896C169.007 441.368 167.055 442.296 164.911 442.296C161.615 442.296 158.863 440.6 157.679 437.24H154.479C155.759 442.296 159.791 445.496 164.911 445.496C167.951 445.496 170.703 444.184 172.655 442.168C174.575 440.12 175.855 437.304 175.855 434.136Z" fill="#292929"/>
<path d="M205.54 227.622L172.714 216.379L143.975 245.117L177.028 256.134L205.54 227.622ZM190.759 229.377C192.498 227.638 195.331 226.885 197.089 227.696C198.846 228.507 198.862 230.573 197.122 232.312C195.383 234.05 192.55 234.803 190.792 233.992C189.034 233.181 189.02 231.115 190.759 229.377ZM180.159 225.663C181.897 223.925 184.731 223.172 186.489 223.983C188.245 224.794 188.262 226.86 186.522 228.599C184.782 230.337 181.95 231.09 180.192 230.279C178.435 229.468 178.42 227.402 180.159 225.663ZM158.786 242.289C157.048 244.028 154.214 244.781 152.456 243.97C150.7 243.159 150.683 241.093 152.422 239.354C154.16 237.615 156.994 236.863 158.752 237.674C160.51 238.485 160.525 240.551 158.786 242.289ZM169.355 245.763C167.616 247.502 164.783 248.255 163.025 247.444C161.269 246.633 161.252 244.567 162.992 242.828C164.731 241.09 167.564 240.337 169.322 241.148C171.079 241.959 171.094 244.025 169.355 245.763ZM169.622 226.805C167.866 225.994 167.85 223.928 169.589 222.189C171.328 220.451 174.161 219.698 175.92 220.509C177.678 221.32 177.692 223.386 175.954 225.124C174.214 226.861 171.381 227.614 169.622 226.805ZM173.625 251.158C171.869 250.347 171.853 248.282 173.593 246.543C175.331 244.804 178.164 244.052 179.923 244.863C181.679 245.674 181.695 247.739 179.956 249.478C178.217 251.217 175.383 251.968 173.625 251.158Z" fill="#F2AD2E"/>
<path d="M143.442 249.088L154.295 281.648L186.854 292.502L176.002 259.944L143.442 249.088ZM167.619 274.619C166.403 275.835 163.96 275.364 162.162 273.566C160.363 271.767 159.891 269.324 161.108 268.108C162.324 266.892 164.768 267.363 166.566 269.161C168.365 270.959 168.837 273.403 167.619 274.619Z" fill="#F2AD2E"/>
<path d="M221.329 340L252.028 324.651L221.329 309.303L190.632 324.651L221.329 340ZM221.329 321.537C223.871 321.537 225.934 322.932 225.934 324.651C225.934 326.372 223.872 327.766 221.329 327.766C218.785 327.766 216.724 326.371 216.724 324.651C216.726 322.931 218.787 321.537 221.329 321.537Z" fill="#F2AD2E"/>
<path d="M213.438 281.151C211.971 281.691 210.745 280.836 210.321 279.195L191.936 297.581L188.2 296.335V321.467L219.362 305.885V270.154L216.212 273.304C216.533 273.874 216.726 274.611 216.726 275.485C216.726 277.945 215.253 280.481 213.438 281.151ZM193.386 314.659C191.57 315.328 190.098 313.878 190.098 311.419C190.098 308.961 191.57 306.425 193.386 305.755C195.202 305.086 196.673 306.537 196.673 308.995C196.674 311.454 195.202 313.99 193.386 314.659ZM202.754 298.574C200.938 299.243 199.467 297.793 199.467 295.334C199.467 292.876 200.938 290.34 202.754 289.67C204.57 289.001 206.042 290.452 206.042 292.91C206.042 295.368 204.569 297.905 202.754 298.574ZM216.726 299.107C216.726 301.566 215.255 304.102 213.438 304.771C211.622 305.44 210.151 303.99 210.151 301.532C210.151 299.073 211.622 296.537 213.438 295.868C215.254 295.198 216.726 296.649 216.726 299.107Z" fill="#F2AD2E"/>
<path d="M254.461 280.827L223.738 265.78L223.298 266.22V305.885L254.461 321.467V280.827ZM229.298 281.151C227.482 280.481 226.01 277.945 226.01 275.487C226.01 273.028 227.482 271.578 229.298 272.247C231.114 272.916 232.585 275.453 232.585 277.911C232.585 280.369 231.112 281.82 229.298 281.151ZM238.879 299.071C237.063 298.402 235.592 295.866 235.592 293.408C235.592 290.949 237.063 289.499 238.879 290.168C240.696 290.837 242.167 293.373 242.167 295.832C242.167 298.29 240.694 299.741 238.879 299.071ZM248.74 314.659C246.924 313.99 245.453 311.454 245.453 308.995C245.453 306.537 246.924 305.086 248.74 305.755C250.557 306.425 252.028 308.961 252.028 311.419C252.028 313.878 250.557 315.328 248.74 314.659Z" fill="#F2AD2E"/>
<path d="M190.828 291.97L219.567 263.234L208.323 230.405L179.811 258.92L190.828 291.97ZM203.101 241.232C204.84 239.493 206.907 239.508 207.716 241.266C208.526 243.024 207.775 245.858 206.036 247.596C204.297 249.335 202.23 249.32 201.421 247.563C200.611 245.807 201.362 242.97 203.101 241.232ZM193.512 275.303C195.251 273.564 197.318 273.579 198.127 275.336C198.938 277.092 198.186 279.927 196.447 281.666C194.708 283.405 192.641 283.39 191.832 281.633C191.02 279.875 191.773 277.042 193.512 275.303Z" fill="#F2AD2E"/>
<rect x="395" y="602" width="392" height="600" transform="rotate(-180 395 602)" stroke="#292929" stroke-width="5"/>
</svg>
