<svg width="398" height="605" viewBox="0 0 398 605" fill="none" xmlns="http://www.w3.org/2000/svg">
<rect x="395" y="602" width="392" height="600" transform="rotate(-180 395 602)" fill="white"/>
<path d="M314.772 422.968L304.692 445.4H308.372L311.828 437.336L313.268 433.784L314.932 437.368L318.9 445.4H322.548L315.124 430.168L318.292 422.968H314.772ZM295.65 440.088L289.026 423H285.506L294.498 445.688H296.866L305.858 423H302.338L295.65 440.088ZM266.216 423V445.4H268.712L279.624 429.624V445.4H282.824V423H280.264L269.448 438.648V423H266.216ZM247.763 425.976V445.4H251.091V425.976H259.379V445.4H262.675V423H249.107V418.456H245.939V425.976H247.763ZM232.712 440.536L229.352 431.704H236.072L232.712 440.536ZM226.024 423H222.568L231.56 445.688H233.928L242.92 423H239.432L237.256 428.664H228.168L226.024 423ZM193.064 434.2C193.064 431.896 193.992 429.88 195.432 428.408C196.936 426.904 199.016 425.976 201.224 425.976C203.432 425.976 205.48 426.904 206.952 428.408C208.424 429.88 209.352 431.928 209.352 434.2C209.352 436.472 208.424 438.52 206.952 439.992C205.48 441.496 203.432 442.424 201.224 442.424C199.016 442.424 196.936 441.496 195.432 439.992C193.992 438.52 193.064 436.504 193.064 434.2ZM212.616 434.2C212.616 431.032 211.304 428.184 209.288 426.104C207.24 423.992 204.36 422.712 201.224 422.712C198.056 422.712 195.208 423.992 193.128 426.104C191.112 428.184 189.8 431.032 189.8 434.2C189.8 437.368 191.112 440.216 193.128 442.296C195.208 444.376 198.056 445.688 201.224 445.688C204.36 445.688 207.24 444.376 209.288 442.296C211.304 440.216 212.616 437.368 212.616 434.2ZM183.097 442.264H172.729V445.4H186.361V423H183.097V442.264ZM163.494 440.536L160.134 431.704H166.854L163.494 440.536ZM156.806 423H153.35L162.342 445.688H164.71L173.702 423H170.214L168.038 428.664H158.95L156.806 423ZM150.709 445.4V423H147.445V430.456H142.517C137.685 430.456 135.253 434.168 135.253 437.912C135.253 441.656 137.685 445.4 142.517 445.4H150.709ZM147.445 433.656V442.136H142.517C139.797 442.136 138.453 440.024 138.453 437.88C138.453 435.768 139.797 433.656 142.517 433.656H147.445ZM129.097 432.6H118.953V435.864H129.097V442.168H118.729V445.4H132.361V423H118.697V426.232H129.097V432.6ZM112.317 442.328H106.205C102.685 442.328 102.749 436.472 106.269 436.472H112.317V442.328ZM115.517 445.4V423H105.405C101.117 423 98.9089 426.392 98.9089 429.752C98.9089 431.864 99.8689 434.232 102.429 435.32C98.1729 438.488 100.893 445.4 106.205 445.4H115.517ZM112.317 433.272H105.405C103.229 433.272 102.141 431.48 102.141 429.72C102.141 427.96 103.229 426.136 105.405 426.136H112.317V433.272ZM87.5561 440.536L84.1961 431.704H90.9161L87.5561 440.536ZM80.8681 423H77.4121L86.4041 445.688H88.7721L97.7641 423H94.2761L92.1001 428.664H83.0121L80.8681 423Z" fill="#292929"/>
<path d="M238.444 79V112.744H242.332L251.404 99.976L247.756 97.336L243.244 103.48V79H238.444ZM219.685 108.136C214.261 108.136 211.813 102.424 211.813 95.752C211.813 89.416 214.261 83.416 219.685 83.416C225.109 83.416 227.461 89.416 227.461 95.752C227.461 102.424 225.109 108.136 219.685 108.136ZM219.685 78.664C211.141 78.664 206.821 87.208 206.821 95.752C206.821 104.344 211.141 112.936 219.685 112.936C228.277 112.936 232.501 104.344 232.501 95.752C232.501 87.208 228.277 78.664 219.685 78.664ZM189.591 108.136C184.167 108.136 181.719 102.424 181.719 95.752C181.719 89.416 184.167 83.416 189.591 83.416C195.015 83.416 197.367 89.416 197.367 95.752C197.367 102.424 195.015 108.136 189.591 108.136ZM189.591 78.664C181.047 78.664 176.727 87.208 176.727 95.752C176.727 104.344 181.047 112.936 189.591 112.936C198.183 112.936 202.407 104.344 202.407 95.752C202.407 87.208 198.183 78.664 189.591 78.664ZM172.766 112.6V79H167.87V90.184H160.478C153.23 90.184 149.582 95.752 149.582 101.368C149.582 106.984 153.23 112.6 160.478 112.6L172.766 112.6ZM167.87 94.984V107.704H160.478C156.398 107.704 154.382 104.536 154.382 101.32C154.382 98.152 156.398 94.984 160.478 94.984H167.87Z" fill="#292929"/>
<g clip-path="url(#clip0_8_48251)">
<path d="M138.969 283.95L196.319 338.923C197.816 340.36 200.184 340.36 201.681 338.923L259.088 283.893C260.303 282.679 261 281.005 261 279.295C261 275.735 258.101 272.836 254.541 272.836H245.5V226.336C245.5 220.628 240.876 216.003 235.166 216.003L162.834 216.003C157.124 216.003 152.5 220.628 152.5 226.336L152.5 272.836H143.459C139.899 272.836 137 275.735 137 279.295C137 281.005 137.697 282.679 138.969 283.95Z" fill="#E8B5BB"/>
</g>
<rect x="395" y="602" width="392" height="600" transform="rotate(-180 395 602)" stroke="#292929" stroke-width="5"/>
<defs>
<clipPath id="clip0_8_48251">
<rect width="124" height="124" fill="white" transform="matrix(-1 0 0 -1 261 340)"/>
</clipPath>
</defs>
</svg>
