<svg width="398" height="605" viewBox="0 0 398 605" fill="none" xmlns="http://www.w3.org/2000/svg">
<rect x="395" y="602" width="392" height="600" transform="rotate(-180 395 602)" fill="white"/>
<path d="M341.833 445.4V423H338.569V442.232H329.161V423H325.865V445.4H341.833ZM319.128 432.6H308.984V435.864H319.128V442.168H308.76V445.4H322.392V423H308.728V426.232H319.128V432.6ZM305.74 445.4V423H302.476V430.456H297.548C292.716 430.456 290.284 434.168 290.284 437.912C290.284 441.656 292.716 445.4 297.548 445.4H305.74ZM302.476 433.656V442.136H297.548C294.828 442.136 293.484 440.024 293.484 437.88C293.484 435.768 294.828 433.656 297.548 433.656H302.476ZM283.504 442.328H277.392C273.872 442.328 273.936 436.472 277.456 436.472H283.504V442.328ZM286.704 445.4V423H276.592C272.304 423 270.096 426.392 270.096 429.752C270.096 431.864 271.056 434.232 273.616 435.32C269.36 438.488 272.08 445.4 277.392 445.4H286.704ZM283.504 433.272H276.592C274.416 433.272 273.328 431.48 273.328 429.72C273.328 427.96 274.416 426.136 276.592 426.136H283.504V433.272ZM258.744 440.536L255.384 431.704H262.104L258.744 440.536ZM252.056 423H248.6L257.592 445.688H259.96L268.952 423H265.464L263.288 428.664H254.2L252.056 423ZM234.696 434.36H238.472C241.192 434.36 242.536 436.312 242.536 438.264C242.536 440.184 241.192 442.136 238.472 442.136H233.512V423H230.312V445.4H238.472C243.336 445.4 245.768 441.816 245.768 438.264C245.768 435.096 243.816 432.088 239.976 431.416L247.048 423H242.856L234.696 432.824V434.36ZM218.989 445.4V423H215.725V442.232H206.317V423H203.021V445.4H218.989ZM189.869 440.536L186.509 431.704H193.229L189.869 440.536ZM183.181 423H179.725L188.717 445.688H191.085L200.077 423H196.589L194.413 428.664H185.325L183.181 423ZM177.084 445.4V423H173.82V430.456H168.892C164.06 430.456 161.628 434.168 161.628 437.912C161.628 441.656 164.06 445.4 168.892 445.4H177.084ZM173.82 433.656V442.136H168.892C166.172 442.136 164.828 440.024 164.828 437.88C164.828 435.768 166.172 433.656 168.892 433.656H173.82ZM158.896 445.4V423H155.632V445.4H158.896ZM155.024 433.368L146.48 423H142.256L151.696 434.264L143.152 445.4H147.12L155.024 435V433.368ZM122.376 434.2C122.376 431.896 123.304 429.88 124.744 428.408C126.248 426.904 128.328 425.976 130.536 425.976C132.744 425.976 134.792 426.904 136.264 428.408C137.736 429.88 138.664 431.928 138.664 434.2C138.664 436.472 137.736 438.52 136.264 439.992C134.792 441.496 132.744 442.424 130.536 442.424C128.328 442.424 126.248 441.496 124.744 439.992C123.304 438.52 122.376 436.504 122.376 434.2ZM141.928 434.2C141.928 431.032 140.616 428.184 138.6 426.104C136.552 423.992 133.672 422.712 130.536 422.712C127.368 422.712 124.52 423.992 122.44 426.104C120.424 428.184 119.112 431.032 119.112 434.2C119.112 437.368 120.424 440.216 122.44 442.296C124.52 444.376 127.368 445.688 130.536 445.688C133.672 445.688 136.552 444.376 138.6 442.296C140.616 440.216 141.928 437.368 141.928 434.2ZM112.473 442.328H106.361C102.841 442.328 102.905 436.472 106.425 436.472H112.473V442.328ZM115.673 445.4V423H105.561C101.273 423 99.0651 426.392 99.0651 429.752C99.0651 431.864 100.025 434.232 102.585 435.32C98.3291 438.488 101.049 445.4 106.361 445.4H115.673ZM112.473 433.272H105.561C103.385 433.272 102.297 431.48 102.297 429.72C102.297 427.96 103.385 426.136 105.561 426.136H112.473V433.272ZM87.7124 440.536L84.3524 431.704H91.0724L87.7124 440.536ZM81.0244 423H77.5684L86.5604 445.688H88.9284L97.9204 423H94.4324L92.2564 428.664H83.1684L81.0244 423ZM63.6651 434.36H67.4411C70.1611 434.36 71.5051 436.312 71.5051 438.264C71.5051 440.184 70.1611 442.136 67.4411 442.136H62.4811V423H59.2811V445.4H67.4411C72.3051 445.4 74.7371 441.816 74.7371 438.264C74.7371 435.096 72.7851 432.088 68.9451 431.416L76.0171 423H71.8251L63.6651 432.824V434.36ZM246.678 384.968L236.598 407.4H240.278L243.734 399.336L245.174 395.784L246.838 399.368L250.806 407.4H254.454L247.03 392.168L250.198 384.968H246.678ZM227.556 402.088L220.932 385H217.412L226.404 407.688H228.772L237.764 385H234.244L227.556 402.088ZM198.122 385L198.122 407.4H200.618L211.53 391.624L211.53 407.4L214.73 407.4L214.73 385H212.17L201.354 400.648L201.354 385H198.122ZM179.669 387.976L179.669 407.4H182.997L182.997 387.976H191.285L191.285 407.4H194.581L194.581 385H181.013V380.456H177.845V387.976H179.669ZM164.619 402.536L161.259 393.704H167.979L164.619 402.536ZM157.931 385H154.475L163.467 407.688H165.835L174.827 385H171.339L169.163 390.664H160.075L157.931 385Z" fill="#292929"/>
<path d="M237.608 79V112.744H241.496L250.568 99.976L246.92 97.336L242.408 103.48V79H237.608ZM227.836 101.992C227.26 105.736 225.1 108.424 220.972 108.424C213.148 108.424 211.852 100.456 217.132 96.664H217.084L232.876 82.744V79H209.308V83.656H224.716L213.868 92.968C204.796 99.304 208.252 113.272 220.972 113.272C227.98 113.272 231.82 108.376 232.684 102.376L227.836 101.992ZM191.427 108.136C186.003 108.136 183.555 102.424 183.555 95.752C183.555 89.416 186.003 83.416 191.427 83.416C196.851 83.416 199.203 89.416 199.203 95.752C199.203 102.424 196.851 108.136 191.427 108.136ZM191.427 78.664C182.883 78.664 178.563 87.208 178.563 95.752C178.563 104.344 182.883 112.936 191.427 112.936C200.019 112.936 204.243 104.344 204.243 95.752C204.243 87.208 200.019 78.664 191.427 78.664ZM174.602 112.6V79H169.706V90.184H162.314C155.066 90.184 151.418 95.752 151.418 101.368C151.418 106.984 155.066 112.6 162.314 112.6L174.602 112.6ZM169.706 94.984V107.704L162.314 107.704C158.234 107.704 156.218 104.536 156.218 101.32C156.218 98.152 158.234 94.984 162.314 94.984H169.706Z" fill="#292929"/>
<g clip-path="url(#clip0_8_48252)">
<path d="M138.969 283.95L196.319 338.923C197.816 340.36 200.184 340.36 201.681 338.923L259.088 283.893C260.303 282.679 261 281.005 261 279.295C261 275.735 258.101 272.836 254.541 272.836H245.5V226.336C245.5 220.628 240.876 216.003 235.166 216.003L162.834 216.003C157.124 216.003 152.5 220.628 152.5 226.336L152.5 272.836H143.459C139.899 272.836 137 275.735 137 279.295C137 281.005 137.697 282.679 138.969 283.95Z" fill="#E8B5BB"/>
</g>
<rect x="395" y="602" width="392" height="600" transform="rotate(-180 395 602)" stroke="#292929" stroke-width="5"/>
<defs>
<clipPath id="clip0_8_48252">
<rect width="124" height="124" fill="white" transform="matrix(-1 0 0 -1 261 340)"/>
</clipPath>
</defs>
</svg>
