<svg width="605" height="605" viewBox="0 0 605 605" fill="none" xmlns="http://www.w3.org/2000/svg">
<rect x="2" y="3" width="600" height="600" fill="white"/>
<path d="M92.4565 232.313L96.9028 236.76C98.7696 238.626 95.5112 242.021 93.5087 240.018L89.1303 235.64L92.4565 232.313ZM91.9814 221.316L68.2226 245.075L79.1516 256.004C84.141 260.994 90.5898 259.772 94.4251 255.936C96.4277 253.934 97.4798 250.845 96.258 247.044C104.03 248.368 108.748 238.083 102.978 232.313L91.9814 221.316ZM83.7676 241.002L88.9606 246.195C91.4044 248.639 87.0938 252.95 84.6501 250.506L79.4571 245.313L83.7676 241.002ZM98.0688 274.921C103.567 280.42 110.491 278.994 114.666 274.82C118.875 270.611 120.266 263.721 114.768 258.222L111.476 254.93L118.535 247.87L112.697 242.033L88.9386 265.791L98.0688 274.921ZM109.201 263.789C110.865 265.452 110.288 267.658 108.93 269.016C107.538 270.407 105.298 271.018 103.635 269.355L100.343 266.063L105.909 260.496L109.201 263.789ZM107.742 284.595L113.58 290.433L137.339 266.674L131.501 260.836L107.742 284.595ZM140.833 317.685L147.383 324.236L161.537 290.329L157.396 286.188L123.862 300.715L130.073 306.926L134.893 304.754L143.005 312.866L140.833 317.685ZM149.929 297.864L146.603 304.856L146.331 305.399L142.394 301.462L143.141 301.122L149.929 297.864ZM172.691 302.026L148.932 325.785L154.736 331.589L161.796 324.529L165.088 327.821C176.187 338.92 192.92 322.255 181.787 311.122L172.691 302.026ZM167.26 319.065L172.861 313.464L176.153 316.757C179.751 320.354 174.15 325.955 170.553 322.357L167.26 319.065ZM183.322 342.05L192.927 351.655L198.562 346.021L188.956 336.416L192.418 332.954L202.227 342.763L207.827 337.163L192.181 321.516L168.422 345.275L184.103 360.955L189.703 355.355L179.86 345.512L183.322 342.05ZM204.495 357.656C212.776 349.375 224.452 359.693 219.293 368.382L225.165 374.254C230.527 367.397 229.407 357.996 223.298 351.886C216.51 345.098 205.716 344.895 198.725 351.886C191.733 358.878 192.038 369.57 198.826 376.358C205.004 382.535 214.202 383.52 221.295 378.191L215.424 372.319C206.735 377.682 196.179 365.972 204.495 357.656ZM224.457 401.309L242.785 382.981L249.166 389.362L254.596 383.932L235.997 365.332L230.566 370.762L236.981 377.177L218.653 395.506L224.457 401.309ZM244.201 397.363C237.209 404.355 237.515 415.046 244.303 421.835C251.091 428.623 261.918 428.86 268.809 421.97C275.8 414.978 275.563 404.151 268.775 397.363C261.986 390.575 251.193 390.371 244.201 397.363ZM249.971 403.133C258.966 394.139 271.931 407.172 262.971 416.132C254.078 425.025 241.011 412.093 249.971 403.133ZM283.309 423.166L287.755 427.612C289.622 429.479 286.364 432.873 284.361 430.871L279.983 426.492L283.309 423.166ZM282.834 412.169L259.075 435.928L270.004 446.857C274.994 451.846 281.442 450.624 285.278 446.789C287.28 444.786 288.332 441.698 287.11 437.896C294.883 439.22 299.601 428.936 293.831 423.166L282.834 412.169ZM274.62 431.855L279.813 437.048C282.257 439.492 277.946 443.802 275.503 441.358L270.31 436.165L274.62 431.855ZM295.523 472.376L302.074 478.927L316.227 445.02L312.087 440.879L278.553 455.406L284.764 461.617L289.584 459.444L297.696 467.556L295.523 472.376ZM304.62 452.554L301.293 459.546L301.022 460.089L297.085 456.152L297.831 455.813L304.62 452.554ZM333.186 462.521L327.382 456.717L303.623 480.476L309.427 486.279L318.625 477.081L324.87 483.327L315.672 492.525L321.476 498.329L345.235 474.57L339.431 468.766L330.47 477.726L324.225 471.481L333.186 462.521ZM332.972 509.825C338.47 515.323 345.394 513.897 349.569 509.723C353.778 505.514 355.169 498.624 349.671 493.125L346.379 489.833L353.438 482.773L347.6 476.936L323.842 500.694L332.972 509.825ZM344.105 498.692C345.768 500.355 345.191 502.561 343.833 503.919C342.441 505.31 340.201 505.921 338.538 504.258L335.246 500.966L340.812 495.4L344.105 498.692ZM342.645 519.498L348.483 525.336L372.242 501.577L366.404 495.739L342.645 519.498ZM374.852 504.187L357.61 521.429L363.278 527.097L380.52 509.855L374.852 504.187ZM359.714 524.891C358.017 523.194 355.437 523.058 353.639 524.857C352.145 526.35 351.975 529.235 353.672 530.932C355.505 532.765 358.356 532.562 359.85 531.068C361.649 529.269 361.547 526.724 359.714 524.891Z" fill="#292929"/>
<g clip-path="url(#clip0_8_48653)">
<path d="M271.563 209.562L329.568 267.567L333.711 263.424L341.998 271.71L337.854 275.853L395.859 333.858L412.432 317.285L354.427 259.281L350.284 263.424L341.998 255.137L346.141 250.994L288.136 192.989L271.563 209.562Z" fill="#292929"/>
<path d="M271.563 226.135L312.995 267.567L287.86 292.702L246.428 251.27L271.563 226.135Z" fill="#292929"/>
<path d="M337.854 292.426L379.286 333.858L354.151 358.994L312.719 317.562L337.854 292.426Z" fill="#292929"/>
<path d="M451.792 261.352L419.889 256.792L421.548 245.196L447.649 248.922L451.305 225.77L410.356 219.924L371 259.28L412.432 300.712L423.409 289.735L460.974 285.868L512.421 234.421L495.572 217.572L451.792 261.352Z" fill="#292929"/>
<path d="M304.709 192.989L346.141 234.421L385.497 195.065L379.651 154.116L356.499 157.772L360.225 183.873L348.629 185.532L344.069 153.629L387.849 109.849L371 93L319.553 144.447L315.686 182.012L304.709 192.989Z" fill="#292929"/>
</g>
<rect x="2" y="3" width="600" height="600" stroke="#292929" stroke-width="5"/>
<defs>
<clipPath id="clip0_8_48653">
<rect width="200" height="200" fill="white" transform="translate(371 93) rotate(45)"/>
</clipPath>
</defs>
</svg>
