<svg xmlns="http://www.w3.org/2000/svg" viewBox="0 0 124 124" height="124" width="124"><g transform="matrix(-1 0 0 -1 124 124)"><path d="M68.54 11.6215L35.7144 0.378967L6.97528 29.1166L40.0279 40.1337L68.54 11.6215ZM53.7588 13.3765C55.4975 11.6378 58.3308 10.8852 60.089 11.6962C61.8455 12.5072 61.8618 14.5729 60.122 16.3116C58.3833 18.0503 55.55 18.8029 53.7918 17.9919C52.0339 17.1809 52.0205 15.1152 53.7588 13.3765ZM43.1587 9.66344C44.8974 7.92476 47.7306 7.1721 49.4889 7.9831C51.2453 8.7941 51.2617 10.8598 49.5218 12.5985C47.7817 14.3372 44.9499 15.0898 43.1916 14.2788C41.4349 13.4678 41.42 11.4021 43.1587 9.66344ZM21.7862 26.2892C20.0475 28.0279 17.2143 28.7806 15.4561 27.9696C13.6996 27.1586 13.6832 25.0928 15.4216 23.3542C17.16 21.6155 19.9936 20.8628 21.7518 21.6738C23.51 22.4848 23.5246 24.5505 21.7862 26.2892ZM32.3552 29.7634C30.6165 31.5021 27.7832 32.2547 26.025 31.4437C24.2685 30.6327 24.2522 28.567 25.992 26.8283C27.7307 25.0896 30.564 24.337 32.3222 25.148C34.0787 25.959 34.0936 28.0247 32.3552 29.7634ZM32.6224 10.8047C30.8659 9.99367 30.8496 7.92796 32.5894 6.18928C34.3281 4.45059 37.1614 3.69793 38.9196 4.50893C40.6778 5.31993 40.6924 7.38565 38.954 9.12433C37.2139 10.8613 34.3806 11.6142 32.6224 10.8047ZM36.6255 35.1583C34.869 34.3473 34.8526 32.2816 36.5925 30.5429C38.3312 28.8042 41.1644 28.0515 42.9227 28.8625C44.6792 29.6735 44.6955 31.7392 42.9556 33.4779C41.217 35.2166 38.3834 35.9678 36.6255 35.1583Z" fill="#F2AD2E"/><path d="M6.44184 33.0882L17.2946 65.6481L49.8545 76.5023L39.0017 43.9439L6.44184 33.0882ZM30.6192 58.6189C29.4033 59.8348 26.9598 59.3643 25.1616 57.5658C23.3634 55.7673 22.8914 53.3238 24.1085 52.1082C25.3244 50.8922 27.7679 51.3628 29.5661 53.1613C31.3646 54.9595 31.8366 57.4033 30.6192 58.6189Z" fill="#F2AD2E"/><path d="M84.3289 124L115.028 108.651L84.3292 93.3028L53.632 108.651L84.3289 124ZM84.3289 105.537C86.871 105.537 88.9338 106.932 88.9338 108.651C88.9338 110.372 86.8724 111.766 84.3289 111.766C81.7853 111.766 79.724 110.371 79.724 108.651C79.7257 106.931 81.7868 105.537 84.3289 105.537Z" fill="#F2AD2E"/><path d="M76.438 65.1506C74.9712 65.6912 73.745 64.8356 73.3209 63.1955L54.9357 81.5807L51.2001 80.335L51.2001 105.467L82.3621 89.8852L82.3621 54.1543L79.212 57.3044C79.5332 57.8735 79.7257 58.6113 79.7257 59.485C79.7257 61.9451 78.2528 64.4814 76.438 65.1506ZM56.3859 98.6589C54.5696 99.3281 53.0984 97.8777 53.0984 95.4193C53.0984 92.9609 54.5696 90.4246 56.3859 89.7554C58.2022 89.0862 59.6733 90.5367 59.6733 92.995C59.6736 95.4537 58.2022 97.9897 56.3859 98.6589ZM65.7541 82.574C63.9378 83.2432 62.4666 81.7927 62.4666 79.3344C62.4666 76.876 63.9378 74.3397 65.7541 73.6705C67.5704 73.0013 69.0415 74.4517 69.0415 76.9101C69.0415 79.3685 67.5689 81.9048 65.7541 82.574ZM79.7257 83.1073C79.7257 85.5656 78.2546 88.1019 76.4383 88.7711C74.622 89.4403 73.1508 87.9899 73.1508 85.5315C73.1508 83.0728 74.622 80.5369 76.4383 79.8676C78.2543 79.1984 79.7257 80.6486 79.7257 83.1073Z" fill="#F2AD2E"/><path d="M117.461 64.8265L86.7384 49.7796L86.2979 50.2201L86.2979 89.8852L117.461 105.467L117.461 64.8265ZM92.2978 65.1506C90.4815 64.4814 89.0103 61.9451 89.0103 59.4868C89.0103 57.0284 90.4815 55.5779 92.2978 56.2471C94.1141 56.9164 95.5853 59.4526 95.5853 61.911C95.5853 64.3694 94.1123 65.8198 92.2978 65.1506ZM101.879 83.0714C100.063 82.4022 98.5918 79.8662 98.5918 77.4075C98.5918 74.9491 100.063 73.4987 101.879 74.1679C103.696 74.8371 105.167 77.3734 105.167 79.8318C105.167 82.2901 103.694 83.7406 101.879 83.0714ZM111.74 98.6589C109.924 97.9897 108.453 95.4537 108.453 92.995C108.453 90.5367 109.924 89.0862 111.74 89.7554C113.557 90.4246 115.028 92.9606 115.028 95.4193C115.028 97.8777 113.557 99.3281 111.74 98.6589Z" fill="#F2AD2E"/><path d="M53.8278 75.9705L82.5669 47.2343L71.3229 14.4054L42.8107 42.9205L53.8278 75.9705ZM66.101 25.2317C67.8397 23.493 69.9068 23.5079 70.7164 25.2661C71.5259 27.024 70.7747 29.8576 69.036 31.5963C67.2974 33.335 65.2302 33.3201 64.4206 31.5633C63.6111 29.8065 64.3623 26.9704 66.101 25.2317ZM56.5119 59.303C58.2506 57.5643 60.3178 57.5794 61.1273 59.3359C61.9383 61.0924 61.1857 63.9274 59.447 65.6661C57.7083 67.4048 55.6411 67.3896 54.8316 65.6331C54.0203 63.8752 54.7733 61.0417 56.5119 59.303Z" fill="#F2AD2E"/></g></svg>