<svg xmlns="http://www.w3.org/2000/svg" viewBox="0 0 124 124" height="124" width="124"><g transform="matrix(-1 0 0 -1 124 124)"><g clip-path="url(#clip0_451_169)">
<path d="M122.31 61.8391C123.643 61.3482 124.33 59.8707 123.844 58.5327L122.222 54.0688L109.869 66.4219L122.31 61.8391Z" fill="#E4E4E4"/>
<path d="M110.618 22.1605L103.178 1.70123C102.946 1.05534 102.46 0.52836 101.84 0.244284C101.494 0.0842037 101.122 0.00137329 100.75 0.00137329C100.445 0.00137329 100.146 0.0529594 99.8563 0.161455L91.6466 3.18894L110.618 22.1605Z" fill="#292929"/>
<path d="M0.15863 39.6285L8.67292 63.0377L29.1063 42.6044L18.9801 46.3346C17.6522 46.841 16.1541 46.1486 15.6632 44.8053C15.1672 43.4672 15.8543 41.9793 17.1925 41.4884L30.0571 36.7456C30.3516 36.6371 30.6511 36.5855 30.951 36.5855C31.9998 36.5855 32.9918 37.2314 33.374 38.2749C33.3791 38.2904 33.374 38.3059 33.3791 38.3214L55.0318 16.6687L1.69307 36.322C0.355034 36.8126 -0.332027 38.2904 0.15863 39.6285Z" fill="#292929"/>
<path d="M0.757835 81.911L42.0898 123.243C43.0973 124.25 44.7351 124.25 45.7426 123.243L123.24 45.7457C124.247 44.7382 124.247 43.1003 123.24 42.0929L81.9079 0.760895C81.4068 0.254501 80.7455 0.00141144 80.0841 0.00141144C79.4227 0.00141144 78.7615 0.254501 78.2551 0.755814L0.757835 78.2531C-0.249626 79.2656 -0.249626 80.8984 0.757835 81.911ZM93.7546 52.4206L104.088 42.0878C104.594 41.5867 105.255 41.3334 105.917 41.3334C106.578 41.3334 107.239 41.5865 107.746 42.0878C108.753 43.0952 108.753 44.7331 107.746 45.7406L97.4125 56.0736C96.405 57.0811 94.7671 57.0811 93.7597 56.0736C92.7522 55.0659 92.7471 53.4334 93.7546 52.4206ZM49.1421 49.14C50.971 47.3111 53.456 46.4327 56.2202 46.4327C60.7875 46.4327 66.1244 48.8247 70.5882 53.2939C73.8535 56.5592 76.1474 60.465 77.0411 64.2881C78.0331 68.5504 77.2167 72.2599 74.7421 74.7398C72.2673 77.2197 68.5578 78.0361 64.2904 77.0388C60.4671 76.1449 56.5612 73.8563 53.2962 70.586C46.1197 63.415 44.2907 53.9914 49.1421 49.14ZM16.2573 78.2531L26.5904 67.92C27.0967 67.419 27.7579 67.1657 28.4193 67.1657C29.0807 67.1657 29.7418 67.4187 30.2482 67.92C31.2557 68.9275 31.2557 70.5654 30.2482 71.5728L19.9152 81.9059C18.9077 82.9133 17.2698 82.9133 16.2624 81.9059C15.2549 80.8984 15.2498 79.2656 16.2573 78.2531Z" fill="#292929"/>
</g><defs>
<clipPath id="clip0_451_169">
<rect width="124" height="124" fill="white" transform="matrix(-1 0 0 -1 124 124)"/>
</clipPath>
</defs></g></svg>