<svg width="605" height="605" viewBox="0 0 605 605" fill="none" xmlns="http://www.w3.org/2000/svg">
<rect x="3" y="3" width="600" height="600" fill="white"/>
<path d="M262.702 449.609L245.935 466.376L269.694 490.135L280.623 479.206C285.578 474.25 284.288 467.87 280.453 464.034C276.38 459.961 269.999 459.282 265.349 463.932L260.156 469.125L257.203 466.172L268.234 455.142L262.702 449.609ZM265.587 474.556L270.78 469.363C273.292 466.851 277.704 471.128 275.124 473.707L269.931 478.9L265.587 474.556ZM286.91 454.794L296.515 445.189L290.881 439.555L281.276 449.16L277.814 445.698L287.623 435.889L282.022 430.289L266.376 445.936L290.134 469.694L305.815 454.014L300.215 448.413L290.372 458.256L286.91 454.794ZM302.516 433.622C294.235 425.34 304.553 413.664 313.242 418.823L319.113 412.951C312.257 407.589 302.856 408.709 296.746 414.818C289.958 421.606 289.754 432.4 296.746 439.392C303.738 446.383 314.43 446.078 321.218 439.29C327.395 433.112 328.379 423.914 323.051 416.821L317.179 422.693C322.541 431.381 310.832 441.937 302.516 433.622ZM312.448 399.863L336.207 423.622L342.011 417.818L323.852 399.66L330.097 393.414L348.256 411.573L354.06 405.769L330.301 382.01L312.448 399.863ZM373.616 386.212L380.167 379.662L346.26 365.508L342.119 369.649L356.646 403.183L362.857 396.972L357.053 383.904L353.795 377.116L360.786 380.442L373.616 386.212ZM398.177 361.652L404.728 355.101L370.821 340.947L366.68 345.088L381.207 378.622L387.418 372.411L385.246 367.591L393.357 359.479L398.177 361.652ZM378.356 352.555L385.347 355.882L385.89 356.153L381.953 360.09L381.614 359.344L378.356 352.555ZM416.305 343.523L397.977 325.195L404.358 318.814L398.928 313.384L380.328 331.983L385.758 337.414L392.173 330.999L410.501 349.327L416.305 343.523ZM407.082 305.229L401.278 311.033L425.037 334.792L430.841 328.988L421.643 319.79L427.888 313.545L437.086 322.743L442.89 316.939L419.131 293.18L413.327 298.984L422.288 307.944L416.043 314.189L407.082 305.229ZM461.717 298.111L468.268 291.561L434.361 277.407L430.22 281.548L444.747 315.082L450.958 308.871L448.786 304.051L456.898 295.939L461.717 298.111ZM441.896 289.015L448.888 292.341L449.431 292.613L445.493 296.55L445.154 295.803L441.896 289.015ZM474.488 269.253L482.532 277.297L488.302 271.527L464.543 247.768L455.311 257C445.876 266.436 456.126 279.469 466.919 275.668L469.363 288.294L470.449 289.38L476.626 283.202L473.538 270.203L474.488 269.253ZM469.227 263.992L465.901 267.318C462.405 270.814 457.483 265.96 461.013 262.431L464.34 259.104L469.227 263.992ZM307.156 487.18L330.914 510.939L336.718 505.135L318.56 486.976L324.805 480.731L342.964 498.889L348.768 493.086L325.009 469.327L307.156 487.18ZM368.324 473.529L374.875 466.978L340.967 452.825L336.827 456.966L351.353 490.5L357.565 484.288L355.392 479.469L363.504 471.357L368.324 473.529ZM348.502 464.433L355.494 467.759L356.037 468.031L352.1 471.968L351.761 471.221L348.502 464.433ZM352.665 441.671L376.423 465.43L382.227 459.626L375.168 452.566L378.46 449.274C389.559 438.175 372.894 421.442 361.761 432.575L352.665 441.671ZM369.703 447.101L364.103 441.501L367.395 438.209C370.993 434.611 376.593 440.211 372.995 443.809L369.703 447.101ZM392.078 402.258L385.188 409.148L387.835 424.964L378.603 415.732L372.799 421.536L396.558 445.295L402.362 439.491L393.164 430.293L409.422 432.431L416.617 425.236L416.312 424.93L395.472 422.487L392.417 402.597L392.078 402.258ZM404.481 413.681C411.473 420.673 422.165 420.367 428.953 413.579C435.741 406.791 435.979 395.964 429.089 389.074C422.097 382.082 411.27 382.319 404.481 389.107C397.693 395.896 397.489 406.689 404.481 413.681ZM410.251 407.911C401.257 398.916 414.29 385.951 423.251 394.911C432.143 403.804 419.212 416.871 410.251 407.911ZM430.284 374.573L434.731 370.127C436.597 368.26 439.991 371.518 437.989 373.521L433.611 377.899L430.284 374.573ZM419.287 375.048L443.046 398.807L453.975 387.878C458.965 382.889 457.743 376.44 453.907 372.604C451.905 370.602 448.816 369.55 445.015 370.772C446.338 362.999 436.054 358.281 430.284 364.051L419.287 375.048ZM438.973 383.262L444.166 378.069C446.61 375.625 450.92 379.936 448.477 382.379L443.284 387.572L438.973 383.262ZM459.927 334.409L453.037 341.299L455.684 357.115L446.452 347.883L440.648 353.687L464.407 377.446L470.211 371.642L461.013 362.444L477.271 364.582L484.466 357.387L484.161 357.081L463.321 354.638L460.266 334.748L459.927 334.409ZM502.63 339.223L509.181 332.672L475.273 318.519L471.133 322.66L485.659 356.194L491.871 349.982L489.698 345.163L497.81 337.051L502.63 339.223ZM482.808 330.127L489.8 333.453L490.343 333.725L486.406 337.662L486.067 336.915L482.808 330.127Z" fill="#292929"/>
<g clip-path="url(#clip0_8_49022)">
<path d="M232.317 200.186C239.012 206.881 239.013 217.774 232.317 224.469L212.749 244.038L188.467 219.756L208.035 200.187C214.731 193.492 225.623 193.492 232.317 200.186ZM253.468 111.625L356.796 214.953C367.299 225.456 367.299 242.544 356.796 253.046L253.467 356.375C242.965 366.877 225.877 366.877 215.375 356.375L112.046 253.046C101.545 242.545 101.544 225.456 112.046 214.954L215.375 111.625C225.877 101.123 242.966 101.123 253.468 111.625ZM251.226 181.278C234.105 164.158 206.247 164.158 189.127 181.278L154.412 215.993C152.335 218.07 152.335 221.44 154.412 223.517L244.903 314.008C246.981 316.086 250.35 316.086 252.428 314.008L263.812 302.624C265.889 300.547 265.889 297.177 263.812 295.1L231.656 262.945L251.225 243.376C268.346 226.257 268.346 198.398 251.226 181.278Z" fill="#292929"/>
</g>
<rect x="3" y="3" width="600" height="600" stroke="#292929" stroke-width="5"/>
<defs>
<clipPath id="clip0_8_49022">
<rect width="200" height="200" fill="white" transform="translate(93 234) rotate(-45)"/>
</clipPath>
</defs>
</svg>
