<svg xmlns="http://www.w3.org/2000/svg" viewBox="0 0 124 124" width="124" height="124"><g transform="matrix(0 1 -1 0 124 -0)"><path d="M50.8594 101.961C50.8594 99.9534 49.2341 98.3281 47.2266 98.3281C45.2191 98.3281 43.5938 99.9534 43.5938 101.961V116.492C43.5938 118.5 45.2191 120.125 47.2266 120.125C49.2341 120.125 50.8594 118.5 50.8594 116.492V112.859L61.7578 112.859C63.1107 112.859 64.4351 111.824 64.8722 111.096L79.6608 86.4496L102.031 90.5166C103.507 99.0594 111.409 105.594 120.367 105.594C122.375 105.594 124 103.968 124 101.961L124 22.0391C124 20.0316 122.375 18.4063 120.367 18.4063C111.409 18.4063 103.507 24.9406 102.031 33.4834L79.6608 37.5504L64.8722 12.9041C64.2525 11.87 62.7436 11.1406 61.7578 11.1406L50.8594 11.1406V7.50781C50.8594 5.50031 49.2341 3.875 47.2266 3.875C45.2191 3.875 43.5938 5.50031 43.5938 7.50781V22.0391C43.5938 24.0466 45.2191 25.6719 47.2266 25.6719C49.2341 25.6719 50.8594 24.0466 50.8594 22.0391V18.4062L58.125 18.4063L58.125 41.467L43.5152 44.1226L28.5091 20.1129C27.7816 19.4157 27.1837 18.4062 25.4297 18.4062H14.5313V14.7734C14.5313 12.7659 12.9059 11.1406 10.8984 11.1406C8.89093 11.1406 7.26563 12.7659 7.26563 14.7734L7.26563 29.3047C7.26563 31.3122 8.89093 32.9375 10.8984 32.9375C12.9059 32.9375 14.5313 31.3122 14.5313 29.3047L14.5313 25.6719H21.7969V47.4688H7.26563L7.26563 43.8359C7.26563 41.8284 5.64032 40.2031 3.63281 40.2031C1.62531 40.2031 0 41.8284 0 43.8359L0 80.1641C0 82.1716 1.62531 83.7969 3.63281 83.7969C5.64032 83.7969 7.26563 82.1716 7.26563 80.1641V76.5312H21.7969L21.7969 98.3281H14.5313V94.6953C14.5313 92.6878 12.9059 91.0625 10.8984 91.0625C8.89093 91.0625 7.26563 92.6878 7.26563 94.6953L7.26563 109.227C7.26563 111.234 8.89093 112.859 10.8984 112.859C12.9059 112.859 14.5313 111.234 14.5313 109.227V105.594H25.4297C26.6558 105.594 27.984 104.732 28.5091 103.887L43.5152 79.8774L58.125 82.533L58.125 105.594H50.8594V101.961ZM65.3906 27.8894L72.0215 38.9392L65.3906 40.1454V27.8894ZM101.719 74.3137L94.3301 62L101.719 49.6863L101.719 74.3137ZM98.1105 41.5777L90.0938 54.9387L83.654 44.2058L98.1105 41.5777ZM29.0625 34.7057L35.8229 45.5218L29.0625 46.7507V34.7057ZM53.8564 49.6238L50.4043 55.1459L47.658 50.7506L53.8564 49.6238ZM7.26563 69.2656L7.26563 54.7344H21.7969V69.2656H7.26563ZM29.0625 69.8683V54.1317L39.9657 52.1488L46.1216 61.9991L39.9638 71.8502L29.0625 69.8683ZM58.125 56.5025V67.4984L54.689 62L58.125 56.5025ZM47.658 73.2494L50.4053 68.8531L53.8574 74.3762L47.658 73.2494ZM65.3906 76.4735L65.3906 47.5265L76.0138 45.5956L85.8574 61.9991L76.0138 78.4044L65.3906 76.4735ZM29.0625 89.2924V77.2493L35.821 78.4782L29.0625 89.2924ZM83.654 79.7942L90.0938 69.0613L98.1105 82.4223L83.654 79.7942ZM65.3906 83.8546L72.0205 85.0598L65.3906 96.1096V83.8546Z" fill="#292929"/></g></svg>