<svg width="605" height="605" xmlns="http://www.w3.org/2000/svg">
 <defs>
  <clipPath id="clip0_8_48284">
   <rect id="svg_1" fill="white" height="600" width="600" y="2" x="3"/>
  </clipPath>
  <clipPath id="clip1_8_48284">
   <rect id="svg_2" x="204.421997" y="541.843018" transform="rotate(-135 204.4219970703125,541.843017578125) " fill="white" height="200" width="200"/>
  </clipPath>
  <clipPath id="clip2_8_48284">
   <rect id="svg_3" x="533" y="26.7451" transform="rotate(45 533.0000000000001,26.7451000213623) " fill="white" height="64" width="64"/>
  </clipPath>
 </defs>
 <g>
  <title>background</title>
  <rect fill="none" id="canvas_background" height="402" width="582" y="-1" x="-1"/>
 </g>
 <g>
  <title>Layer 1</title>
  <g transform="rotate(-180 303,302) " id="svg_4" clip-path="url(#clip0_8_48284)">
   <rect id="svg_5" fill="white" height="600" width="600" y="2" x="3"/>
   <rect id="svg_6" stroke-width="5" stroke="#292929" fill="white" height="480" width="480" y="122" x="3"/>
   <path id="svg_7" fill="#292929" d="m423.243,341.461l-24.438,24.438l-8.508,-8.508l-7.24,7.241l24.799,24.799l7.241,-7.241l-8.553,-8.553l24.437,-24.437l-7.738,-7.739zm-70.683,-6.602c7.422,7.422 18.69,8.553 27.922,3.304l2.987,2.987l-11.947,11.947l7.693,7.693l31.679,-31.678l-7.694,-7.694l-12.264,12.265l-2.941,-2.942c5.385,-8.825 4.797,-20.455 -3.032,-28.284c-8.87,-8.87 -23.442,-9.051 -32.448,-0.046c-8.553,8.554 -9.323,23.08 0.045,32.448zm7.739,-24.664c4.525,-4.525 12.219,-4.978 17.151,-0.226c4.888,4.706 4.526,12.4 -0.226,17.152c-4.48,4.48 -12.4,4.978 -17.152,0.226c-4.57,-4.571 -4.525,-12.4 0.227,-17.152zm-26.427,5.252l31.678,-31.678l-7.738,-7.739l-9.413,9.413l-4.39,-4.39c-14.798,-14.798 -37.109,7.422 -22.265,22.266l12.128,12.128zm7.241,-22.718l-7.467,7.467l-4.39,-4.39c-4.797,-4.797 2.67,-12.264 7.467,-7.467l4.39,4.39zm-13.994,-47.392c-7.286,-7.286 -16.563,-5.43 -22.129,0.136c-5.612,5.612 -7.422,14.844 -0.136,22.13l4.435,4.435l-9.413,9.413l7.738,7.738l31.679,-31.678l-12.174,-12.174zm-14.843,14.844c-2.218,-2.218 -1.449,-5.159 0.362,-6.969c1.855,-1.856 4.842,-2.67 7.059,-0.453l4.435,4.435l-7.421,7.422l-4.435,-4.435zm-22.229,-20.419l2.262,-11.404l-4.299,-4.299l-11.314,2.172l15.659,-15.658l-7.694,-7.694l-31.678,31.679l6.064,6.064l20.591,-3.937l-3.937,20.591l6.154,6.154l31.679,-31.678l-7.739,-7.739l-15.748,15.749zm-30.503,-61.999l-8.734,-8.735l-18.871,45.21l5.521,5.521l44.712,-19.369l-8.282,-8.282l-6.426,2.897l-10.816,-10.816l2.896,-6.426zm-12.128,26.428l4.435,-9.322l0.362,-0.724l5.25,5.249l-0.996,0.453l-9.051,4.344z"/>
   <path id="svg_8" fill="#292929" d="m541.248,422.441c9.888,0 17.232,-7.776 17.232,-17.376c0,-9.6 -7.488,-17.424 -17.232,-17.424c-9.888,0 -17.376,7.824 -17.376,17.424c0,9.6 7.488,17.376 17.376,17.376zm0,-8.16c-12.72,0 -12.672,-18.384 0,-18.384c12.576,0 12.672,18.384 0,18.384zm-16.848,-53.963l0,23.712l33.6,0l0,-15.456c0,-7.008 -5.424,-10.608 -10.848,-10.608c-5.76,0 -10.752,4.032 -10.752,10.608l0,7.344l-4.176,0l0,-15.6l-7.824,0zm19.68,15.6l0,-7.344c0,-3.552 6.144,-3.648 6.144,0l0,7.344l-6.144,0zm13.92,-34.176c0,-7.776 -5.904,-11.664 -11.808,-11.664c-5.952,0 -11.808,3.888 -11.808,11.664l0,4.656l-9.984,0l0,8.256l33.6,0l0,-12.912zm-15.744,0c0,-2.352 1.968,-3.504 3.888,-3.504c1.968,0 3.984,1.152 3.984,3.504l0,4.656l-7.872,0l0,-4.656zm15.744,-13.68l0,-8.256l-33.6,0l0,8.256l33.6,0zm-33.6,-36.043l0,8.352l15.888,0c0.72,3.84 -0.48,7.2 -4.368,7.2l-11.52,0l0,8.4l11.52,0c8.496,0 11.856,-6.528 11.856,-13.392c0,-0.768 0,-1.44 -0.144,-2.208l10.368,0l0,-8.352l-33.6,0zm0,-11.714l0,8.208l33.6,0l0,-8.208l-13.008,0l0,-8.832l13.008,0l0,-8.208l-33.6,0l0,8.208l12.672,0l0,8.832l-12.672,0zm33.6,-33.297c0,-7.776 -5.904,-11.664 -11.808,-11.664c-5.952,0 -11.808,3.888 -11.808,11.664l0,4.656l-9.984,0l0,8.256l33.6,0l0,-12.912zm-15.744,0c0,-2.352 1.968,-3.504 3.888,-3.504c1.968,0 3.984,1.152 3.984,3.504l0,4.656l-7.872,0l0,-4.656zm15.744,-13.68l0,-8.256l-33.6,0l0,8.256l33.6,0zm-41.904,-19.387l6.72,0l0,-13.824l-6.72,0l0,13.824zm41.904,-18.384l-33.6,0l0,5.712l16.992,12.24l-16.992,0l0,8.112l33.6,0l0,-5.472l-17.04,-12.432l17.04,0l0,-8.16z"/>
   <path id="svg_9" fill="#292929" d="m451.943,80.6l0,-33.6l-8.208,0l0,25.68l-8.832,0l0,-25.68l-8.208,0l0,33.6l25.248,0zm-29.385,-16.848c0,-9.888 -7.776,-17.232 -17.376,-17.232c-9.6,0 -17.424,7.488 -17.424,17.232c0,9.888 7.824,17.376 17.424,17.376c9.6,0 17.376,-7.488 17.376,-17.376zm-8.16,0c0,12.72 -18.384,12.672 -18.384,0c0,-12.576 18.384,-12.672 18.384,0zm-36.983,0c0,11.712 -15.552,12.672 -18.048,2.88l-8.304,0c1.056,8.64 8.496,14.496 17.136,14.496c9.6,0 17.376,-7.488 17.376,-17.376c0,-9.888 -7.776,-17.232 -17.376,-17.232c-8.736,0 -15.936,5.808 -17.184,14.592l8.304,0c2.352,-9.936 18.096,-9.12 18.096,2.64zm-37.603,-3.936l-13.584,0l0,7.968l13.584,0l0,4.896l-13.872,0l0,7.92l22.128,0l0,-33.6l-22.176,0l0,7.92l13.92,0l0,4.896zm-35.27,-12.816l-0.001,25.92l-9.023,0l-0.001,7.68l26.305,0l0,-7.68l-9.072,0l0,-25.92l-8.208,0zm-38.509,0l0,33.6l5.712,0l12.24,-16.992l0,16.992l8.112,0l0,-33.6l-5.472,0l-12.432,17.04l0,-17.04l-8.16,0zm-20.413,0l0,25.92l-9.024,0l0,7.68l26.304,0l0,-7.68l-9.072,0l0,-25.92l-8.208,0zm-20.605,12.816l-13.584,0l0,7.968l13.584,0l0,4.896l-13.872,0l0,7.92l22.128,0l0,-33.6l-22.176,0l0,7.92l13.92,0l0,4.896zm-41.414,-12.816l-9.264,0l13.968,33.984l5.856,0l13.44,-33.984l-8.784,0l-5.136,13.344l-2.496,7.104l-2.592,-7.296l-4.992,-13.152zm-24.655,0c-7.728,0 -11.664,5.904 -11.664,11.808c0,5.952 3.936,11.808 11.664,11.808l4.704,0l0,9.984l8.208,0l0,-33.6l-12.912,0zm0,15.744c-2.352,0 -3.504,-1.968 -3.504,-3.888c0,-1.968 1.152,-3.984 3.504,-3.984l4.704,0l0,7.872l-4.704,0z"/>
   <g id="svg_10" clip-path="url(#clip1_8_48284)">
    <path id="svg_11" fill="#292929" d="m67.1437,404.565l133.1353,133.135c2.288,2.288 5.998,2.288 8.286,0l133.135,-133.135c2.288,-2.289 2.288,-5.999 0,-8.287l-133.135,-133.135c-2.288,-2.288 -5.998,-2.288 -8.286,0l-133.1353,133.135c-2.2881,2.288 -2.2881,5.998 0,8.287zm141.4213,-82.864l4.143,-4.144l12.43,12.43c2.284,2.285 2.284,6.002 0,8.286c-2.285,2.285 -6.002,2.285 -8.287,0l-8.286,-8.286c-2.284,-2.285 -2.284,-6.002 0,-8.286zm-70.711,137.001l-24.859,-24.859l72.161,-72.161c-0.93,8.796 0.341,17.781 3.812,26.056c-7.871,-0.299 -15.839,2.545 -21.835,8.54c-10.004,10.004 -11.246,25.503 -3.726,36.872l-25.553,25.552zm34.135,-34.134c-3.112,-6.533 -1.971,-14.602 3.43,-20.003c5.402,-5.402 13.471,-6.543 20.004,-3.431l-23.434,23.434zm32.73,-32.73c-10.86,-14.505 -10.86,-34.619 0,-49.124l3.846,3.846c6.854,6.853 18.006,6.853 24.859,0c1.453,-1.453 2.594,-3.099 3.431,-4.856l8.999,8.999l-41.135,41.135zm-33.719,100.01l-24.859,-24.859l25.552,-25.552c11.369,7.519 26.868,6.278 36.872,-3.727c5.996,-5.995 8.839,-13.964 8.541,-21.835c8.274,3.471 17.259,4.742 26.055,3.812l-72.161,72.161zm87.284,-95.57l3.846,3.846c-14.505,10.861 -34.62,10.861 -49.125,0l41.135,-41.135l8.999,8.999c-1.756,0.837 -3.403,1.979 -4.855,3.431c-6.854,6.854 -6.854,18.006 0,24.859zm-58.005,33.146c-5.402,5.401 -13.471,6.543 -20.004,3.43l23.434,-23.434c3.112,6.533 1.971,14.602 -3.43,20.004zm74.577,-33.146l-8.286,-8.286c-2.285,-2.285 -2.285,-6.002 0,-8.287c2.284,-2.284 6.002,-2.284 8.286,0l12.43,12.43l-4.143,4.143c-2.285,2.285 -6.002,2.285 -8.287,0zm-70.434,128.992l-25.136,-25.135l92.14,-92.14c6.532,3.112 14.602,1.971 20.003,-3.43l4.143,-4.144l16.849,16.849l-107.999,108zm0,-249.697l124.848,124.848l-8.562,8.563c-4.586,-4.585 -119.172,-119.172 -124.849,-124.848l8.563,-8.563zm-16.849,16.849l16.849,16.849l-4.143,4.143c-5.402,5.401 -6.543,13.471 -3.431,20.004l-92.139,92.139l-25.1357,-25.136l107.9997,-107.999z"/>
   </g>
   <!-- <path id="svg_12" fill="#292929" d="m104.656,56.34l-16,-16c-3.116,-3.12 -8.196,-3.12 -11.312,0c-1.512,1.508 -2.344,3.52 -2.344,5.656c0,2.136 0.832,4.148 2.344,5.656l10.344,10.344l-10.344,10.344c-1.512,1.512 -2.344,3.52 -2.344,5.656c0,2.136 0.832,4.144 2.344,5.656c1.512,1.512 3.52,2.344 5.656,2.344c2.136,0 4.144,-0.832 5.656,-2.344l16,-16c1.512,-1.508 2.344,-3.52 2.344,-5.656c0,-2.136 -0.832,-4.148 -2.344,-5.656zm-2.828,8.484l-16,16c-1.516,1.512 -4.14,1.512 -5.656,0c-1.56,-1.56 -1.56,-4.096 0,-5.656l13.172,-13.172l-13.172,-13.172c-0.756,-0.756 -1.172,-1.76 -1.172,-2.828c0,-1.068 0.416,-2.072 1.172,-2.828c0.78,-0.78 1.804,-1.172 2.828,-1.172c1.024,0 2.048,0.392 2.828,1.168l16,16c0.756,0.76 1.172,1.764 1.172,2.832c0,1.068 -0.416,2.072 -1.172,2.828z"/>
   <path id="svg_13" fill="#292929" d="m76.656,56.34l-16,-16c-3.116,-3.12 -8.196,-3.12 -11.312,0c-1.512,1.508 -2.344,3.52 -2.344,5.656c0,2.136 0.832,4.148 2.344,5.656l10.344,10.344l-10.344,10.344c-1.512,1.512 -2.344,3.52 -2.344,5.656c0,2.136 0.832,4.144 2.344,5.656c1.512,1.512 3.52,2.344 5.656,2.344c2.136,0 4.144,-0.832 5.656,-2.344l16,-16c1.512,-1.508 2.344,-3.52 2.344,-5.656c0,-2.136 -0.832,-4.148 -2.344,-5.656zm-2.828,8.484l-16,16c-1.516,1.512 -4.14,1.512 -5.656,0c-1.56,-1.56 -1.56,-4.096 0,-5.656l13.172,-13.172l-13.172,-13.172c-0.756,-0.756 -1.172,-1.76 -1.172,-2.828c0,-1.068 0.416,-2.072 1.172,-2.828c0.78,-0.78 1.804,-1.172 2.828,-1.172c1.024,0 2.048,0.392 2.828,1.168l16,16c0.756,0.76 1.172,1.764 1.172,2.832c0,1.068 -0.416,2.072 -1.172,2.828z"/> -->
   <g id="svg_14" clip-path="url(#clip2_8_48284)">
    <!-- <path id="svg_15" fill="#292929" d="m556.558,87.5535l0,-22.6274c0.003,-4.4095 -3.589,-8.0016 -7.999,-7.9988c-2.135,-0.0028 -4.146,0.8316 -5.657,2.342c-1.51,1.5103 -2.344,3.5214 -2.342,5.6568l0,14.6286l-14.628,0c-2.138,0 -4.147,0.8316 -5.657,2.342c-1.51,1.5104 -2.342,3.5185 -2.342,5.6568c0,2.1383 0.832,4.1465 2.342,5.6569c1.51,1.5104 3.519,2.3419 5.657,2.3419l22.627,0c2.136,0.0028 4.147,-0.8315 5.657,-2.3419c1.51,-1.5104 2.345,-3.5214 2.342,-5.6569zm-7.999,3.9994l-22.627,0c-2.141,-0.0028 -3.997,-1.8582 -4,-3.9994c0,-2.2061 1.794,-3.9994 4,-3.9994l18.628,0l0,-18.628c0,-1.0691 0.416,-2.0732 1.171,-2.8284c0.755,-0.7552 1.759,-1.171 2.828,-1.171c1.103,0 2.105,0.4469 2.829,1.171c0.724,0.7241 1.171,1.7253 1.173,2.8256l0,22.6274c-0.002,1.072 -0.418,2.0761 -1.173,2.8313c-0.756,0.7551 -1.76,1.1709 -2.829,1.1709z"/>
    <path id="svg_16" fill="#292929" d="m536.759,67.7545l0,-22.6275c0.003,-4.4095 -3.589,-8.0016 -7.999,-7.9987c-2.135,-0.0029 -4.146,0.8315 -5.657,2.3419c-1.51,1.5104 -2.344,3.5214 -2.342,5.6568l0,14.6287l-14.628,0c-2.139,0 -4.147,0.8315 -5.657,2.3419c-1.511,1.5104 -2.342,3.5186 -2.342,5.6569c0,2.1383 0.832,4.1464 2.342,5.6568c1.51,1.5104 3.518,2.342 5.657,2.342l22.627,-0.0001c2.136,0.0029 4.147,-0.8315 5.657,-2.3419c1.51,-1.5104 2.345,-3.5214 2.342,-5.6568zm-7.999,3.9994l-22.627,0c-2.141,-0.0029 -3.997,-1.8583 -4,-3.9994c0,-2.2062 1.794,-3.9994 4,-3.9994l18.628,0l0,-18.6281c0,-1.0691 0.416,-2.0732 1.171,-2.8284c0.755,-0.7552 1.759,-1.171 2.828,-1.171c1.103,0 2.105,0.4469 2.829,1.171c0.724,0.7241 1.171,1.7254 1.173,2.8256l0,22.6274c-0.002,1.072 -0.418,2.0761 -1.173,2.8313c-0.756,0.7552 -1.76,1.171 -2.829,1.171z"/> -->
   </g>
   <!-- <path id="svg_17" fill="#292929" d="m548.66,555.656l16,-16c3.12,-3.116 3.12,-8.196 0,-11.312c-1.508,-1.512 -3.52,-2.344 -5.656,-2.344c-2.136,0 -4.148,0.832 -5.656,2.344l-10.344,10.344l-10.344,-10.344c-1.512,-1.512 -3.52,-2.344 -5.656,-2.344c-2.136,0 -4.144,0.832 -5.656,2.344c-1.512,1.512 -2.344,3.52 -2.344,5.656c0,2.136 0.832,4.144 2.344,5.656l16,16c1.508,1.512 3.52,2.344 5.656,2.344c2.136,0 4.148,-0.832 5.656,-2.344zm-8.484,-2.828l-16,-16c-1.512,-1.516 -1.512,-4.14 0,-5.656c1.56,-1.56 4.096,-1.56 5.656,0l13.172,13.172l13.172,-13.172c0.756,-0.756 1.76,-1.172 2.828,-1.172c1.068,0 2.072,0.416 2.828,1.172c0.78,0.78 1.172,1.804 1.172,2.828c0,1.024 -0.392,2.048 -1.168,2.828l-16,16c-0.76,0.756 -1.764,1.172 -2.832,1.172c-1.068,0 -2.072,-0.416 -2.828,-1.172z"/> -->
   <!-- <path id="svg_18" fill="#292929" d="m548.66,527.656l16,-16c3.12,-3.116 3.12,-8.196 0,-11.312c-1.508,-1.512 -3.52,-2.344 -5.656,-2.344c-2.136,0 -4.148,0.832 -5.656,2.344l-10.344,10.344l-10.344,-10.344c-1.512,-1.512 -3.52,-2.344 -5.656,-2.344c-2.136,0 -4.144,0.832 -5.656,2.344c-1.512,1.512 -2.344,3.52 -2.344,5.656c0,2.136 0.832,4.144 2.344,5.656l16,16c1.508,1.512 3.52,2.344 5.656,2.344c2.136,0 4.148,-0.832 5.656,-2.344zm-8.484,-2.828l-16,-16c-1.512,-1.516 -1.512,-4.14 0,-5.656c1.56,-1.56 4.096,-1.56 5.656,0l13.172,13.172l13.172,-13.172c0.756,-0.756 1.76,-1.172 2.828,-1.172c1.068,0 2.072,0.416 2.828,1.172c0.78,0.78 1.172,1.804 1.172,2.828c0,1.024 -0.392,2.048 -1.168,2.828l-16,16c-0.76,0.756 -1.764,1.172 -2.832,1.172c-1.068,0 -2.072,-0.416 -2.828,-1.172z"/> -->
  </g>
  <rect transform="translate(-864,-292) " id="svg_19" stroke-width="5" stroke="#292929" height="600" width="600" y="2" x="3"/>
 </g>
</svg>