<svg width="605" height="605" viewBox="0 0 605 605" fill="none" xmlns="http://www.w3.org/2000/svg">
<g clip-path="url(#clip0_8_48284)">
<rect x="3" y="2" width="600" height="600" fill="white"/>
<rect x="3" y="122" width="480" height="480" fill="white" stroke="#292929" stroke-width="5"/>
<path d="M423.243 341.461L398.805 365.899L390.297 357.391L383.057 364.632L407.856 389.431L415.097 382.19L406.544 373.637L430.981 349.2L423.243 341.461ZM352.56 334.859C359.982 342.281 371.25 343.412 380.482 338.163L383.469 341.15L371.522 353.097L379.215 360.79L410.894 329.112L403.2 321.418L390.936 333.683L387.995 330.741C393.38 321.916 392.792 310.286 384.963 302.457C376.093 293.587 361.521 293.406 352.515 302.411C343.962 310.965 343.192 325.491 352.56 334.859ZM360.299 310.195C364.824 305.67 372.518 305.217 377.45 309.969C382.338 314.675 381.976 322.369 377.224 327.121C372.744 331.601 364.824 332.099 360.072 327.347C355.502 322.776 355.547 314.947 360.299 310.195ZM333.872 315.447L365.55 283.769L357.812 276.03L348.399 285.443L344.009 281.053C329.211 266.255 306.9 288.475 321.744 303.319L333.872 315.447ZM341.113 292.729L333.646 300.196L329.256 295.806C324.459 291.009 331.926 283.542 336.723 288.339L341.113 292.729ZM327.119 245.337C319.833 238.051 310.556 239.907 304.99 245.473C299.378 251.085 297.568 260.317 304.854 267.603L309.289 272.038L299.876 281.451L307.614 289.189L339.293 257.511L327.119 245.337ZM312.276 260.181C310.058 257.963 310.827 255.022 312.638 253.212C314.493 251.356 317.48 250.542 319.697 252.759L324.132 257.194L316.711 264.616L312.276 260.181ZM290.047 239.762L292.309 228.358L288.01 224.059L276.696 226.231L292.355 210.573L284.661 202.879L252.983 234.558L259.047 240.622L279.638 236.685L275.701 257.276L281.855 263.43L313.534 231.752L305.795 224.013L290.047 239.762ZM259.544 177.763L250.81 169.028L231.939 214.238L237.46 219.759L282.172 200.39L273.89 192.108L267.464 195.005L256.648 184.189L259.544 177.763ZM247.416 204.191L251.851 194.869L252.213 194.145L257.463 199.394L256.467 199.847L247.416 204.191Z" fill="#292929"/>
<path d="M541.248 422.441C551.136 422.441 558.48 414.665 558.48 405.065C558.48 395.465 550.992 387.641 541.248 387.641C531.36 387.641 523.872 395.465 523.872 405.065C523.872 414.665 531.36 422.441 541.248 422.441ZM541.248 414.281C528.528 414.281 528.576 395.897 541.248 395.897C553.824 395.897 553.92 414.281 541.248 414.281ZM524.4 360.318L524.4 384.03L558 384.03L558 368.574C558 361.566 552.576 357.966 547.152 357.966C541.392 357.966 536.4 361.998 536.4 368.574L536.4 375.918L532.224 375.918L532.224 360.318L524.4 360.318ZM544.08 375.918L544.08 368.574C544.08 365.022 550.224 364.926 550.224 368.574L550.224 375.918L544.08 375.918ZM558 341.742C558 333.966 552.096 330.078 546.192 330.078C540.24 330.078 534.384 333.966 534.384 341.742L534.384 346.398L524.4 346.398L524.4 354.654L558 354.654L558 341.742ZM542.256 341.742C542.256 339.39 544.224 338.238 546.144 338.238C548.112 338.238 550.128 339.39 550.128 341.742L550.128 346.398L542.256 346.398L542.256 341.742ZM558 328.062L558 319.806L524.4 319.806L524.4 328.062L558 328.062ZM524.4 292.019L524.4 300.371L540.288 300.371C541.008 304.211 539.808 307.571 535.92 307.571L524.4 307.571L524.4 315.971L535.92 315.971C544.416 315.971 547.776 309.443 547.776 302.579C547.776 301.811 547.776 301.139 547.632 300.371L558 300.371L558 292.019L524.4 292.019ZM524.4 280.305L524.4 288.513L558 288.513L558 280.305L544.992 280.305L544.992 271.473L558 271.473L558 263.265L524.4 263.265L524.4 271.473L537.072 271.473L537.072 280.305L524.4 280.305ZM558 247.008C558 239.232 552.096 235.344 546.192 235.344C540.24 235.344 534.384 239.232 534.384 247.008L534.384 251.664L524.4 251.664L524.4 259.92L558 259.92L558 247.008ZM542.256 247.008C542.256 244.656 544.224 243.504 546.144 243.504C548.112 243.504 550.128 244.656 550.128 247.008L550.128 251.664L542.256 251.664L542.256 247.008ZM558 233.328L558 225.072L524.4 225.072L524.4 233.328L558 233.328ZM516.096 213.941L522.816 213.941L522.816 200.117L516.096 200.117L516.096 213.941ZM558 195.557L524.4 195.557L524.4 201.269L541.392 213.509L524.4 213.509L524.4 221.621L558 221.621L558 216.149L540.96 203.717L558 203.717L558 195.557Z" fill="#292929"/>
<path d="M451.943 80.6L451.943 47L443.735 47L443.735 72.68L434.903 72.68L434.903 47L426.695 47L426.695 80.6L451.943 80.6ZM422.558 63.752C422.558 53.864 414.782 46.52 405.182 46.52C395.582 46.52 387.758 54.008 387.758 63.752C387.758 73.64 395.582 81.128 405.182 81.128C414.782 81.128 422.558 73.64 422.558 63.752ZM414.398 63.752C414.398 76.472 396.014 76.424 396.014 63.752C396.014 51.176 414.398 51.08 414.398 63.752ZM377.415 63.752C377.415 75.464 361.863 76.424 359.367 66.632L351.063 66.632C352.119 75.272 359.559 81.128 368.199 81.128C377.799 81.128 385.575 73.64 385.575 63.752C385.575 53.864 377.799 46.52 368.199 46.52C359.463 46.52 352.263 52.328 351.015 61.112L359.319 61.112C361.671 51.176 377.415 51.992 377.415 63.752ZM339.812 59.816L326.228 59.816L326.228 67.784L339.812 67.784L339.812 72.68L325.94 72.68L325.94 80.6L348.068 80.6L348.068 47L325.892 47L325.892 54.92L339.812 54.92L339.812 59.816ZM304.542 47L304.541 72.92L295.518 72.92L295.517 80.6L321.822 80.6L321.822 72.92L312.75 72.92L312.75 47L304.542 47ZM266.033 47L266.033 80.6L271.745 80.6L283.985 63.608L283.985 80.6L292.097 80.6L292.097 47L286.625 47L274.193 64.04L274.193 47L266.033 47ZM245.62 47L245.62 72.92L236.596 72.92L236.596 80.6L262.9 80.6L262.9 72.92L253.828 72.92L253.828 47L245.62 47ZM225.015 59.816L211.431 59.816L211.431 67.784L225.015 67.784L225.015 72.68L211.143 72.68L211.143 80.6L233.271 80.6L233.271 47L211.095 47L211.095 54.92L225.015 54.92L225.015 59.816ZM183.601 47L174.337 47L188.305 80.984L194.161 80.984L207.601 47L198.817 47L193.681 60.344L191.185 67.448L188.593 60.152L183.601 47ZM158.946 47C151.218 47 147.282 52.904 147.282 58.808C147.282 64.76 151.218 70.616 158.946 70.616L163.65 70.616L163.65 80.6L171.858 80.6L171.858 47L158.946 47ZM158.946 62.744C156.594 62.744 155.442 60.776 155.442 58.856C155.442 56.888 156.594 54.872 158.946 54.872L163.65 54.872L163.65 62.744L158.946 62.744Z" fill="#292929"/>
<g clip-path="url(#clip1_8_48284)">
<path d="M67.1437 404.565L200.279 537.7C202.567 539.988 206.277 539.988 208.565 537.7L341.7 404.565C343.988 402.276 343.988 398.566 341.7 396.278L208.565 263.143C206.277 260.855 202.567 260.855 200.279 263.143L67.1437 396.278C64.8556 398.566 64.8556 402.276 67.1437 404.565ZM208.565 321.701L212.708 317.557L225.138 329.987C227.422 332.272 227.422 335.989 225.138 338.273C222.853 340.558 219.136 340.558 216.851 338.273L208.565 329.987C206.281 327.702 206.281 323.985 208.565 321.701ZM137.854 458.702L112.995 433.843L185.156 361.682C184.226 370.478 185.497 379.463 188.968 387.738C181.097 387.439 173.129 390.283 167.133 396.278C157.129 406.282 155.887 421.781 163.407 433.15L137.854 458.702ZM171.989 424.568C168.877 418.035 170.018 409.966 175.419 404.565C180.821 399.163 188.89 398.022 195.423 401.134L171.989 424.568ZM204.719 391.838C193.859 377.333 193.859 357.219 204.719 342.714L208.565 346.56C215.419 353.413 226.571 353.413 233.424 346.56C234.877 345.107 236.018 343.461 236.855 341.704L245.854 350.703L204.719 391.838ZM171 491.848L146.141 466.989L171.693 441.437C183.062 448.956 198.561 447.715 208.565 437.71C214.561 431.715 217.404 423.746 217.106 415.875C225.38 419.346 234.365 420.617 243.161 419.687L171 491.848ZM258.284 396.278L262.13 400.124C247.625 410.985 227.51 410.985 213.005 400.124L254.14 358.989L263.139 367.988C261.383 368.825 259.736 369.967 258.284 371.419C251.43 378.273 251.43 389.425 258.284 396.278ZM200.279 429.424C194.877 434.825 186.808 435.967 180.275 432.854L203.709 409.42C206.821 415.953 205.68 424.022 200.279 429.424ZM274.856 396.278L266.57 387.992C264.285 385.707 264.285 381.99 266.57 379.705C268.854 377.421 272.572 377.421 274.856 379.705L287.286 392.135L283.143 396.278C280.858 398.563 277.141 398.563 274.856 396.278ZM204.422 525.27L179.286 500.135L271.426 407.995C277.958 411.107 286.028 409.966 291.429 404.565L295.572 400.421L312.421 417.27L204.422 525.27ZM204.422 275.573L329.27 400.421L320.708 408.984C316.122 404.399 201.536 289.812 195.859 284.136L204.422 275.573ZM187.573 292.422L204.422 309.271L200.279 313.414C194.877 318.815 193.736 326.885 196.848 333.418L104.709 425.557L79.5733 400.421L187.573 292.422Z" fill="#292929"/>
</g>
<path d="M104.656 56.34L88.656 40.34C85.54 37.22 80.46 37.22 77.344 40.34C75.832 41.848 75 43.86 75 45.996C75 48.132 75.832 50.144 77.344 51.652L87.688 61.996L77.344 72.34C75.832 73.852 75 75.86 75 77.996C75 80.132 75.832 82.14 77.344 83.652C78.856 85.164 80.864 85.996 83 85.996C85.136 85.996 87.144 85.164 88.656 83.652L104.656 67.652C106.168 66.144 107 64.132 107 61.996C107 59.86 106.168 57.848 104.656 56.34ZM101.828 64.824L85.828 80.824C84.312 82.336 81.688 82.336 80.172 80.824C78.612 79.264 78.612 76.728 80.172 75.168L93.344 61.996L80.172 48.824C79.416 48.068 79 47.064 79 45.996C79 44.928 79.416 43.924 80.172 43.168C80.952 42.388 81.976 41.996 83 41.996C84.024 41.996 85.048 42.388 85.828 43.164L101.828 59.164C102.584 59.924 103 60.928 103 61.996C103 63.064 102.584 64.068 101.828 64.824Z" fill="#292929"/>
<path d="M76.656 56.34L60.656 40.34C57.54 37.22 52.46 37.22 49.344 40.34C47.832 41.848 47 43.86 47 45.996C47 48.132 47.832 50.144 49.344 51.652L59.688 61.996L49.344 72.34C47.832 73.852 47 75.86 47 77.996C47 80.132 47.832 82.14 49.344 83.652C50.856 85.164 52.864 85.996 55 85.996C57.136 85.996 59.144 85.164 60.656 83.652L76.656 67.652C78.168 66.144 79 64.132 79 61.996C79 59.86 78.168 57.848 76.656 56.34ZM73.828 64.824L57.828 80.824C56.312 82.336 53.688 82.336 52.172 80.824C50.612 79.264 50.612 76.728 52.172 75.168L65.344 61.996L52.172 48.824C51.416 48.068 51 47.064 51 45.996C51 44.928 51.416 43.924 52.172 43.168C52.952 42.388 53.976 41.996 55 41.996C56.024 41.996 57.048 42.388 57.828 43.164L73.828 59.164C74.584 59.924 75 60.928 75 61.996C75 63.064 74.584 64.068 73.828 64.824Z" fill="#292929"/>
<g clip-path="url(#clip2_8_48284)">
<path d="M556.558 87.5535L556.558 64.9261C556.561 60.5166 552.969 56.9245 548.559 56.9273C546.424 56.9245 544.413 57.7589 542.902 59.2693C541.392 60.7796 540.558 62.7907 540.56 64.9261L540.56 79.5547L525.932 79.5547C523.794 79.5547 521.785 80.3863 520.275 81.8967C518.765 83.4071 517.933 85.4152 517.933 87.5535C517.933 89.6918 518.765 91.7 520.275 93.2104C521.785 94.7208 523.794 95.5523 525.932 95.5523L548.559 95.5523C550.695 95.5551 552.706 94.7208 554.216 93.2104C555.726 91.7 556.561 89.689 556.558 87.5535ZM548.559 91.5529L525.932 91.5529C523.791 91.5501 521.935 89.6947 521.932 87.5535C521.932 85.3474 523.726 83.5541 525.932 83.5541H544.56L544.56 64.9261C544.56 63.857 544.976 62.8529 545.731 62.0977C546.486 61.3425 547.49 60.9267 548.559 60.9267C549.662 60.9267 550.664 61.3736 551.388 62.0977C552.112 62.8218 552.559 63.823 552.561 64.9233L552.561 87.5507C552.559 88.6227 552.143 89.6268 551.388 90.382C550.632 91.1371 549.628 91.5529 548.559 91.5529Z" fill="#292929"/>
<path d="M536.759 67.7545L536.759 45.127C536.762 40.7175 533.17 37.1254 528.76 37.1283C526.625 37.1254 524.614 37.9598 523.103 39.4702C521.593 40.9806 520.759 42.9916 520.761 45.127L520.761 59.7557L506.133 59.7557C503.994 59.7557 501.986 60.5872 500.476 62.0976C498.965 63.608 498.134 65.6162 498.134 67.7545C498.134 69.8928 498.966 71.9009 500.476 73.4113C501.986 74.9217 503.994 75.7533 506.133 75.7533L528.76 75.7532C530.896 75.7561 532.907 74.9217 534.417 73.4113C535.927 71.9009 536.762 69.8899 536.759 67.7545ZM528.76 71.7539L506.133 71.7539C503.992 71.751 502.136 69.8956 502.133 67.7545C502.133 65.5483 503.927 63.7551 506.133 63.7551L524.761 63.7551L524.761 45.127C524.761 44.0579 525.177 43.0538 525.932 42.2986C526.687 41.5434 527.691 41.1276 528.76 41.1276C529.863 41.1276 530.865 41.5745 531.589 42.2986C532.313 43.0227 532.76 44.024 532.762 45.1242V67.7516C532.76 68.8236 532.344 69.8277 531.589 70.5829C530.833 71.3381 529.829 71.7539 528.76 71.7539Z" fill="#292929"/>
</g>
<path d="M548.66 555.656L564.66 539.656C567.78 536.54 567.78 531.46 564.66 528.344C563.152 526.832 561.14 526 559.004 526C556.868 526 554.856 526.832 553.348 528.344L543.004 538.688L532.66 528.344C531.148 526.832 529.14 526 527.004 526C524.868 526 522.86 526.832 521.348 528.344C519.836 529.856 519.004 531.864 519.004 534C519.004 536.136 519.836 538.144 521.348 539.656L537.348 555.656C538.856 557.168 540.868 558 543.004 558C545.14 558 547.152 557.168 548.66 555.656ZM540.176 552.828L524.176 536.828C522.664 535.312 522.664 532.688 524.176 531.172C525.736 529.612 528.272 529.612 529.832 531.172L543.004 544.344L556.176 531.172C556.932 530.416 557.936 530 559.004 530C560.072 530 561.076 530.416 561.832 531.172C562.612 531.952 563.004 532.976 563.004 534C563.004 535.024 562.612 536.048 561.836 536.828L545.836 552.828C545.076 553.584 544.072 554 543.004 554C541.936 554 540.932 553.584 540.176 552.828Z" fill="#292929"/>
<path d="M548.66 527.656L564.66 511.656C567.78 508.54 567.78 503.46 564.66 500.344C563.152 498.832 561.14 498 559.004 498C556.868 498 554.856 498.832 553.348 500.344L543.004 510.688L532.66 500.344C531.148 498.832 529.14 498 527.004 498C524.868 498 522.86 498.832 521.348 500.344C519.836 501.856 519.004 503.864 519.004 506C519.004 508.136 519.836 510.144 521.348 511.656L537.348 527.656C538.856 529.168 540.868 530 543.004 530C545.14 530 547.152 529.168 548.66 527.656ZM540.176 524.828L524.176 508.828C522.664 507.312 522.664 504.688 524.176 503.172C525.736 501.612 528.272 501.612 529.832 503.172L543.004 516.344L556.176 503.172C556.932 502.416 557.936 502 559.004 502C560.072 502 561.076 502.416 561.832 503.172C562.612 503.952 563.004 504.976 563.004 506C563.004 507.024 562.612 508.048 561.836 508.828L545.836 524.828C545.076 525.584 544.072 526 543.004 526C541.936 526 540.932 525.584 540.176 524.828Z" fill="#292929"/>
</g>
<rect x="3" y="2" width="600" height="600" stroke="#292929" stroke-width="5"/>
<defs>
<clipPath id="clip0_8_48284">
<rect x="3" y="2" width="600" height="600" fill="white"/>
</clipPath>
<clipPath id="clip1_8_48284">
<rect width="200" height="200" fill="white" transform="translate(204.422 541.843) rotate(-135)"/>
</clipPath>
<clipPath id="clip2_8_48284">
<rect width="64" height="64" fill="white" transform="translate(533 26.7451) rotate(45)"/>
</clipPath>
</defs>
</svg>
