<svg xmlns="http://www.w3.org/2000/svg" viewBox="0 0 62 124" height="124" width="62"><g transform="matrix(-1 0 0 -1 62 124)"><path d="M-59.9334 14.4631L-35.1334 14.4631L-12.4 14.4631L10.3334 14.4631L33.0668 14.4631L59.9334 14.4631C61.0763 14.4631 62 13.5373 62 12.3966C62 11.2559 61.0763 10.33 59.9334 10.33L-59.9332 10.33C-61.076 10.33 -61.9997 11.2559 -61.9997 12.3966C-61.9997 13.5373 -61.0763 14.4631 -59.9334 14.4631Z" fill="#E4E4E4"/><path d="M-53.7333 33.0632L18.6001 33.0632C19.7408 33.0632 20.6667 33.9891 20.6667 35.1298L20.6667 61.9964C20.6667 63.1371 21.5926 64.063 22.7333 64.063L47.5333 64.063C48.674 64.063 49.5999 63.1371 49.5999 61.9964V55.7964C49.5999 54.8478 48.9552 54.0212 48.0353 53.7918L41.333 52.1156L41.333 33.063H51.6667C52.8074 33.063 53.7333 32.1371 53.7333 30.9964V24.7964C53.7333 23.6557 52.8074 22.7298 51.6667 22.7298H41.3333C41.3333 18.1706 37.6256 14.4632 33.0667 14.4632C28.5078 14.4632 24.8001 18.1709 24.8001 22.7298H18.6001C18.6001 18.1706 14.8925 14.4632 10.3335 14.4632C5.77435 14.4632 2.06694 18.1709 2.06694 22.7298H-4.13306C-4.13306 18.1706 -7.84071 14.4632 -12.3997 14.4632C-16.9586 14.4632 -20.6662 18.1709 -20.6662 22.7298H-26.8662C-26.8662 18.1706 -30.5739 14.4632 -35.1328 14.4632C-39.692 14.4632 -43.3994 18.1709 -43.3994 22.7298L-53.7328 22.7298C-54.8735 22.7298 -55.7994 23.6557 -55.7994 24.7964V30.9964C-55.7999 32.1373 -54.874 33.0632 -53.7333 33.0632Z" fill="#292929"/><path d="M-47.5334 57.8632L-37.2 57.8632V61.9966C-37.2 64.7123 -35.4352 67 -32.9985 67.837C-33.1247 68.2255 -33.257 68.612 -33.3148 69.0378C-33.6166 71.2739 -32.8973 73.4398 -31.4032 75.0145C-32.0274 77.1348 -31.9758 79.8112 -30.5021 81.9338C-29.7869 82.9631 -28.2638 84.4736 -25.3539 84.7836C-25.6886 88.111 -24.3951 91.3328 -21.6835 93.6309C-18.3542 96.4498 -13.82 97.2538 -9.73812 95.9208C-9.35571 96.8445 -8.79576 97.5989 -8.05782 98.1734C-7.16706 98.8678 -6.09029 99.2666 -4.80064 99.3761C-5.29252 102.586 -4.59599 105.746 -2.76094 108.358C-0.314119 111.838 3.70353 113.803 8.26682 113.663C13.167 113.663 18.0483 111.009 20.4147 107.06C22.1134 104.218 22.3636 100.98 21.165 97.7869C26.0981 93.6702 26.6147 88.1481 24.7879 84.2399C22.9257 80.2513 18.251 77.0457 11.7388 78.1515C10.8895 76.4569 9.28159 74.8987 7.21912 73.8672C4.36712 72.4412 1.139 72.2097 -1.90118 73.1479C-2.21118 71.2114 -3.18453 69.8164 -4.12906 68.8803C-7.80353 65.2369 -14.7311 64.7988 -20.0754 65.9312C-21.4394 64.8608 -23.2498 64.156 -25.1284 63.8915C-24.932 63.2921 -24.7998 62.6619 -24.7998 61.9964V57.863L-14.0118 57.863C-12.9021 60.2933 -9.86406 61.9964 -6.19976 61.9964C-2.53546 61.9964 0.502535 60.2936 1.61224 57.863L14.4668 57.863C15.6075 57.863 16.5334 56.9371 16.5334 55.7964L16.5334 37.1964L-47.5332 37.1964C-51.0672 37.1964 -53.7332 41.6376 -53.7332 47.5298C-53.7332 53.422 -51.0674 57.8632 -47.5334 57.8632Z" fill="#292929"/></g></svg>