<svg width="160" height="160" viewBox="0 0 160 160" fill="none" xmlns="http://www.w3.org/2000/svg">
<path d="M157.333 141.338H125.333H96H66.6666H37.3331H2.66656C1.19187 141.338 0 142.533 0 144.004C0 145.476 1.19187 146.671 2.66656 146.671H157.333C158.808 146.671 160 145.476 160 144.004C160 142.533 158.808 141.338 157.333 141.338Z" fill="#292929"/>
<path d="M149.334 117.338H56.0001C54.5282 117.338 53.3336 116.143 53.3336 114.671V80.0046C53.3336 78.5328 52.1389 77.3381 50.667 77.3381H18.667C17.1951 77.3381 16.0004 78.5328 16.0004 80.0046V88.0046C16.0004 89.2287 16.8323 90.2953 18.0192 90.5912L26.6673 92.754V117.338H13.3336C11.8617 117.338 10.667 118.533 10.667 120.005V128.005C10.667 129.477 11.8617 130.671 13.3336 130.671H26.667C26.667 136.554 31.4511 141.338 37.3336 141.338C43.2161 141.338 48.0001 136.554 48.0001 130.671H56.0001C56.0001 136.554 60.7842 141.338 66.6667 141.338C72.5495 141.338 77.3332 136.554 77.3332 130.671H85.3332C85.3332 136.554 90.1173 141.338 95.9998 141.338C101.882 141.338 106.666 136.554 106.666 130.671H114.666C114.666 136.554 119.45 141.338 125.333 141.338C131.216 141.338 135.999 136.554 135.999 130.671H149.333C150.805 130.671 151.999 129.477 151.999 128.005V120.005C152 118.532 150.805 117.338 149.334 117.338Z" fill="#292929"/>
<path d="M141.334 85.3378H128V80.0043C128 76.5003 125.723 73.5484 122.579 72.4684C122.742 71.9671 122.912 71.4684 122.987 70.919C123.376 68.0337 122.448 65.239 120.52 63.2071C121.326 60.4712 121.259 57.0178 119.358 54.279C118.435 52.9509 116.469 51.0018 112.715 50.6018C113.147 46.3084 111.478 42.1512 107.979 39.1859C103.683 35.5487 97.8323 34.5112 92.5654 36.2312C92.072 35.0393 91.3495 34.0659 90.3973 33.3246C89.2479 32.4287 87.8585 31.914 86.1945 31.7728C86.8291 27.6315 85.9304 23.554 83.5626 20.1834C80.4054 15.6928 75.2213 13.1568 69.3332 13.3381C63.0104 13.3381 56.712 16.7621 53.6585 21.8581C51.4666 25.5246 51.1438 29.7034 52.6904 33.8234C46.3251 39.1353 45.6585 46.2606 48.0157 51.3034C50.4185 56.45 56.4504 60.5862 64.8532 59.1593C65.9491 61.3459 68.0238 63.3565 70.6851 64.6875C74.3651 66.5275 78.5304 66.8262 82.4532 65.6156C82.8532 68.1143 84.1091 69.9143 85.3279 71.1221C90.0691 75.8234 99.0079 76.3887 105.904 74.9275C107.664 76.3087 110 77.2181 112.424 77.5593C112.17 78.3328 112 79.1459 112 80.0046V85.3381H98.0798C96.6479 82.2021 92.7279 80.0046 87.9998 80.0046C83.2716 80.0046 79.3516 82.2018 77.9198 85.3381H61.3332C59.8613 85.3381 58.6666 86.5328 58.6666 88.0046V112.005H141.333C145.893 112.005 149.333 106.274 149.333 98.6712C149.333 91.0684 145.894 85.3378 141.334 85.3378Z" fill="#292929"/>
</svg>
