<svg xmlns="http://www.w3.org/2000/svg" viewBox="0 0 124 124" height="124" width="124"><g transform="matrix(-1 0 0 -1 124 124)"><g clip-path="url(#clip0_451_491)">
<path d="M1.96872 67.9502L59.3189 122.923C60.8165 124.36 63.1835 124.36 64.6811 122.923L122.088 67.8934C123.303 66.6787 124 65.0051 124 63.2947C124 59.7347 121.101 56.836 117.541 56.836H108.5L108.5 10.336C108.5 4.6276 103.876 0.00333405 98.1664 0.00333405L25.8336 0.00333405C20.1243 0.00333405 15.5 4.6276 15.5 10.336L15.5 56.836H6.45865C2.89868 56.836 0 59.7347 0 63.2947C0 65.0051 0.697235 66.6787 1.96872 67.9502Z" fill="#E8B5BB"/>
</g><defs>
<clipPath id="clip0_451_491">
<rect width="124" height="124" fill="white" transform="matrix(-1 0 0 -1 124 124)"/>
</clipPath>
</defs></g></svg>