<svg width="605" height="604" xmlns="http://www.w3.org/2000/svg">

 <g>
  <title>background</title>
  <rect fill="none" id="canvas_background" height="402" width="582" y="-1" x="-1"/>
 </g>
 <g>
  <title>Layer 1</title>
  <rect id="svg_1" fill="white" height="600" width="600" y="1" x="2"/>
  <path transform="rotate(-180 306.51531982421875,311.38519287109375) " id="svg_2" fill="#292929" d="m414.749,201.667c16.564,16.563 -4.073,39.915 -21.45,29.597l-11.744,11.743c13.712,10.726 32.516,8.485 44.734,-3.733c13.577,-13.577 13.984,-35.163 0,-49.147c-13.983,-13.984 -35.366,-13.373 -48.943,0.204c-12.354,12.354 -14.323,30.75 -3.665,44.938l11.743,-11.744c-10.725,-17.378 12.694,-38.489 29.325,-21.858zm-87.306,39.924l36.657,36.657l-12.762,12.761l10.861,10.862l37.199,-37.2l-10.861,-10.861l-12.829,12.83l-36.657,-36.657l-11.608,11.608zm-45.083,45.083l-13.101,13.101l67.815,28.307l8.281,-8.281l-29.053,-67.068l-12.423,12.422l4.345,9.64l-16.224,16.224l-9.64,-4.345zm39.644,18.192l-13.984,-6.652l-1.086,-0.543l7.874,-7.874l0.679,1.493l6.517,13.576zm-8.325,45.525l-47.517,-47.518l-11.608,11.608l14.119,14.119l-6.584,6.585c-22.198,22.197 11.132,55.663 33.398,33.398l18.192,-18.192zm-34.077,-10.862l11.201,11.201l-6.585,6.585c-7.195,7.195 -18.396,-4.006 -11.2,-11.201l6.584,-6.585zm-76.654,26.557l36.657,36.657l-12.762,12.761l10.861,10.862l37.199,-37.2l-10.861,-10.861l-12.829,12.83l-36.657,-36.657l-11.608,11.608zm29.579,65.456l-34.484,-34.484l-11.336,11.336l34.484,34.485l11.336,-11.337zm-41.408,-30.275c3.394,-3.394 3.666,-8.553 0.068,-12.151c-2.987,-2.987 -8.757,-3.326 -12.151,0.068c-3.665,3.665 -3.258,9.367 -0.271,12.354c3.597,3.598 8.689,3.394 12.354,-0.271z"/>
  <rect id="svg_3" stroke-width="5" stroke="#292929" height="600" width="600" y="12" x="-643"/>
 </g>
</svg>