<svg xmlns="http://www.w3.org/2000/svg" viewBox="0 0 124 124" height="124" width="124"><g transform="matrix(-1 0 0 -1 124 124)"><path d="M3.93555 98.6157C3.93555 110.509 13.6122 120.186 25.5054 120.186L98.6157 120.186C110.509 120.186 120.186 110.509 120.186 98.6157V97.5003L101.745 72.3779C101.983 72.1991 102.256 72.0657 102.549 71.9926C108.294 70.5494 112.821 66.2333 114.6 60.6982H120.186L120.186 3.93555L3.93555 3.93555L3.93555 60.6982H9.52242C11.4076 66.5405 16.3588 70.9475 22.3678 72.1643L3.93555 97.5081V98.6157ZM98.6157 113.374L25.5054 113.374C18.5392 113.374 12.6898 108.522 11.148 102.021L112.974 102.021C111.431 108.522 105.582 113.374 98.6157 113.374ZM67.7368 53.8867H56.3843L56.3843 40.2637H67.7368L67.7368 53.8867ZM16.9512 60.6982L107.176 60.6982C105.813 62.9936 103.573 64.7114 100.89 65.3854C97.8225 66.156 95.3363 68.5209 94.3997 71.5555C92.811 76.7053 89.5699 79.3164 84.7656 79.3164C82.7725 79.3164 80.8426 78.7424 79.1851 77.6568C76.0774 75.6233 71.8798 76.0497 69.2041 78.6707C67.2834 80.551 64.7468 81.5869 62.0605 81.5869C58.7541 81.5869 55.6364 79.9727 53.7207 77.2687C51.707 74.427 48.0842 73.2343 44.7089 74.3014C43.7163 74.6165 42.6796 74.7754 41.626 74.7754C38.0258 74.7754 34.6513 72.8447 32.82 69.7377C31.3484 67.2416 28.6479 65.6926 25.7722 65.6934H25.7324C22.0436 65.6934 18.7492 63.706 16.9512 60.6982Z" fill="#292929"/></g></svg>