<svg width="124" height="124" viewBox="0 0 124 124" fill="none" xmlns="http://www.w3.org/2000/svg">
<g clip-path="url(#clip0_451_472)">
<path d="M111.739 91.1363C108.314 86.4943 102.118 79.7959 102.118 79.7959C102.118 79.7959 95.9214 86.4943 92.4968 91.1366C87.5183 97.8843 85.0981 103.067 85.0981 106.98C85.0981 116.365 92.7331 124 102.118 124C111.502 124 119.137 116.365 119.137 106.98C119.137 103.067 116.717 97.8843 111.739 91.1363Z" fill="#91C6CB"/>
<path d="M81.3353 36.3551L80.1046 36.368C78.5193 36.3845 77.0287 35.7806 75.9027 34.6668C74.7767 33.5527 74.1567 32.0669 74.1567 30.4831V18.2353L63.2155 18.2353V10.9412L81.4508 10.9412V3.64706L63.2155 3.64706V0L55.9214 0V3.64706L37.6861 3.64706V10.9412L55.9214 10.9412V18.2353H44.9802V29.5811C44.9802 33.3801 41.8897 36.4706 38.0907 36.4706H28.8651C29.0664 37.5431 29.1763 38.6472 29.1763 39.777L29.1763 58.6936C29.1763 59.8234 29.0662 60.9275 28.8651 62L81.4508 62C85.4728 62 88.745 65.2721 88.745 69.2941V72.9412H114.274V69.2941C114.274 51.1315 99.4979 36.3551 81.3353 36.3551Z" fill="#292929"/>
<path d="M11.2817 29.1763H4.86267L4.86267 69.2939H11.2817C17.1268 69.2939 21.8823 64.5384 21.8823 58.6934L21.8823 39.7768C21.8823 33.9318 17.1268 29.1763 11.2817 29.1763Z" fill="#292929"/>
</g>
<defs>
<clipPath id="clip0_451_472">
<rect width="124" height="124" fill="white"/>
</clipPath>
</defs>
</svg>
