<svg xmlns="http://www.w3.org/2000/svg" viewBox="0 0 124 124" width="124" height="124"><g transform="matrix(0 1 -1 0 124 -0)"><g clip-path="url(#clip0_451_848)">
<path d="M56.0498 1.96872L1.07705 59.3189C-0.359993 60.8165 -0.359993 63.1835 1.07705 64.6811L56.1066 122.088C57.3213 123.303 58.9949 124 60.7053 124C64.2653 124 67.164 121.101 67.164 117.541V108.5H113.664C119.372 108.5 123.997 103.876 123.997 98.1664L123.997 25.8336C123.997 20.1243 119.372 15.5 113.664 15.5H67.164V6.45865C67.164 2.89868 64.2653 0 60.7053 0C58.9949 0 57.3213 0.697235 56.0498 1.96872Z" fill="#F4ED62"/>
</g><defs>
<clipPath id="clip0_451_848">
<rect width="124" height="124" fill="white" transform="matrix(0 -1 1 0 0 124)"/>
</clipPath>
</defs></g></svg>